<svg width="499" height="377" viewBox="0 0 499 377" fill="none" xmlns="http://www.w3.org/2000/svg">
<g clipPath="url(#clip0_1772_1468)">
<path d="M42.7625 375H479.118C515.286 344.918 496.674 254.398 466.463 236.048C433.945 216.295 485.581 147.983 435.488 125.809C402.78 111.333 350.762 127.112 357.759 88.3781C367.463 34.667 254.055 20.9068 170.504 35.3834C80.1756 51.0367 162.664 127.995 63.3285 143.501C12.2489 151.475 22.1199 219.689 26.883 233.786C31.0311 246.063 58.4754 265.537 20.3342 292.355C-35.5947 331.679 41.4443 374.278 42.7625 375Z" fill="#00A973"/>
<path d="M233.146 66.6432H230.53V65.7691H233.146V66.6432ZM228.785 66.6432H226.169V65.7691H228.785V66.6432ZM224.425 66.6432H221.809V65.7691H224.425V66.6432ZM220.064 66.6432H217.448V65.7691H220.064V66.6432ZM215.704 66.6432H213.088V65.7691H215.704V66.6432ZM211.343 66.6432H208.727V65.7691H211.343V66.6432ZM206.983 66.6432H204.367V65.7691H206.983V66.6432ZM202.622 66.6432H200.006V65.7691H202.622V66.6432ZM198.262 66.6432H195.646V65.7691H198.262V66.6432ZM193.901 66.6432H191.285V65.7691H193.901V66.6432ZM189.541 66.6432H186.925V65.7691H189.541V66.6432ZM185.18 66.6432H182.564V65.7691H185.18V66.6432ZM180.82 66.6432H178.204V65.7691H180.82V66.6432ZM176.459 66.6432H173.843V65.7691H176.459V66.6432ZM172.099 66.6432H169.483V65.7691H172.099V66.6432ZM167.738 66.6432H165.122V65.7691H167.738V66.6432ZM163.378 66.6432H160.762V65.7691H163.378V66.6432ZM234.916 66.6432L234.855 65.7691C235.605 65.7167 236.285 65.3234 236.722 64.6941L237.437 65.1923C236.852 66.0401 235.937 66.5732 234.916 66.6432ZM158.965 66.6257C157.953 66.512 157.055 65.9439 156.515 65.0612L157.256 64.5979C157.657 65.236 158.328 65.673 159.07 65.7516L158.974 66.6169L158.965 66.6257ZM237.977 63.4966L237.594 63.3043H237.158C237.158 62.5439 236.817 61.8447 236.224 61.364L236.765 60.6822C237.567 61.3203 238.03 62.2817 238.03 63.3043V63.4092L237.986 63.5054L237.977 63.4966ZM156.872 63.1907L156 63.1558C156.044 62.1331 156.549 61.1979 157.378 60.5948L157.892 61.3028C157.273 61.7486 156.898 62.439 156.872 63.1995V63.1907ZM234.855 60.8308C234.794 60.8308 234.742 60.8308 234.681 60.8308H232.065V59.9568H234.681C234.759 59.9568 234.838 59.9568 234.916 59.9568L234.855 60.8308ZM230.32 60.8308H227.704V59.9568H230.32V60.8308ZM225.96 60.8308H223.701L224.408 60.0879C224.695 59.782 224.931 59.4411 225.114 59.074L225.899 59.4586C225.812 59.6334 225.724 59.7995 225.62 59.9568H225.96V60.8308ZM187.762 60.8308H185.433V59.9568H187.762V60.018L187.901 59.8956C187.954 59.9655 188.015 60.0267 188.076 60.0879L188.791 60.8308H187.762ZM183.689 60.8308H181.073V59.9568H183.689V60.8308ZM179.329 60.8308H176.712V59.9568H179.329V60.8308ZM174.968 60.8308H172.352V59.9568H174.968V60.8308ZM170.608 60.8308H167.991V59.9568H170.608V60.8308ZM166.247 60.8308H163.631V59.9568H166.247V60.8308ZM161.887 60.8308H159.349L159.27 59.9568H161.895V60.8308H161.887ZM186.323 58.7856C186.183 58.3398 186.114 57.8766 186.114 57.4046C186.114 56.9064 186.192 56.4082 186.349 55.9362L187.178 56.2072C187.055 56.5918 186.986 56.9938 186.986 57.4046C186.986 57.7892 187.038 58.165 187.151 58.5234L186.314 58.7768L186.323 58.7856ZM226.37 57.6056L225.498 57.5707V57.4134C225.498 56.6704 225.288 55.9537 224.896 55.3244L225.628 54.8524C226.117 55.6128 226.37 56.4956 226.37 57.4046C226.37 57.4658 226.37 57.5357 226.37 57.5969V57.6056ZM187.945 54.8524L187.291 54.2756C187.936 53.5414 188.765 53.0257 189.707 52.781L189.925 53.6288C189.157 53.8211 188.477 54.2493 187.954 54.8524H187.945ZM223.814 54.1969C223.16 53.7424 222.402 53.5064 221.617 53.5064V52.6324C222.585 52.6324 223.518 52.9208 224.312 53.4802L223.814 54.1969ZM219.855 53.5064H219.227L219.184 53.1218C219.105 52.4051 218.852 51.6972 218.451 51.0853L219.184 50.6134C219.655 51.3388 219.951 52.1779 220.047 53.0257L219.846 53.0519V53.5152L219.855 53.5064ZM197.442 53.5064H195.907V52.6324H196.683C196.753 52.2391 196.875 51.8545 197.024 51.4874L197.826 51.8283C197.651 52.2391 197.538 52.6761 197.486 53.1218L197.442 53.5064ZM194.163 53.5064H191.547V52.6324H194.163V53.5064ZM198.681 50.4735L198.035 49.8879C198.672 49.1799 199.474 48.638 200.364 48.3234L200.66 49.145C199.91 49.4159 199.23 49.8704 198.689 50.4735H198.681ZM217.387 49.8967C216.759 49.3985 216.009 49.0663 215.216 48.9352L215.355 48.0699C216.288 48.2273 217.169 48.6206 217.919 49.2062L217.378 49.8967H217.387ZM213.55 48.874H210.934V48H213.55V48.874ZM209.189 48.874H206.573V48H209.189V48.874ZM204.829 48.874H202.239L202.213 48H204.829V48.874Z" fill="white"/>
</g>
<path d="M479 375H43V376H479V375Z" fill="#1B1B43"/>
<g clipPath="url(#clip1_1772_1468)">
<path d="M147.475 240.248H144.859V239.374H147.475V240.248ZM143.115 240.248H140.499V239.374H143.115V240.248ZM138.754 240.248H136.138V239.374H138.754V240.248ZM134.394 240.248H131.778V239.374H134.394V240.248ZM130.033 240.248H127.417V239.374H130.033V240.248ZM125.673 240.248H123.057V239.374H125.673V240.248ZM121.312 240.248H118.696V239.374H121.312V240.248ZM116.952 240.248H114.336V239.374H116.952V240.248ZM112.591 240.248H109.975V239.374H112.591V240.248ZM108.231 240.248H105.615V239.374H108.231V240.248ZM103.87 240.248H101.254V239.374H103.87V240.248ZM99.5099 240.248H96.8936V239.374H99.5099V240.248ZM95.1494 240.248H92.5331V239.374H95.1494V240.248ZM90.7889 240.248H88.1726V239.374H90.7889V240.248ZM86.4284 240.248H83.8121V239.374H86.4284V240.248ZM82.0679 240.248H79.4516V239.374H82.0679V240.248ZM77.7074 240.248H75.0911V239.374H77.7074V240.248ZM73.3469 240.248H70.7306V239.374H73.3469V240.248ZM68.9864 240.248H66.3701V239.374H68.9864V240.248ZM149.237 240.248L149.202 239.374C150.022 239.339 150.798 239.121 151.505 238.727L151.923 239.496C151.086 239.951 150.188 240.204 149.237 240.248ZM64.5736 240.213C63.6492 240.108 62.7335 239.785 61.9486 239.269L62.4195 238.535C63.0998 238.972 63.8759 239.252 64.6695 239.348L64.5736 240.213ZM153.406 238.36L152.778 237.748C153.336 237.163 153.772 236.455 154.016 235.694L154.845 235.965C154.557 236.857 154.06 237.678 153.406 238.36ZM60.5445 238.028C59.9428 237.303 59.5067 236.446 59.28 235.537L60.1259 235.327C60.3178 236.105 60.6928 236.848 61.216 237.469L60.5445 238.028ZM154.278 234.112V234.051C154.278 233.256 154.103 232.487 153.755 231.77L154.539 231.385C154.941 232.225 155.15 233.125 155.15 234.06L154.278 234.112ZM59.9864 233.728L59.1143 233.675C59.1753 232.723 59.4457 231.822 59.9166 231.001L60.6753 231.438C60.2654 232.146 60.0387 232.924 59.9864 233.737V233.728ZM152.848 230.441C152.298 229.847 151.609 229.384 150.859 229.104L151.173 228.291C152.045 228.623 152.848 229.165 153.484 229.856L152.848 230.45V230.441ZM61.6782 230.171L61.0852 229.532C61.7742 228.894 62.6114 228.414 63.5009 228.143L63.7538 228.982C62.9864 229.218 62.2713 229.629 61.6782 230.179V230.171ZM149.246 228.763L148.853 228.746L148.792 228.353C148.749 227.522 148.566 226.709 148.26 225.94L149.071 225.617C149.42 226.473 149.621 227.382 149.664 228.3L149.272 228.326V228.562L149.246 228.772V228.763ZM76.6871 228.746H74.0708V227.872H76.6871V228.746ZM72.3266 228.746H69.7103V227.872H72.3266V228.746ZM67.9661 228.746H65.3498V227.872H67.9661V228.746ZM78.1348 227.566L77.2714 227.426C77.4196 226.517 77.7074 225.634 78.1435 224.813L78.9109 225.223C78.5272 225.958 78.2568 226.744 78.126 227.566H78.1348ZM147.484 224.481C147.013 223.799 146.446 223.196 145.784 222.689L146.316 221.99C147.048 222.549 147.685 223.222 148.208 223.982L147.484 224.472V224.481ZM79.8441 223.86L79.1813 223.301C79.7743 222.593 80.4807 221.99 81.2656 221.509L81.7191 222.252C81.0127 222.68 80.3848 223.222 79.8528 223.86H79.8441ZM144.379 221.841C143.629 221.491 142.827 221.273 142.007 221.185L142.103 220.32C143.019 220.416 143.909 220.661 144.754 221.054L144.388 221.85L144.379 221.841ZM83.2017 221.553L82.9226 220.722C83.7947 220.425 84.7017 220.268 85.6348 220.268V221.142C84.8063 221.142 83.9865 221.282 83.2104 221.553H83.2017ZM94.7134 221.142H91.7308V220.268H94.1116V220.46L94.4605 220.355L94.7134 221.142ZM89.9866 221.142H87.3703V220.268H89.9866V221.142ZM140.847 220.748L140.019 220.486C140.254 219.743 140.377 218.974 140.377 218.205V218.048L141.249 218.03V218.205C141.249 219.062 141.118 219.918 140.856 220.757L140.847 220.748ZM93.2918 218.791C93.2744 218.59 93.2744 218.397 93.2744 218.196C93.2744 217.471 93.3703 216.745 93.5535 216.046L94.3994 216.265C94.2337 216.894 94.1552 217.541 94.1552 218.188C94.1552 218.371 94.1552 218.546 94.1727 218.721L93.3006 218.782L93.2918 218.791ZM140.158 216.404C139.967 215.6 139.635 214.84 139.199 214.132L139.932 213.66C140.429 214.447 140.786 215.294 141.004 216.195L140.158 216.404ZM94.975 214.735L94.1988 214.333C94.6174 213.511 95.1669 212.769 95.8297 212.122L96.4401 212.742C95.8471 213.328 95.35 213.992 94.975 214.726V214.735ZM138.161 212.847C137.577 212.253 136.906 211.763 136.173 211.388L136.565 210.61C137.385 211.029 138.135 211.571 138.781 212.235L138.161 212.847ZM97.7308 211.728L97.2686 210.985C98.0535 210.496 98.9082 210.138 99.7977 209.919L99.9983 210.767C99.196 210.959 98.4285 211.283 97.7308 211.72V211.728ZM134.638 210.802C134.028 210.645 133.391 210.566 132.754 210.566H132.153V209.692H132.754C133.469 209.692 134.176 209.779 134.856 209.954L134.638 210.802ZM101.629 210.566V209.692H104.245V210.566H101.629ZM130.408 210.566H127.792V209.692H130.408V210.566ZM126.048 210.566H123.432V209.692H126.048V210.566ZM121.687 210.566H119.071V209.692H121.687V210.566ZM117.327 210.566H114.711V209.692H117.327V210.566ZM112.966 210.566H110.35V209.692H112.966V210.566ZM108.606 210.566H105.99V209.692H108.606V210.566Z" fill="#E6E7E8"/>
<path d="M413.125 216.623H410.509V215.749H413.125V216.623ZM408.765 216.623H406.149V215.749H408.765V216.623ZM404.404 216.623H401.788V215.749H404.404V216.623ZM400.044 216.623H397.428V215.749H400.044V216.623ZM395.683 216.623H393.067V215.749H395.683V216.623ZM391.323 216.623H388.707V215.749H391.323V216.623ZM386.962 216.623H384.346V215.749H386.962V216.623ZM382.602 216.623H379.986V215.749H382.602V216.623ZM378.241 216.623H375.625V215.749H378.241V216.623ZM373.881 216.623H371.265V215.749H373.881V216.623ZM369.52 216.623H366.904V215.749H369.52V216.623ZM365.16 216.623H362.544V215.749H365.16V216.623ZM360.799 216.623H358.183V215.749H360.799V216.623ZM356.439 216.623H353.823V215.749H356.439V216.623ZM352.078 216.623H349.462V215.749H352.078V216.623ZM347.718 216.623H345.102V215.749H347.718V216.623ZM343.357 216.623H340.741V215.749H343.357V216.623ZM414.896 216.623L414.835 215.749C415.585 215.697 416.265 215.303 416.701 214.674L417.416 215.172C416.832 216.02 415.916 216.553 414.896 216.623ZM338.945 216.606C337.933 216.492 337.035 215.924 336.494 215.041L337.235 214.578C337.636 215.216 338.308 215.653 339.049 215.732L338.953 216.597L338.945 216.606ZM417.957 213.477L417.573 213.284H417.137C417.137 212.524 416.797 211.825 416.204 211.344L416.745 210.662C417.547 211.3 418.009 212.262 418.009 213.284V213.389L417.966 213.485L417.957 213.477ZM336.852 213.171L335.979 213.136C336.023 212.113 336.529 211.178 337.357 210.575L337.872 211.283C337.253 211.729 336.878 212.419 336.852 213.179V213.171ZM414.835 210.811C414.774 210.811 414.721 210.811 414.66 210.811H412.044V209.937H414.66C414.739 209.937 414.817 209.937 414.896 209.937L414.835 210.811ZM410.3 210.811H407.684V209.937H410.3V210.811ZM405.939 210.811H403.681L404.387 210.068C404.675 209.762 404.91 209.421 405.093 209.054L405.878 209.439C405.791 209.613 405.704 209.779 405.599 209.937H405.939V210.811ZM367.741 210.811H365.413V209.937H367.741V209.998L367.881 209.876C367.933 209.946 367.994 210.007 368.055 210.068L368.77 210.811H367.741ZM363.669 210.811H361.052V209.937H363.669V210.811ZM359.308 210.811H356.692V209.937H359.308V210.811ZM354.948 210.811H352.331V209.937H354.948V210.811ZM350.587 210.811H347.971V209.937H350.587V210.811ZM346.227 210.811H343.61V209.937H346.227V210.811ZM341.866 210.811H339.328L339.25 209.937H341.875V210.811H341.866ZM366.302 208.766C366.163 208.32 366.093 207.857 366.093 207.385C366.093 206.886 366.172 206.388 366.329 205.916L367.157 206.187C367.035 206.572 366.965 206.974 366.965 207.385C366.965 207.769 367.018 208.145 367.131 208.503L366.294 208.757L366.302 208.766ZM406.349 207.586L405.477 207.551V207.393C405.477 206.65 405.268 205.934 404.875 205.304L405.608 204.832C406.096 205.593 406.349 206.476 406.349 207.385C406.349 207.446 406.349 207.516 406.349 207.577V207.586ZM367.925 204.832L367.27 204.256C367.916 203.521 368.744 203.006 369.686 202.761L369.904 203.609C369.137 203.801 368.456 204.229 367.933 204.832H367.925ZM403.794 204.177C403.14 203.722 402.381 203.486 401.596 203.486V202.612C402.564 202.612 403.497 202.901 404.291 203.46L403.794 204.177ZM399.835 203.486H399.207L399.163 203.102C399.085 202.385 398.832 201.677 398.431 201.065L399.163 200.593C399.634 201.319 399.931 202.158 400.026 203.006L399.826 203.032V203.495L399.835 203.486ZM377.422 203.486H375.887V202.612H376.663C376.733 202.219 376.855 201.834 377.003 201.467L377.805 201.808C377.631 202.219 377.518 202.656 377.465 203.102L377.422 203.486ZM374.143 203.486H371.526V202.612H374.143V203.486ZM378.66 200.453L378.015 199.868C378.651 199.16 379.454 198.618 380.343 198.303L380.64 199.125C379.89 199.396 379.209 199.85 378.669 200.453H378.66ZM397.367 199.877C396.739 199.378 395.989 199.046 395.195 198.915L395.335 198.05C396.268 198.207 397.149 198.601 397.899 199.186L397.358 199.877H397.367ZM393.529 198.854H390.913V197.98H393.529V198.854ZM389.169 198.854H386.553V197.98H389.169V198.854ZM384.808 198.854H382.218L382.192 197.98H384.808V198.854Z" fill="white"/>
<path d="M402.346 223.764H392.387C393.128 222.986 393.599 221.937 393.599 220.775C393.599 218.389 391.654 216.439 389.274 216.439H387.285C386.989 213.844 384.774 211.807 382.105 211.807H369.896C367.227 211.807 365.012 213.844 364.715 216.439H358.541C356.16 216.439 354.215 218.389 354.215 220.775C354.215 221.928 354.677 222.986 355.427 223.764H327.014C325.419 223.764 324.11 225.075 324.11 226.674C324.11 228.274 325.419 229.585 327.014 229.585H402.355C403.951 229.585 405.259 228.274 405.259 226.674C405.259 225.075 403.951 223.764 402.355 223.764H402.346Z" fill="white"/>
<path d="M414.189 337.598L414.337 340.352H412.828V339.233L405.337 333.892L412.828 338.429L412.968 334.478L411.032 332.162L412.968 333.726L413.578 326.778L414.136 336.681L421.828 332.643L414.189 337.598Z" fill="#0F7292"/>
<path d="M427.584 333.893C427.584 336.226 427.017 338.42 426.014 340.352H414.346L414.189 337.598L421.828 332.651L414.136 336.689L413.587 326.787L412.968 333.735L411.032 332.179L412.968 334.496L412.828 338.446L405.337 333.901L412.828 339.242V340.36H401.16C400.157 338.429 399.59 336.226 399.59 333.901C399.59 326.157 405.86 319.873 413.587 319.873C421.314 319.873 427.584 326.157 427.584 333.901V333.893Z" fill="#B9EDE3"/>
<path d="M113.071 328.229L113.175 330.082H112.164V329.33L107.123 325.738L112.164 328.788L112.251 326.131L110.952 324.576L112.251 325.624L112.67 320.957L113.045 327.617L118.216 324.899L113.071 328.229Z" fill="#0F7292"/>
<path d="M122.08 325.738C122.08 327.302 121.696 328.78 121.024 330.082H113.175L113.071 328.229L118.207 324.899L113.036 327.608L112.661 320.948L112.242 325.615L110.943 324.567L112.242 326.122L112.146 328.779L107.114 325.72L112.146 329.313V330.064H104.297C103.626 328.762 103.242 327.285 103.242 325.72C103.242 320.511 107.454 316.29 112.652 316.29C117.85 316.29 122.062 320.511 122.062 325.72L122.08 325.738Z" fill="#B9EDE3"/>
<path d="M250.025 328.229L250.13 330.082H249.109V329.33L244.077 325.738L249.109 328.788L249.205 326.131L247.906 324.576L249.205 325.624L249.624 320.957L249.99 327.617L255.162 324.899L250.025 328.229Z" fill="#0F7292"/>
<path d="M259.034 325.738C259.034 327.302 258.65 328.78 257.978 330.082H250.13L250.025 328.229L255.162 324.899L249.99 327.608L249.615 320.948L249.196 325.615L247.897 324.567L249.196 326.122L249.1 328.779L244.068 325.72L249.1 329.313V330.064H241.252C240.58 328.762 240.196 327.285 240.196 325.72C240.196 320.511 244.409 316.29 249.606 316.29C254.804 316.29 259.016 320.511 259.016 325.72L259.034 325.738Z" fill="#B9EDE3"/>
<path d="M272.961 362.412L273.301 368.487H269.961V366.022L253.426 354.223L269.961 364.256L270.266 355.534L266.001 350.42L270.266 353.855L271.627 338.516L272.847 360.384L289.836 351.478L272.961 362.412Z" fill="#0F7292"/>
<path d="M302.534 354.222C302.534 359.362 301.287 364.221 299.072 368.487H273.301L272.961 362.412L289.828 351.478L272.848 360.393L271.627 338.525L270.266 353.864L266.002 350.429L270.266 355.542L269.961 364.265L253.426 354.231L269.961 366.031V368.495H244.191C241.976 364.23 240.72 359.379 240.72 354.231C240.72 337.126 254.56 323.255 271.636 323.255C288.711 323.255 302.543 337.126 302.543 354.231L302.534 354.222Z" fill="#7FD6C5"/>
<path d="M386.518 363.409L386.84 369.282H383.614V366.896L367.637 355.499L383.614 365.192L383.91 356.766L379.785 351.819L383.91 355.141L385.227 340.326L386.404 361.46L402.817 352.842L386.518 363.409Z" fill="#0F7292"/>
<path d="M415.096 355.499C415.096 360.472 413.893 365.157 411.747 369.282H386.84L386.518 363.409L402.817 352.842L386.404 361.451L385.227 340.317L383.91 355.14L379.785 351.819L383.91 356.757L383.613 365.192L367.637 355.499L383.613 366.896V369.282H358.706C356.561 365.157 355.357 360.472 355.357 355.499C355.357 338.962 368.735 325.563 385.227 325.563C401.718 325.563 415.096 338.962 415.096 355.499Z" fill="#7FD6C5"/>
<path d="M65.8468 362.107L66.091 366.381H63.7364V364.641L52.1025 356.347L63.7364 363.409L63.9544 357.264L60.9544 353.672L63.9544 356.084L64.9137 345.299L65.7683 360.682L77.7161 354.415L65.8468 362.107Z" fill="#0F7292"/>
<path d="M86.6547 356.347C86.6547 359.965 85.7739 363.374 84.2128 366.381H66.0906L65.8551 362.107L77.7244 354.415L65.7766 360.682L64.922 345.299L63.9627 356.085L60.9626 353.663L63.9627 357.256L63.7446 363.391L52.1108 356.329L63.7446 364.624V366.363H45.605C44.0439 363.356 43.1631 359.948 43.1631 356.329C43.1631 344.294 52.9044 334.54 64.9133 334.54C76.9221 334.54 86.6547 344.294 86.6547 356.329V356.347Z" fill="#B9EDE3"/>
<path d="M96.7883 364.545L97.1197 370.418H93.8929V368.032L77.916 356.635L93.8929 366.328L94.1894 357.893L90.0644 352.955L94.1894 356.276L95.5063 341.461L96.6836 362.587L113.097 353.978L96.7883 364.545Z" fill="#0F7292"/>
<path d="M125.376 356.635C125.376 361.608 124.172 366.293 122.027 370.418H97.1195L96.7968 364.545L113.096 353.978L96.6835 362.587L95.5061 341.453L94.1893 356.277L90.0642 352.955L94.1893 357.894L93.8927 366.328L77.9159 356.635L93.8927 368.032V370.418H68.9856C66.8402 366.293 65.6367 361.608 65.6367 356.635C65.6367 340.098 79.0147 326.699 95.5061 326.699C111.998 326.699 125.376 340.098 125.376 356.635Z" fill="#7FD6C5"/>
<path d="M387.424 311.168C388.183 311.412 388.907 311.5 389.587 311.482C391.427 313.283 390.852 315.651 389.203 317.836C388.506 318.763 387.433 318.772 386.142 318.282C384.389 317.635 382.253 316.071 380.194 314.664C376.636 312.243 369.424 304.341 369.424 304.341C363.162 303.118 364.34 296.711 365.979 296.51C367.61 296.326 369.302 300.347 369.302 300.347C369.302 300.347 369.625 297.323 370.444 297.384C371.273 297.436 370.488 300.146 371.883 302.567C373.279 304.988 384.241 310.11 387.424 311.15V311.168Z" fill="#E8C8A1"/>
<path d="M157.277 250.554H124.417C118.391 250.554 113.498 255.448 113.498 261.497V364.353C113.498 370.393 118.382 375.296 124.417 375.296H227.045C233.072 375.296 237.964 370.401 237.964 364.353V331.437C248.159 331.437 256.435 323.142 256.435 312.925C256.435 302.707 248.159 294.413 237.964 294.413V261.497C237.964 255.457 233.08 250.554 227.045 250.554H194.193C194.036 260.623 185.821 268.742 175.74 268.742C165.658 268.742 157.443 260.623 157.286 250.554H157.277Z" fill="#E50064"/>
<path d="M334.131 226.019L366.154 233.344C372.032 234.69 377.884 231.001 379.227 225.11L386.535 193.016C396.477 195.288 406.384 189.065 408.652 179.092C410.919 169.128 404.692 159.199 394.759 156.927L402.067 124.85C403.41 118.959 399.73 113.094 393.852 111.748L361.82 104.415C361.855 104.31 361.881 104.205 361.907 104.092C364.175 94.1276 357.965 84.1985 348.015 81.9261C338.073 79.6536 328.166 85.8942 325.898 95.8494C325.872 95.9543 325.846 96.0679 325.837 96.1728L293.814 88.8484C287.936 87.5024 282.084 91.1908 280.741 97.0818L273.433 129.159C283.375 131.431 289.601 141.36 287.325 151.324C285.049 161.297 275.151 167.529 265.209 165.248L257.9 197.342C256.557 203.233 260.238 209.098 266.116 210.444L298.122 217.768C300.389 207.804 310.296 201.564 320.238 203.845C330.189 206.126 336.407 216.047 334.131 226.011V226.019Z" fill="#CA951E"/>
<path d="M99.6581 204.44L111.222 235.249C113.341 240.904 119.638 243.762 125.28 241.638L156.022 230.049C159.606 239.611 170.255 244.462 179.813 240.861C189.354 237.268 194.185 226.579 190.601 217.017L221.333 205.436C226.976 203.312 229.828 197.002 227.708 191.347L216.144 160.528C216.249 160.502 216.354 160.458 216.458 160.423C225.999 156.831 230.839 146.159 227.246 136.58C223.662 127.018 212.996 122.175 203.455 125.768C203.351 125.803 203.246 125.846 203.15 125.899L191.586 95.0891C189.467 89.4341 183.17 86.576 177.528 88.6999L146.795 100.281C150.379 109.843 145.548 120.524 136.007 124.125C126.449 127.726 115.809 122.875 112.216 113.313L81.4748 124.902C75.8323 127.026 72.9806 133.337 75.0998 138.992L86.6551 169.793C96.1958 166.201 106.853 171.043 110.446 180.605C114.039 190.184 109.199 200.847 99.6581 204.448V204.44Z" fill="#4A3D98"/>
<path d="M299.674 251.882H290.525C290.525 251.882 290.831 250.318 291.162 248.465C291.336 247.984 295.409 248.255 295.409 248.255L299.674 251.882Z" fill="#26363D"/>
<path d="M280.295 232.207C275.787 232.653 272.342 232.207 272.342 232.207C272.342 232.47 272.342 232.723 272.351 232.985C272.403 234.602 272.909 236.193 273.79 237.539C274.592 238.745 275.438 240.467 275.246 242.005C274.941 244.453 273.423 245.904 267.973 242.879L268.112 247.809C268.112 247.809 275.665 252.494 279.327 250.44C282.929 248.438 282.981 244.767 282.877 237.836L280.295 232.199V232.207Z" fill="#3A4D57"/>
<path d="M270.38 207.839C270.389 208.04 268.723 210.628 271.086 213.25C261.31 214.814 261.467 208.04 261.467 208.04C263.202 208.469 266.124 208.74 270.014 207.927C270.136 207.901 270.258 207.874 270.38 207.839Z" fill="#EED7BA"/>
<path d="M315.616 203.391C315.834 203.906 314.081 206.048 310.775 206.327C310.775 206.327 306.389 216.064 302.857 216.702C300.834 217.087 298.374 216.938 296.02 216.405C298.618 213.582 297.99 210.872 297.99 210.872C299.22 211.301 300.432 211.528 301.366 211.301C303.72 210.732 307.008 205.873 307.932 204.824C308.857 203.775 311.482 201.249 312.145 201.616C312.807 201.975 310.418 203.688 310.749 204.02C311.081 204.352 315.38 202.866 315.616 203.373V203.391Z" fill="#EED7BA"/>
<path d="M296.805 198.863C296.378 200.751 295.244 205.454 292.793 205.593C291.45 205.663 289.959 205.156 289.959 205.156C289.959 205.156 289.549 205.655 288.982 206.52C287.22 205.689 284.796 204.632 283.959 204.37C283.872 204.343 283.784 204.317 283.688 204.309C284.308 203.4 284.822 202.727 285.668 201.11C285.965 201.433 287.255 202.727 288.834 202.858C290.212 202.971 291.284 202.045 291.284 201.678C291.284 200.952 291.808 199.536 292.968 199.563C294.11 199.589 293.447 201.695 293.447 201.8C293.447 201.914 294.25 201.8 294.25 201.8C294.843 199.886 295.689 199.187 296.796 198.863H296.805Z" fill="#EED7BA"/>
<path d="M219.607 167.826C219.816 169.155 219.912 177.519 213.859 187.081C213.859 187.081 220.888 204.841 220.775 208.757C220.775 208.757 220.566 208.914 220.173 209.203C218.011 210.732 210.275 215.618 202.112 214.316L198.249 195.813L177.955 197.762L176.821 195.393C177.083 195.306 193.679 188.462 201.877 184.258C203.412 183.471 204.676 182.763 205.444 182.23C205.618 182.108 205.792 181.985 205.958 181.863C210.659 178.542 214.662 174.434 216.929 166.803C216.929 166.803 219.388 166.497 219.598 167.826H219.607Z" fill="#FA8B65"/>
<path d="M173.49 194.178C174.083 193.732 176.821 195.384 176.821 195.384L177.955 197.753C175.653 199.116 174.667 199.361 172.67 199.448C170.664 199.518 170.019 198.67 170.211 197.534C170.385 196.415 174.519 195.629 174.519 195.629C173.682 195.061 172.906 194.615 173.499 194.178H173.49Z" fill="#EED7BA"/>
<path d="M217.008 161.996C217.426 161.944 217.958 163.98 217.958 163.98C217.958 163.98 218.534 162.162 219.101 162.748C219.676 163.316 221.22 166.183 219.607 167.835C219.397 166.506 216.938 166.812 216.938 166.812C216.877 166.602 216.153 162.337 217.008 162.005V161.996Z" fill="#EED7BA"/>
<path d="M200.743 176.636C201.903 177.047 201.703 178.585 201.99 179.066C202.269 179.556 202.06 180.596 204.833 180.028C204.833 180.167 205.906 181.706 205.967 181.854C205.793 181.977 205.618 182.099 205.453 182.221C204.676 182.755 203.421 183.454 201.886 184.249C200.926 182.195 200.298 182.055 200.298 182.055C200.298 182.055 198.45 182.711 197.333 181.959C196.461 181.374 195.938 179.704 195.781 178.848C195.423 176.925 195.781 174.46 195.781 174.46C195.903 174.495 196.025 174.547 196.139 174.574C198.022 175.063 198.65 177.484 198.659 178.437H199.217C199.217 178.437 198.345 175.369 200.752 176.636H200.743Z" fill="#EED7BA"/>
<path d="M204.197 246.489V250.545C203.621 250.667 194.656 250.545 194.656 250.545L200.15 246.384L204.206 246.48L204.197 246.489Z" fill="#26363D"/>
<path d="M223.898 245.763C223.898 245.763 219.485 250.903 215.752 250.606C215.63 250.702 218.875 245.422 219.023 244.627L222.25 242.556L223.898 245.763Z" fill="#26363D"/>
<path d="M202.103 214.307C210.266 215.618 218.002 210.732 220.165 209.194C221.97 213.844 220.444 220.172 219.694 225.023C218.508 232.705 222.519 243.028 222.519 243.028L219.022 244.627C219.048 244.487 219.057 244.409 219.057 244.409C219.057 244.409 214.13 236.927 212.665 231.761C211.199 226.587 211.67 217.654 211.67 217.654C206.281 226.439 204.196 246.498 204.196 246.498L200.141 246.401C200.141 246.401 199.478 236.315 199.635 227.627C199.784 218.939 202.095 214.316 202.095 214.316L202.103 214.307Z" fill="#3A4D57"/>
<path d="M201.196 179.092C200.917 178.611 201.44 176.741 200.516 176.557C198.99 175.849 199.208 178.437 199.208 178.437H198.65C198.641 177.484 198.013 175.072 196.129 174.573C196.016 174.547 195.894 174.503 195.772 174.46C193.897 173.769 191.315 171.453 192.981 171.2C194.751 170.937 199.914 169.705 202.6 171.383C205.086 172.921 204.868 178.34 204.842 180.019C202.068 180.587 201.493 179.573 201.205 179.083L201.196 179.092Z" fill="#845E40"/>
<path d="M85.1285 330.484L80.9512 328.089L76.3203 334.548L77.0703 337.45C91.8175 349.861 88.2942 370.777 88.2942 370.777H93.71C93.71 370.777 95.9949 366.127 95.2449 352.632C94.4687 338.665 85.1285 330.475 85.1285 330.475V330.484Z" fill="#3A4D57"/>
<path d="M58.3028 370.698L61.8174 374.343C62.1226 374.657 61.8523 375.173 61.4249 375.112L52.0586 373.801L53.9074 370.471" fill="#26363D"/>
<path d="M88.7823 370.785L88.1719 374.788H96.9016C97.3725 374.788 97.5731 374.194 97.2068 373.905L93.1952 370.785" fill="#26363D"/>
<path d="M66.3003 329.208C65.9166 332.223 64.1811 341.418 61.3817 349.852C57.8846 360.367 53.2275 370.139 53.2275 370.453L59.088 371.214C59.088 371.214 64.7044 362.893 68.7422 356.137C72.7626 349.38 77.0707 337.458 77.0707 337.458C77.0707 337.458 81.3179 334.985 81.3964 330.484C81.4661 325.982 74.5678 326.996 74.5678 326.996L66.309 329.208H66.3003Z" fill="#3A4D57"/>
<path d="M91.8179 312.033C91.1987 311.771 90.5969 311.517 90.0301 311.246C89.751 307.864 88.7394 304.534 86.751 302.838C87.4051 303.292 90.0214 305.032 92.2452 305.399C92.5156 305.443 92.9342 305.521 93.4574 305.609C93.501 305.617 93.8935 310.975 91.8702 311.884L91.8179 312.033Z" fill="#049B9B"/>
<path d="M86.5933 302.715C86.6456 302.75 86.698 302.794 86.7503 302.838C89.1573 304.769 89.6369 307.933 89.7067 310.835C89.8288 316.193 88.5294 321.149 86.7503 326.157C86.3753 327.206 85.9916 328.255 85.5991 329.295C85.5468 329.443 85.2939 330.44 85.1369 330.492C78.7531 332.686 68.4885 329.863 66.3083 329.216C66.0379 329.129 65.8896 329.085 65.8896 329.085C65.8896 329.085 66.2385 323.535 69.9624 313.737C73.6862 303.948 80.9247 300.565 81.134 300.355C81.134 300.355 83.7503 303.554 85.3985 302.348C85.3985 302.348 85.4072 302.243 85.4421 302.086L85.634 302.121C85.9828 302.278 86.2968 302.479 86.602 302.715H86.5933Z" fill="#00ACB3"/>
<path d="M87.6924 295.461C87.6924 295.461 87.3436 293.739 86.4628 293.739C85.5819 293.739 84.3523 294.369 85.8697 296.125C85.8697 296.125 85.0936 297.769 82.0674 297.873C82.329 297.043 82.5383 296.134 82.5645 295.391C82.5994 293.451 82.3813 289.046 85.5558 288.137C88.7128 287.228 90.6488 287.953 92.0529 289.046C93.457 290.138 94.7128 290.558 95.4628 290.601C95.4628 290.601 94.2855 292.393 92.7419 292.874C92.3233 292.996 91.8959 293.04 91.4512 292.918C89.3494 292.358 88.8872 292.612 88.2942 294.036L87.7011 295.452L87.6924 295.461Z" fill="#845E40"/>
<path d="M113.515 309.988C113.515 310.136 103.469 313.965 96.4308 313.764C95.175 313.335 93.9366 312.881 92.7418 312.4C92.4279 312.278 92.1226 312.155 91.8174 312.024L91.8697 311.876C93.893 310.967 93.5005 305.609 93.4569 305.6C97.957 306.43 110.698 308.834 113.515 307.444V309.979V309.988Z" fill="#E5CBAE"/>
<path d="M86.4632 293.731C87.344 293.731 87.6928 295.452 87.6928 295.452L88.2858 294.037C88.8789 292.621 89.3411 292.358 91.4428 292.918C91.8963 293.04 92.3237 292.996 92.7336 292.874C92.7423 293.425 92.6463 294.911 91.5649 297.55C90.1609 301.011 87.3701 300.233 86.5068 300.347C85.844 300.434 85.5387 301.579 85.4254 302.086C85.3905 302.244 85.3818 302.349 85.3818 302.349C83.7422 303.555 81.1172 300.356 81.1172 300.356C81.1172 300.356 81.6492 299.211 82.0591 297.874C85.0852 297.769 85.8614 296.125 85.8614 296.125C84.344 294.369 85.5823 293.739 86.4544 293.739L86.4632 293.731Z" fill="#EED7BA"/>
<path d="M92.5151 309.078C92.2099 308.93 91.9221 308.772 91.6343 308.624C91.0413 308.309 90.457 307.995 89.925 307.68C87.9802 306.552 86.3755 305.407 85.3726 304.315C84.5528 303.415 83.5325 302.724 82.3377 302.523C80.9947 302.296 79.39 302.541 78.3784 304.481C76.3813 308.318 78.1865 311.255 81.9104 312.776C83.3493 313.361 85.6517 314.209 88.329 315.092C88.8 315.249 89.2796 315.406 89.7767 315.555C89.9163 309.856 92.5151 309.087 92.5151 309.087V309.078Z" fill="#0ABFBF"/>
<path d="M110.35 315.914C112.225 316.036 113.769 313.021 113.769 314.017C113.769 314.891 113.219 315.887 113.08 316.115C113.437 315.686 116.568 311.911 117.467 314.209C118.417 316.648 114.091 319.322 113.882 319.541C113.673 319.759 108.17 319.261 101.716 318.44C98.1757 317.994 93.7192 316.796 89.7773 315.555C89.9169 309.857 92.5157 309.087 92.5157 309.087C93.6582 309.682 94.853 310.241 96.0652 310.774C102.475 313.641 109.321 315.844 110.35 315.922V315.914Z" fill="#EED7BA"/>
<path d="M253 332.21V365.077C253 371.105 257.865 376 263.878 376H366.122C372.126 376 377 371.114 377 365.077V262.403C377 256.374 372.135 251.479 366.122 251.479H333.402C333.402 241.28 325.157 233 315 233C304.843 233 296.598 241.28 296.598 251.479H263.878C257.874 251.479 253 256.365 253 262.403V295.278C263.009 295.435 271.08 303.654 271.08 313.74C271.08 323.826 263.009 332.044 253 332.201V332.21Z" fill="#006B65"/>
<path d="M278.665 232.33C278.665 232.33 278.613 237.443 282.877 238.396C286.802 239.27 293.63 238.396 293.63 238.396C293.63 238.396 291.651 242.976 290.839 248.631C290.839 248.631 293.159 248.875 295.601 248.36C295.601 248.36 300.345 239.663 300.494 235.441C300.642 231.22 290.578 229.48 290.578 229.48L278.656 232.33H278.665Z" fill="#3A4D57"/>
<path d="M288.275 206.188C290.072 207.027 291.929 207.936 292.958 208.495C294.162 209.151 296.194 210.06 298.06 210.698C298.06 210.698 298.618 213.932 296.019 216.764C294.223 216.353 292.435 215.837 291.11 215.522C291.11 215.522 290.726 223.913 290.595 229.481C282.345 233.493 271.679 232.549 271.679 232.549C271.609 224.306 274.234 213.128 274.234 213.128C273.188 213.267 271.984 213.425 271.278 213.425C268.505 210.811 270.406 208.041 270.397 207.84C275.194 205.724 276.537 204.221 278.682 203.968C280.139 203.793 281.909 203.968 283.714 204.309C283.81 204.317 283.897 204.343 283.984 204.37C284.822 204.632 286.531 205.357 288.293 206.188H288.275Z" fill="#00ACB3"/>
<path d="M268.068 243.002C266.568 242.635 265.478 242.748 265.313 242.775C265.147 242.801 265.138 247.486 265.191 248.875C265.234 250.073 265.888 251.165 267.571 251.532C267.92 251.611 268.191 251.235 268.042 250.903C267.685 250.134 267.345 248.875 268.121 247.652L268.077 243.002H268.068Z" fill="#26363D"/>
<path d="M378.852 302.15C378.852 302.15 378.529 304.361 379 305.987C379.48 307.621 379.855 307.997 380.178 308.093C380.5 308.189 381.582 308.19 381.582 308.19L382.611 310.803L385.994 307.586L383.465 301.014L378.861 302.141L378.852 302.15Z" fill="#EED7BA"/>
<path d="M375.024 372.483C374.692 374.363 374.561 375.674 374.561 375.674H366.276L369.616 373.034C369.616 373.034 371.683 374.223 375.015 372.492H375.024V372.483Z" fill="#0F7292"/>
<path d="M390.878 373.287C390.878 373.287 392.998 374.31 395.762 372.483C395.91 372.763 396.66 374.826 396.687 375.018C396.722 375.237 396.608 375.307 396.434 375.368C396.399 375.376 396.364 375.394 396.329 375.403C395.745 375.586 390.067 375.779 388.803 375.84C388.611 375.848 388.41 375.857 388.219 375.857C388.123 375.857 388.018 375.857 387.913 375.857C387.826 375.857 387.739 375.875 387.66 375.831C387.591 375.796 387.626 375.752 387.66 375.682C387.721 375.551 387.835 375.464 387.939 375.368C388.219 375.114 388.541 374.913 388.855 374.695C389.169 374.476 389.483 374.258 389.797 374.039C390.155 373.786 390.521 373.532 390.887 373.279L390.878 373.287Z" fill="#0F7292"/>
<path d="M377.169 318.879C378.538 319.036 379.576 318.765 380.029 317.699C381.093 315.182 381.085 312.743 378.861 311.45C379.733 311.222 380.457 310.847 381.006 310.497C381.808 309.999 382.253 309.518 382.253 309.518C382.018 310.584 381.643 311.59 381.686 312.07C381.774 312.918 383.012 312.831 383.239 313.582C383.474 314.343 382.585 315.287 382.907 316.327C383.239 317.367 384.041 318.223 387.904 318.503C390.73 318.704 392.762 316.79 393.835 314.893C395.056 316.72 395.71 319.954 396.093 323.144C396.564 327.034 396.617 330.879 396.713 332.147C393.808 338.702 378.555 334.061 378.555 334.061C379.244 328.179 377.151 318.914 377.151 318.914V318.87L377.169 318.879Z" fill="#F79663"/>
<path d="M385.227 348.316C385.227 348.316 383.099 351.148 379.611 359.198C377.526 364.014 375.59 369.188 375.023 372.483H375.015C371.692 374.214 369.608 373.043 369.616 373.025L371.299 371.697C371.299 371.697 371.212 364.04 376.855 346.28C378.459 346.857 381.608 348.273 385.227 348.308V348.316Z" fill="#EED7BA"/>
<path d="M395.771 372.484H395.762C392.998 374.31 390.887 373.288 390.887 373.288L392.056 372.458C392.056 372.458 386.282 367.231 386.187 348.308C389.03 348.238 391.977 347.784 394.367 346.621C394.245 346.674 390.521 362.843 395.78 372.484H395.771Z" fill="#EED7BA"/>
<path d="M376.689 311.66C377.483 311.712 378.207 311.625 378.861 311.441C381.076 312.743 381.468 314.963 380.029 317.699C379.489 318.722 378.538 319.036 377.169 318.879C375.311 318.678 372.861 317.673 370.532 316.816C366.494 315.331 357.59 309.413 357.59 309.413C351.145 307.045 352.611 303.094 353.125 302.657C354.049 301.879 356.509 305.568 356.509 305.568C356.509 305.568 355.776 303.461 356.596 303.321C357.407 303.173 357.154 304.807 359.09 306.826C361.026 308.845 373.366 311.415 376.707 311.651L376.689 311.66Z" fill="#EED7BA"/>
<path d="M378.582 302.299C378.434 302.299 378.285 302.264 378.128 302.176C377.405 301.783 378.015 300.603 378.015 300.603C378.015 300.603 379.349 295.298 385.175 295.874C389.509 296.303 387.87 301.407 390.033 302.543C392.204 303.68 393.338 305.183 392.117 308.111C392.117 308.111 393.024 308.898 393.756 309.955C394.393 310.847 394.899 311.939 394.663 312.927C394.524 313.512 394.254 314.212 393.852 314.902C392.78 316.799 390.756 318.713 387.922 318.512C384.05 318.232 383.248 317.376 382.925 316.336C382.594 315.295 383.492 314.352 383.256 313.591C383.03 312.839 381.8 312.936 381.704 312.079C381.556 310.707 382.611 309.378 382.044 307.98C381.896 307.604 381.617 307.298 381.381 306.983C380.719 306.101 381.067 305.279 380.876 304.283C380.771 303.723 380.518 303.138 380.152 302.692C379.681 302.133 379.245 302.299 378.591 302.299H378.582Z" fill="#845E40"/>
<path d="M378.573 334.07C378.573 334.07 390.041 338.257 396.73 332.156C396.922 334.472 395.527 347.041 395.527 347.041C393.233 348.011 390.364 348.815 385.602 348.491C377.396 347.932 376.724 346.184 375.407 345.651L378.573 334.07Z" fill="#0F7292"/>
<path d="M296.116 194.939C296.203 194.947 296.29 194.965 296.377 194.973C297.18 195.07 298.802 195.166 299.203 196.066C299.412 196.529 299.334 197.194 299.151 197.639C298.863 198.347 298.296 198.557 297.59 198.688C296.778 198.837 295.967 199.09 295.383 199.702C294.825 200.288 294.502 201.048 294.267 201.808C294.267 201.808 293.465 201.922 293.465 201.808C293.465 201.712 294.127 199.597 292.985 199.571C291.825 199.545 291.642 201.048 291.642 201.773C291.642 202.141 290.22 202.98 288.842 202.866C287.264 202.726 285.703 201.913 285.415 201.599C285.555 201.328 285.956 200.559 286.078 200.261C286.95 198.146 287.534 194.309 290.29 193.907C290.883 193.82 291.485 193.881 292.078 193.995C293.438 194.248 294.746 194.738 296.116 194.939Z" fill="#845E40"/>
</g>
<circle cx="161.289" cy="65.9185" r="10.4966" fill="#F37363"/>
<circle cx="474.508" cy="360.663" r="11.3363" fill="#4A3D98"/>
<circle cx="21.474" cy="303.982" r="18.474" fill="#CA951E"/>
<circle opacity="0.13" cx="409.849" cy="7.97743" r="7.97743" fill="#C2C1C0"/>
<defs>
<clipPath id="clip0_1772_1468">
<rect width="499" height="345" fill="white" transform="translate(0 30)"/>
</clipPath>
<clipPath id="clip1_1772_1468">
<rect width="384.422" height="307.31" fill="white" transform="translate(43.1631 69.6895)"/>
</clipPath>
</defs>
</svg>
