<svg width="499" height="346" viewBox="0 0 499 346" fill="none" xmlns="http://www.w3.org/2000/svg">
<g clipPath="url(#clip0_1289_2139)">
<path d="M42.7623 345H479.118C515.286 314.918 496.674 224.398 466.463 206.048C433.945 186.295 485.58 117.983 435.487 95.8094C402.78 81.3328 350.761 97.1122 357.759 58.3781C367.463 4.66699 254.055 -9.0932 170.504 5.38337C80.1753 21.0367 162.663 97.9948 63.3283 113.501C12.2486 121.475 22.1197 189.689 26.8828 203.786C31.0308 216.063 58.4751 235.537 20.334 262.355C-35.595 301.679 41.4441 344.278 42.7623 345Z" fill="#00A973"/>
</g>
<path d="M479 345H43V346H479V345Z" fill="#1B1B43"/>
<path d="M197.616 129.124C197.544 129.405 197.472 129.686 197.408 129.954C197.408 129.967 197.401 129.974 197.394 129.98C196.19 134.56 195.13 137.68 193.152 140.637L186.246 134.645L190.021 128.123L190.265 127.711V127.704L190.272 127.691L190.322 127.704L191.11 127.854L197.616 129.124Z" fill="#F9B384"/>
<path d="M198.905 124.296C198.891 124.498 198.87 124.701 198.841 124.904C198.755 125.525 198.619 126.167 198.454 126.795C198.347 127.213 198.225 127.632 198.096 128.031C197.945 128.508 197.781 128.966 197.623 129.385C197.58 129.49 197.544 129.594 197.508 129.692C197.48 129.784 197.444 129.869 197.408 129.954C197.408 129.967 197.401 129.974 197.394 129.98C197.344 130.105 197.301 130.222 197.25 130.34C197.25 130.353 197.243 130.366 197.236 130.379C197.2 130.477 197.157 130.569 197.121 130.661C196.871 131.269 196.692 131.642 196.692 131.642C194.019 131.243 192.078 129.941 190.695 128.26C190.552 128.09 190.416 127.92 190.287 127.743C190.28 127.73 190.272 127.723 190.265 127.71V127.704C188.488 125.296 187.686 122.287 187.321 120.03C187.313 120.004 187.313 119.985 187.306 119.959C187.177 119.141 187.106 118.421 187.063 117.878C187.02 117.263 187.557 116.747 188.231 116.753L189.277 116.766L190.423 115L198.49 118.284C198.49 118.284 198.848 119.821 198.941 121.908C198.977 122.647 198.97 123.458 198.905 124.296Z" fill="#F9B384"/>
<path d="M193.761 125.297L191.11 127.855L190.265 127.711V127.704C188.488 125.297 187.686 122.288 187.32 120.031L189.369 120.469C189.462 121.699 190.58 124.217 190.58 124.217L193.761 125.297Z" fill="#E28B6D"/>
<path d="M190.179 120.391C189.341 121.025 187.965 120.351 187.306 119.959C187.177 119.141 187.106 118.422 187.063 117.879C187.02 117.264 187.557 116.747 188.231 116.753L189.277 116.767C189.277 116.767 191.218 119.599 190.179 120.391Z" fill="#E28B6D"/>
<path d="M198.941 121.906L198.592 121.865L192.532 120.595L190.582 124.219L193.482 125.447C192.592 125.73 191.443 126.374 190.286 127.745C191.7 129.67 193.749 131.202 196.69 131.642C196.69 131.642 198.656 127.506 198.905 124.299C198.971 123.457 198.973 122.646 198.941 121.906ZM194.354 125.246C194.526 124.722 194.521 123.893 193.17 123.355L194.936 123.47L195.172 125.216C195.172 125.216 194.864 125.169 194.354 125.246Z" fill="#F9B384"/>
<path d="M198.404 134.913C191.87 150.037 179.454 167.372 167.683 179.18C163.363 183.51 159.136 187.095 155.317 189.561L149.02 174.732L148.232 172.874L150.209 171.258L150.567 170.964L173.386 152.327L188.223 129.935L198.404 134.913Z" fill="#CA951E"/>
<path d="M164.975 320.964L150.106 321.515L147.766 331.022L161.717 333.014L164.975 320.964Z" fill="#F9B384"/>
<path d="M174.557 344.891L161.717 333.014L147.766 331.022L144.379 344.789L174.557 344.891Z" fill="#D3DFFF"/>
<path d="M146.986 334.455L146.849 335.097L153.744 336.323L153.881 335.681L146.986 334.455Z" fill="#708CD5"/>
<path d="M165.763 337.033L161.373 338.748L161.655 339.349L166.045 337.634L165.763 337.033Z" fill="#708CD5"/>
<path d="M168.539 339.321L164.148 341.036L164.43 341.638L168.82 339.923L168.539 339.321Z" fill="#708CD5"/>
<path d="M132.015 227.297L158.027 271.502L144.383 324.559L169.738 324.43L183.796 282.564C186.117 275.652 185.558 268.202 182.23 261.642L166.983 231.598L132.015 227.297Z" fill="#102048"/>
<path d="M128.652 217.697C111.866 238.146 89.7709 249.653 65.147 256.888C65.6414 256.077 66.0569 255.259 66.3578 254.441C67.282 251.955 67.1817 249.411 65.147 246.781L64.3948 239.664L109.659 209.127L120.477 215.787L128.652 217.697Z" fill="#A11C20"/>
<path d="M40.503 208.666C49.3044 224.281 49.7755 245.943 65.1484 246.784L136.771 204.613L115.697 171.236L58.3566 191.903L40.5012 208.666H40.503Z" fill="#A11C20"/>
<path opacity="0.3" d="M66.3575 254.441C67.2817 251.955 67.1814 249.411 65.1467 246.781C78.6856 240.535 94.7929 230.62 111.937 219.221C97.8825 232.21 83.0057 244.297 66.3575 254.441Z" fill="#611113"/>
<path d="M130.536 210.732C114.441 236.45 87.3278 248.089 52.072 257.576L62.6824 263.986C66.1572 266.085 70.6886 266.028 74.1024 263.847C96.2761 249.679 116.587 235.351 132.044 220.606L130.536 210.732Z" fill="#E1272C"/>
<path d="M136.823 171.006C116.134 162.546 82.454 176.946 49.0878 190.798C41.4613 193.964 36.0612 200.389 34.6838 207.935L31.7017 224.281C51.3177 196.955 92.4178 178.562 136.823 171.008V171.006Z" fill="#E1272C"/>
<path d="M151.234 171.611C151.14 174.457 151.012 176.845 151.04 177.302L139.054 178.997L132.184 174.404C135.451 170.996 136.969 163.218 138.861 156.48L146.391 160.582L151.277 163.238C151.406 165.501 151.341 168.779 151.234 171.611Z" fill="#F9B384"/>
<path d="M151.234 171.611C147.644 169.642 142.995 166.64 140.874 159.843L146.391 160.582L151.277 163.238C151.406 165.501 151.341 168.779 151.234 171.611Z" fill="#E28B6D"/>
<path d="M158.362 155.146C158.441 156.664 158.233 158.051 157.789 159.274C155.432 165.822 146.519 167.615 139.943 159.235L139.391 146.295L144.041 142.639L159.157 147.97L158.212 153.681C158.29 154.185 158.348 154.669 158.362 155.146Z" fill="#F9B384"/>
<path d="M175.27 220.178C172.922 205.482 162.36 183.59 151.128 174.367L145.846 184.011L161.187 223.507L175.27 220.178Z" fill="#CA951E"/>
<path d="M167.726 220.178C164.166 205.158 159.344 189.408 151.128 174.367C146.978 178.73 134.781 170.234 134.781 170.234L128.494 175.172L145.092 226.762L167.726 220.18V220.178Z" fill="white"/>
<path d="M183.151 272.228L170.241 268.248L167.106 275.18L179.461 281.259L183.151 272.228Z" fill="#F9B384"/>
<path d="M187.007 296.108L179.461 281.258L167.106 275.18L161.522 287.535L187.007 296.108Z" fill="#D3DFFF"/>
<path d="M181.452 285.143L177.154 286.233L177.345 286.864L181.644 285.773L181.452 285.143Z" fill="#708CD5"/>
<path d="M183.006 288.087L178.707 289.178L178.899 289.808L183.198 288.717L183.006 288.087Z" fill="#708CD5"/>
<path d="M165.586 278.503L165.266 279.088L172.669 282.467L172.99 281.882L165.586 278.503Z" fill="#708CD5"/>
<path d="M145.427 211.605C163.22 212.769 181.511 215.669 197.788 222.112C206.559 225.584 209.471 236.571 205.47 244.499L189.354 276.437L165.966 269.778L180.834 241.52C135.901 242.745 130.982 227.673 130.982 227.673L145.429 211.605H145.427Z" fill="#1F3C88"/>
<path d="M153.977 221.249C148.117 230.832 139.57 236.098 129.01 239.775L127.806 230.015L125.599 212.104L122.203 184.498L124.467 174.712L134.777 170.237C146.097 181.142 149.765 205.51 153.977 221.249Z" fill="#CA951E"/>
<path d="M140.435 153.411C140.632 149.872 141.707 147.978 144.593 146.884C150.073 151.443 160.191 151.278 165.249 147.075C163.422 146.493 162.088 146.068 160.771 144.813C160.016 144.094 159.638 143.615 158.66 141.835C155.146 135.436 142.024 135.001 140.174 141.162C132.055 144.759 135.977 150.215 137.303 153.53L140.435 153.412V153.411Z" fill="#102048"/>
<path d="M143.161 194.9L144.086 188.737L148.236 186.785C148.236 186.785 150.294 187.102 149.427 189.531C148.56 191.959 143.161 194.9 143.161 194.9Z" fill="#E28B6D"/>
<path d="M140.546 196.348L143.161 194.899L146.532 189.776L151.053 187.71C151.32 187.588 151.644 187.699 151.759 187.951C152.33 188.394 152.645 189.038 152.651 189.925C153.668 190.7 153.861 191.571 153.405 192.515C154.807 193.058 155.334 193.727 154.92 194.53C155.55 195.472 155.921 196.376 155.67 197.48L148.714 202.071L141.881 204.38L140.546 196.35V196.348Z" fill="#F9B384"/>
<path opacity="0.3" d="M142.744 205.634C139.914 216.179 135.042 224.428 127.806 230.015L125.6 212.104L142.744 205.634Z" fill="#1F3C88"/>
<path d="M134.781 170.234L120.531 171.786C115.545 172.329 111.336 175.397 109.609 179.701C105.244 190.59 102.285 202.257 101.578 212.274C101.128 218.626 107.549 223.566 114.355 222.186C125.519 219.921 134.643 213.33 142.746 205.634L141.404 195.071L118.602 205.021L134.781 170.232V170.234Z" fill="#CA951E"/>
<path d="M142.542 155.749C141.676 157.473 140.263 158.639 138.431 157.873C136.601 157.106 134.34 154.66 135.513 152.297C136.371 150.57 138.975 150.468 140.806 151.234C142.636 152.001 143.407 154.025 142.542 155.749Z" fill="#F9B384"/>
<path d="M125.917 189.017C125.403 190.381 124.849 191.73 124.287 193.076C123.732 194.425 123.131 195.756 122.555 197.097L120.737 201.086C120.108 202.408 119.478 203.729 118.797 205.031L118.537 204.934C119.042 203.567 119.598 202.22 120.156 200.872L121.897 196.854C122.508 195.526 123.094 194.188 123.726 192.868C124.351 191.545 124.983 190.225 125.657 188.92L125.917 189.017Z" fill="#1F3C88"/>
<path d="M118.652 204.824C120.511 203.94 122.376 203.068 124.255 202.224C126.128 201.367 128.023 200.553 129.906 199.714L135.596 197.282C137.503 196.49 139.411 195.702 141.343 194.958L141.463 195.189C139.613 196.09 137.74 196.945 135.864 197.799L130.21 200.301C128.311 201.107 126.424 201.936 124.514 202.725C122.612 203.524 120.696 204.298 118.772 205.058L118.652 204.828V204.824Z" fill="#1F3C88"/>
<g opacity="0.3">
<path d="M142.814 177.711C143.98 178.565 145.436 179.01 146.864 178.923C148.291 178.835 149.665 178.231 150.718 177.263L150.94 177.42C150.116 178.666 148.542 179.487 146.908 179.574C145.275 179.661 143.613 179.025 142.615 177.893L142.814 177.713V177.711Z" fill="#1F3C88"/>
<path d="M153.24 209.402C154.141 208.581 154.943 207.683 155.62 206.715C156.292 205.743 156.872 204.721 157.289 203.639C157.726 202.564 158.033 201.447 158.197 200.309C158.375 199.172 158.4 198.014 158.308 196.855L158.586 196.817C158.869 197.977 158.928 199.181 158.819 200.371C158.699 201.562 158.405 202.739 157.954 203.863C157.483 204.978 156.888 206.056 156.118 207.024C155.357 207.995 154.454 208.874 153.421 209.593L153.236 209.4L153.24 209.402Z" fill="#1F3C88"/>
<path d="M154.967 209.72C155.986 209.067 156.964 208.405 157.875 207.662C158.791 206.926 159.632 206.125 160.487 205.296L160.716 205.443C160.141 206.48 159.305 207.386 158.346 208.153C157.383 208.912 156.29 209.55 155.097 209.949L154.968 209.721L154.967 209.72Z" fill="#1F3C88"/>
</g>
<path d="M139.994 154.701C139.885 154.394 139.737 154.111 139.545 153.861C139.348 153.615 139.128 153.385 138.854 153.22C138.323 152.863 137.659 152.704 136.957 152.691L136.919 152.503C137.281 152.376 137.684 152.356 138.074 152.41C138.463 152.472 138.841 152.614 139.169 152.827C139.484 153.051 139.762 153.326 139.937 153.65C140.118 153.969 140.22 154.325 140.206 154.677L139.998 154.703L139.994 154.701Z" fill="#E28B6D"/>
<path d="M148.103 150.508C146.887 150.202 146.572 152.134 146.758 152.839C146.933 153.499 147.521 153.691 148.024 153.162C148.488 152.677 149.169 150.776 148.101 150.508H148.103Z" fill="#102048"/>
<path d="M155.921 151.738C155.763 151.13 155.011 150.909 154.592 151.398C154.409 151.611 154.327 151.892 154.28 152.168C154.211 152.59 154.083 153.117 154.243 153.55C154.442 154.093 154.986 154.338 155.387 153.823C155.778 153.313 156.084 152.378 155.921 151.737V151.738Z" fill="#102048"/>
<path d="M151.692 152.641C151.68 153.151 151.649 153.664 151.665 154.157C151.683 154.397 151.692 154.652 151.769 154.814C151.848 154.992 151.991 155.169 152.174 155.352C152.353 155.535 152.557 155.735 152.733 155.985C152.822 156.108 152.889 156.253 152.942 156.409C152.989 156.569 153.016 156.786 152.899 156.984C152.783 157.181 152.602 157.275 152.459 157.338C152.31 157.401 152.167 157.444 152.034 157.483C151.758 157.55 151.515 157.62 151.294 157.735L151.117 157.557C151.327 157.333 151.613 157.207 151.857 157.084C152.102 156.981 152.364 156.842 152.367 156.752C152.392 156.696 152.328 156.487 152.181 156.311C152.052 156.129 151.859 155.957 151.669 155.756C151.483 155.553 151.269 155.319 151.16 155.01C151.049 154.685 151.074 154.413 151.094 154.144C151.142 153.609 151.257 153.1 151.431 152.598L151.69 152.641H151.692Z" fill="#102048"/>
<path d="M147.592 157.323L152.563 159.531C151.712 161.043 147.906 160.88 147.592 157.323Z" fill="white"/>
<path opacity="0.4" d="M157.789 159.274C157.653 159.3 157.509 159.313 157.366 159.313C156.048 159.313 154.98 158.338 154.98 157.135C154.98 155.931 156.048 154.95 157.366 154.95C157.724 154.95 158.061 155.022 158.362 155.146C158.441 156.664 158.233 158.05 157.789 159.274Z" fill="#FC8879"/>
<path opacity="0.4" d="M144.413 157.949C145.732 157.949 146.801 156.973 146.801 155.769C146.801 154.565 145.732 153.589 144.413 153.589C143.095 153.589 142.026 154.565 142.026 155.769C142.026 156.973 143.095 157.949 144.413 157.949Z" fill="#FC8879"/>
<path d="M207.103 64.4762C205.4 63.1189 203.532 60.8489 201.625 58.3484C202.853 58.1799 203.897 57.9117 204.46 57.377C205.796 59.9985 207.211 61.6355 209.324 63.7321C208.461 63.4721 207.911 64.226 207.103 64.4746V64.4762Z" fill="#C6EAE9"/>
<path d="M107.864 121.776C106.329 120.553 104.649 118.509 102.93 116.258C104.037 116.106 104.977 115.864 105.484 115.383C106.688 117.743 107.961 119.218 109.865 121.107C109.088 120.873 108.593 121.552 107.864 121.776Z" fill="#FBD682"/>
<path d="M135.846 102.476C136.516 101.071 137.768 99.4261 139.165 97.7236C139.438 98.5855 139.755 99.3018 140.181 99.6371C138.628 100.945 137.734 102.18 136.629 103.979C136.686 103.323 136.117 103.027 135.846 102.478V102.476Z" fill="#FBD682"/>
<path d="M206.501 150.907C207.247 149.347 208.635 147.522 210.188 145.63C210.49 146.587 210.841 147.383 211.314 147.754C209.589 149.207 208.597 150.577 207.372 152.575C207.436 151.848 206.802 151.519 206.501 150.909V150.907Z" fill="#EE6F57"/>
<path d="M240.086 65.024C240.831 63.4639 242.221 61.6387 243.772 59.7466C244.075 60.7033 244.426 61.4997 244.899 61.871C243.174 63.3232 242.182 64.6937 240.957 66.6921C241.021 65.9644 240.387 65.6357 240.086 65.0257V65.024Z" fill="#708CD5"/>
<path d="M78.6049 114.755C77.9351 113.35 76.6831 111.705 75.2861 110.002C75.0138 110.864 74.6968 111.581 74.2705 111.916C75.8234 113.224 76.7171 114.459 77.8222 116.258C77.7649 115.602 78.3345 115.306 78.6049 114.757V114.755Z" fill="#708CD5"/>
<path d="M163.587 90.5807C162.842 89.0205 161.454 87.1954 159.901 85.3032C159.598 86.2599 159.247 87.0564 158.774 87.4276C160.499 88.8798 161.491 90.2503 162.716 92.2488C162.652 91.521 163.286 91.1923 163.587 90.5823V90.5807Z" fill="#D3DFFF"/>
<path d="M229.983 89.8953C227.85 90.363 224.869 90.5691 221.676 90.7113C222.272 89.9263 222.675 89.21 222.571 88.672C225.523 88.9124 227.714 88.7243 230.699 88.3057C229.97 88.7096 230.26 89.3262 229.983 89.8953Z" fill="#F5C7BE"/>
<path d="M102.126 75.4414C104.046 76.0858 106.731 76.3703 109.607 76.5666C109.07 75.4856 108.708 74.4978 108.799 73.7553C106.141 74.0873 104.169 73.8273 101.479 73.25C102.137 73.8077 101.873 74.6564 102.126 75.4431V75.4414Z" fill="#C6EAE9"/>
<path d="M167.653 67.2219C165.493 68.3912 162.356 69.2923 158.975 70.128C159.405 68.7297 159.647 67.4787 159.394 66.6168C162.618 66.4549 164.912 65.7304 167.998 64.481C167.325 65.2807 167.8 66.2357 167.653 67.2235V67.2219Z" fill="#EE6F57"/>
<path d="M211.993 121.143C213.607 122.131 215.455 123.892 217.363 125.848C216.315 126.129 215.437 126.478 215.004 127.003C213.58 124.878 212.188 123.616 210.143 122.033C210.917 122.162 211.318 121.449 211.993 121.143Z" fill="#C6EAE9"/>
<path d="M184.249 122.688C185.863 123.676 187.711 125.438 189.619 127.394C188.571 127.675 187.693 128.023 187.26 128.548C185.836 126.424 184.444 125.161 182.399 123.578C183.173 123.707 183.574 122.994 184.249 122.688Z" fill="#FBD682"/>
<path d="M113.591 92.4072C115.407 93.5193 117.488 95.5014 119.635 97.7027C118.457 98.0199 117.468 98.4124 116.981 99.0028C115.378 96.6118 113.811 95.1907 111.509 93.4081C112.382 93.5536 112.831 92.7507 113.592 92.4072H113.591Z" fill="#F5C7BE"/>
<path d="M231.175 111.595C232.519 110.462 233.905 108.475 235.302 106.274C234.208 106.001 233.262 105.649 232.71 105.09C231.827 107.458 230.769 108.886 229.148 110.685C229.875 110.518 230.439 111.283 231.175 111.594V111.595Z" fill="#F5C7BE"/>
<path d="M277.024 108.114C277.694 106.709 278.946 105.064 280.343 103.361C280.615 104.223 280.932 104.939 281.359 105.275C279.806 106.583 278.912 107.818 277.807 109.617C277.864 108.961 277.295 108.665 277.024 108.115V108.114Z" fill="#EE6F57"/>
<path d="M260.463 82.4543C259.904 84.4789 258.636 86.9664 257.189 89.5699C256.629 88.502 256.045 87.6369 255.405 87.3033C257.15 85.1838 258.042 83.3276 259.082 80.6733C259.159 81.5532 259.98 81.7985 260.465 82.4559L260.463 82.4543Z" fill="#D3DFFF"/>
<path d="M243.486 126.273C243.894 127.757 244.824 129.578 245.884 131.484C246.294 130.702 246.722 130.067 247.192 129.824C245.915 128.272 245.261 126.911 244.5 124.968C244.444 125.613 243.842 125.793 243.486 126.273Z" fill="#D3DFFF"/>
<path d="M293.953 79.0933C292.137 80.2053 290.056 82.1874 287.908 84.3887C289.087 84.706 290.075 85.0985 290.563 85.6888C292.166 83.2979 293.733 81.8767 296.034 80.0941C295.162 80.2397 294.713 79.4367 293.951 79.0933H293.953Z" fill="#FBD682"/>
<path d="M408.974 241.337H384.541C384.541 241.337 386.624 232.396 396.758 232.396C407.766 232.396 408.975 241.337 408.975 241.337H408.974Z" fill="#D3DFFF"/>
<path d="M393.245 232.957L392.58 233.2L396.219 241.478L396.884 241.234L393.245 232.957Z" fill="#102048"/>
<path d="M338.756 215.89H328.878V239.971H338.756V215.89Z" fill="#F5C7BE"/>
<path opacity="0.6" d="M338.756 215.89H328.878V227.203H338.756V215.89Z" fill="#EE6F57"/>
<path d="M320.99 235.515H346.642C349.842 235.515 352.441 237.888 352.441 240.81V241.302H315.19V240.81C315.19 237.888 317.789 235.515 320.99 235.515Z" fill="#EE6F57"/>
<path d="M389.834 158.638H279.775V221.804H389.834V158.638Z" fill="#F5C7BE"/>
<path d="M386.415 161.722H283.194V216.832H386.415V161.722Z" fill="white"/>
<path d="M335.616 200.458H331.713V209.243H335.616V200.458Z" fill="#4A3D98" fill-opacity="0.5"/>
<path d="M342.555 198.162H338.652V209.244H342.555V198.162Z" fill="#4A3D98" fill-opacity="0.5"/>
<path d="M349.495 192.81H345.592V209.244H349.495V192.81Z" fill="#4A3D98" fill-opacity="0.5"/>
<path d="M356.434 190.134H352.531V209.242H356.434V190.134Z" fill="#4A3D98" fill-opacity="0.5"/>
<path d="M363.374 194.525H359.471V209.244H363.374V194.525Z" fill="#4A3D98" fill-opacity="0.5"/>
<path d="M370.313 189.423H366.41V209.244H370.313V189.423Z" fill="#4A3D98" fill-opacity="0.5"/>
<path d="M377.251 184.68H373.349V209.243H377.251V184.68Z" fill="#4A3D98" fill-opacity="0.5"/>
<path d="M333.203 194.599L333.094 193.951L340.079 192.97L347.211 185.29L354.413 184.943L361.404 188.871L367.413 184.194L376.686 174.56L377.223 174.992L367.913 184.659L361.474 189.679L354.229 185.607L347.557 185.928L340.454 193.58L333.203 194.599Z" fill="#4A3D98" fill-opacity="0.5"/>
<path d="M320.805 170.337H292.356V172.102H320.805V170.337Z" fill="#4A3D98" fill-opacity="0.5"/>
<path d="M317.211 174.493H292.356V176.258H317.211V174.493Z" fill="#4A3D98" fill-opacity="0.5"/>
<path opacity="0.6" d="M319.206 178.65H292.356V180.415H319.206V178.65Z" fill="#4A3D98" fill-opacity="0.5"/>
<path opacity="0.6" d="M316.426 182.806H292.356V184.57H316.426V182.806Z" fill="#4A3D98" fill-opacity="0.5"/>
<path opacity="0.6" d="M309.253 186.961H292.356V188.726H309.253V186.961Z" fill="#4A3D98" fill-opacity="0.5"/>
<path d="M320.931 192.618H292.356V209.242H320.931V192.618Z" fill="#4A3D98" fill-opacity="0.5"/>
<path d="M265.71 222.35H234.96V241.162H265.71V222.35Z" fill="white"/>
<path d="M266.023 241.448H234.649V222.065H266.023V241.448ZM235.272 240.879H265.398V222.636H235.272V240.879Z" fill="#102048"/>
<path opacity="0.6" d="M265.38 222.35H235.236V230.247H265.38V222.35Z" fill="#D3DFFF"/>
<path d="M269.414 219.042H231.26V226.553H269.414V219.042Z" fill="white"/>
<path d="M269.725 226.838H230.948V218.755H269.725V226.838ZM231.571 226.268H269.102V219.326H231.571V226.268Z" fill="#102048"/>
<path d="M422.439 241.356H220.451V248.425H422.439V241.356Z" fill="#D3DFFF"/>
<path d="M422.793 344.773H422.077V241.453H220.783V344.773H220.067V240.799H422.793V344.773Z" fill="#102048"/>
<path d="M290.959 294.01L290.244 294.059L294.379 344.497L295.093 344.448L290.959 294.01Z" fill="#102048"/>
<path d="M274.477 290.779L251.635 344.55L252.303 344.786L275.145 291.015L274.477 290.779Z" fill="#102048"/>
<path d="M308.957 290.76L308.289 290.996L331.148 344.864L331.816 344.628L308.957 290.76Z" fill="#102048"/>
<path d="M339.784 286.772L290.582 279.013L282.243 291.92L312.819 294.828L339.866 288.281C340.794 288.057 340.731 286.922 339.782 286.772H339.784Z" fill="#89A6A5"/>
<path d="M339.735 288.34C331.045 293.83 309.202 301.144 289.169 301.61C271.853 302.012 255.384 294.255 251.612 275.654C248.839 261.986 246.532 246.845 246.822 239.183C246.898 237.201 248.735 235.657 250.908 235.706L271.319 236.179C277.52 236.323 283.207 239.327 286.466 244.145C297.514 260.473 296.933 299.61 339.735 288.338V288.34Z" fill="#006B65"/>
<path d="M399.235 276.223H365.032V344.591H399.235V276.223Z" fill="white"/>
<path d="M399.561 344.89H364.705V275.924H399.561V344.89ZM365.359 344.292H398.906V276.522H365.359V344.292Z" fill="#102048"/>
<path d="M382.134 294.283C384.409 294.283 386.253 292.599 386.253 290.522C386.253 288.444 384.409 286.76 382.134 286.76C379.859 286.76 378.014 288.444 378.014 290.522C378.014 292.599 379.859 294.283 382.134 294.283Z" fill="#FBD682"/>
<path d="M388.402 307.366H375.865V335.168H388.402V307.366Z" fill="#FBD682"/>
<defs>
<clipPath id="clip0_1289_2139">
<rect width="499" height="345" fill="white"/>
</clipPath>
</defs>
</svg>
