<svg width="499" height="347" viewBox="0 0 499 347" fill="none" xmlns="http://www.w3.org/2000/svg">
<g clipPath="url(#clip0_1943_1473)">
<path d="M42.7625 345H479.118C515.286 314.918 496.674 224.398 466.463 206.048C433.945 186.295 485.581 117.983 435.488 95.8094C402.78 81.3328 350.762 97.1122 357.759 58.3781C367.463 4.66699 254.055 -9.0932 170.504 5.38337C80.1756 21.0367 162.664 97.9948 63.3285 113.501C12.2489 121.475 22.1199 189.689 26.883 203.786C31.0311 216.063 58.4754 235.537 20.3342 262.355C-35.5947 301.679 41.4443 344.278 42.7625 345Z" fill="#00A973"/>
</g>
<path d="M479 345H43V346H479V345Z" fill="#1B1B43"/>
<path d="M373.114 273.354L375.214 268.271C376.844 264.533 381.013 262.749 384.529 264.283C393.384 268.154 397.234 278.93 393.128 288.349L390.126 295.236C388.811 298.253 389.268 301.573 391.041 303.912C392.651 306.038 392.915 308.994 391.799 311.556L390.217 315.187C388.503 319.119 385.169 322.029 381.214 323.23C378.901 323.932 376.859 325.67 375.779 328.148L373.537 333.289C371.059 338.974 364.719 341.688 359.376 339.352L356.327 338.019C350.984 335.683 348.661 329.182 351.139 323.498C355.146 316.702 354.826 311.63 353.406 308.189C351.319 303.131 351.342 297.311 353.601 292.131L353.917 291.404C356.301 285.936 360.904 281.854 366.385 280.106C368.806 279.334 371.328 277.45 373.113 273.353L373.114 273.354Z" fill="#50BFA5"/>
<path d="M335.299 345.13C339.596 339.55 363.161 309.659 378.526 304.677C395.487 299.179 379.501 321.017 379.501 321.017C379.501 321.017 409.59 288.07 420.631 291.04C430.752 293.762 420.631 314.184 420.631 314.184C420.631 314.184 432.03 302.876 445.854 302.876C459.679 302.876 436.455 342.983 435.222 345.13H335.297H335.299Z" fill="#96D9C9"/>
<path d="M125.738 308.344C110.027 314.318 92.7301 311.163 80.9878 307.464C68.2408 303.45 59.0999 297.944 59.0092 297.889L58.6611 298.555C58.7519 298.611 67.9603 304.158 80.7915 308.202C92.6493 311.939 110.123 315.124 126.03 309.078L125.738 308.344Z" fill="#96D9C9"/>
<path d="M57.0735 294.694C59.9258 295.803 62.1182 297.968 63.2713 300.491C60.97 301.669 58.0501 301.846 55.1978 300.737C52.3455 299.627 50.1531 297.463 49 294.94C51.3013 293.763 54.2212 293.586 57.0735 294.694Z" fill="#96D9C9"/>
<path d="M62.6414 303.542C65.4228 302.564 68.3592 302.876 70.7446 304.163C69.7598 306.636 67.7109 308.702 64.9279 309.68C62.1465 310.658 59.2101 310.346 56.8247 309.059C57.8096 306.588 59.8585 304.52 62.6414 303.542Z" fill="#96D9C9"/>
<path d="M69.8684 309.765C71.8447 307.55 74.5205 306.445 77.1451 306.493C77.3761 309.227 76.5083 312.093 74.5304 314.308C72.5541 316.525 69.8783 317.63 67.2537 317.581C67.0227 314.848 67.8905 311.981 69.8684 309.765Z" fill="#96D9C9"/>
<path d="M79.9822 312.98C81.9585 310.763 84.6342 309.658 87.2589 309.707C87.4898 312.441 86.6221 315.307 84.6441 317.523C82.6678 319.74 79.9921 320.845 77.3675 320.795C77.1365 318.063 78.0042 315.195 79.9822 312.98Z" fill="#96D9C9"/>
<path d="M70.468 302.597C68.7276 300.329 67.9523 297.595 68.137 295.116C70.4284 295.383 72.7709 296.716 74.5097 298.985C76.2501 301.253 77.0254 303.987 76.8407 306.466C74.5493 306.199 72.2068 304.866 70.468 302.597Z" fill="#96D9C9"/>
<path d="M80.9742 305.89C79.2025 303.648 78.3843 300.922 78.5278 298.436C80.8175 298.664 83.1766 299.957 84.95 302.199C86.7217 304.441 87.5399 307.167 87.3964 309.653C85.105 309.425 82.7476 308.131 80.9742 305.89Z" fill="#96D9C9"/>
<path d="M93.274 313.86C93.7392 312.679 94.6614 311.858 95.7435 311.519C96.2632 312.611 96.3523 313.908 95.8887 315.089C95.4235 316.27 94.5013 317.091 93.4192 317.43C92.8995 316.338 92.8104 315.041 93.274 313.86Z" fill="#96D9C9"/>
<path d="M174.725 344.46C174.725 344.46 155.673 315.209 146.506 309.687C136.738 303.802 144.175 321.42 144.175 321.42C144.175 321.42 124.212 297.634 118.665 302.468C113.115 307.301 118.151 312.898 118.151 312.898C118.151 312.898 100.229 307.58 97.0093 314.167C92.0603 324.288 121.565 332.682 121.565 332.682C121.565 332.682 108.898 332.548 111.229 339.382C114.743 349.689 174.727 344.462 174.727 344.462L174.725 344.46Z" fill="#50BFA5"/>
<path d="M97.0083 314.166C100.23 307.577 118.15 312.897 118.15 312.897C118.15 312.897 113.114 307.3 118.664 302.466C124.213 297.633 140.182 312.101 140.182 312.101C140.182 312.101 138.507 300.17 150.533 310.68C159.122 318.186 174.728 344.461 174.728 344.461L97.0099 314.166H97.0083Z" fill="#96D9C9"/>
<path d="M354.466 279.658C356.269 279.95 356.162 280.244 356.394 280.275C356.668 280.312 359.921 278.676 359.921 278.676C359.921 278.676 369.544 273.92 370.054 273.644L376.999 264.894L382.35 267.365C382.35 267.365 374.539 276.668 374.046 277.077C373.551 277.487 359.755 282.332 358.555 282.798C358.555 282.798 357.346 283.905 356.563 284.574C355.779 285.243 354.733 285.507 354.484 285.659C354.448 285.682 353.583 286.138 352.364 286.404C351.313 286.634 352.189 285.919 352.189 285.919C352.189 285.919 354.049 285.132 353.958 284.99C353.887 284.881 352.899 285.372 351.739 285.638C351.44 285.706 351.147 285.773 350.875 285.831C350.162 285.985 349.85 285.577 350.564 285.293C350.817 285.192 351.241 285.036 351.561 284.97C351.906 284.898 352.196 284.718 352.475 284.61C353.029 284.399 353.437 284.252 353.415 284.234C353.387 284.209 353.465 284.087 353.146 284.148C352.762 284.222 351.988 284.569 351.414 284.633C351.089 284.67 350.414 284.79 350.414 284.79C350.414 284.79 349.22 284.904 349.212 284.737C349.194 284.371 349.929 284.166 350.38 284.176C350.663 284.03 351.378 283.925 351.378 283.925C351.378 283.925 352.762 283.378 352.683 283.173C352.651 283.09 351.812 283.218 350.922 283.279C349.982 283.343 349.301 283.343 349.251 283.161C349.172 282.872 349.919 282.762 349.919 282.762C349.919 282.762 350.579 282.666 350.795 282.616C351.05 282.559 351.792 282.326 351.792 282.326C351.792 282.326 354.339 281.389 354.247 281.201C354.154 281.012 353.734 280.619 353.554 280.619C353.374 280.619 353.054 280.799 352.874 280.801C352.694 280.801 352.308 280.768 352.282 280.541C352.255 280.315 353.252 279.846 353.252 279.846C353.252 279.846 353.946 279.57 354.468 279.654L354.466 279.658Z" fill="#F8A492"/>
<path d="M372.165 270.315C372.165 270.315 373.897 271.891 374.618 272.409C375.217 272.84 378.137 274.248 378.137 274.248C378.137 274.248 381.042 269.794 382.312 267.561C383.853 264.852 384.92 260.821 384.556 260.712C383.533 260.404 382.127 260.218 380.829 260.814C376.335 262.879 372.167 270.313 372.167 270.313L372.165 270.315Z" fill="#355389"/>
<path d="M356.15 281.986C355.38 282.108 354.591 281.961 354.249 281.254C354.172 282.093 355.441 282.508 356.15 281.986Z" fill="#FE875E"/>
<path d="M140.798 250.744C140.905 248.15 140.525 245.588 139.371 243.174C138.377 241.096 135.921 239.918 133.681 239.915C126.567 239.905 125.663 249.358 121.135 253.004C119.751 254.117 118.205 255.026 116.895 256.227C112.06 260.662 114.238 268.876 118.677 272.764C121.757 275.464 126.599 276.997 130.396 274.887C132.378 273.785 133.882 271.955 134.954 269.949C136.475 267.103 137.457 263.817 138.537 260.784C139.689 257.555 140.654 254.193 140.796 250.745L140.798 250.744Z" fill="#13375B"/>
<path d="M141.959 263.303C139.737 256.554 136.804 256.659 136.804 256.659L139.174 271.031C140.547 270.656 142.333 269.819 143.704 269.432C143.251 267.298 142.508 264.965 141.961 263.303H141.959Z" fill="#F7CC7F"/>
<path d="M153.188 286.322L145.065 280.118C145.065 280.118 144.248 274.329 143.153 269.191C141.782 269.58 140.545 270.655 139.174 271.032L141.239 282.536L151.886 288.035L154.894 291.906L155.578 287.933L153.189 286.322H153.188Z" fill="#F48C7F"/>
<path d="M227.234 276.632C229.756 276.632 232.123 277.297 234.169 278.462C234.428 278.609 234.708 278.744 235.007 278.867C241.249 281.434 248.079 276.679 248.079 269.921V236.689H214.892C208.144 236.689 203.396 229.85 205.959 223.598C206.081 223.299 206.217 223.019 206.364 222.759C207.527 220.709 208.191 218.34 208.191 215.814C208.191 207.811 201.527 201.365 193.452 201.74C186.144 202.078 180.259 208.09 180.055 215.413C179.982 218.018 180.616 220.468 181.779 222.586C181.924 222.85 182.056 223.136 182.178 223.44C184.72 229.793 179.896 236.69 173.062 236.69H140.161V312.415C140.161 330.277 154.622 344.759 172.46 344.759H248.079V311.637C248.079 304.845 241.226 300.061 234.946 302.62C234.646 302.742 234.363 302.876 234.104 303.022C231.867 304.279 229.251 304.941 226.47 304.794C219.305 304.414 213.517 298.584 213.178 291.407C212.797 283.314 219.236 276.633 227.234 276.633V276.632Z" fill="#E50064"/>
<path d="M299.162 258.196C299.279 255.673 300.054 253.336 301.311 251.343C301.47 251.092 301.618 250.816 301.753 250.524C304.606 244.4 300.181 237.346 293.441 237.031L260.289 235.479L258.74 268.676C258.425 275.426 251.381 279.856 245.265 277C244.973 276.863 244.698 276.716 244.447 276.557C242.458 275.298 240.125 274.524 237.604 274.405C229.62 274.031 222.879 280.396 222.876 288.491C222.873 295.816 228.594 301.984 235.889 302.529C238.484 302.724 240.956 302.204 243.124 301.14C243.395 301.008 243.685 300.887 243.995 300.78C250.45 298.533 257.107 303.681 256.787 310.517L255.251 343.427L330.788 346.964C348.606 347.798 363.726 334.009 364.56 316.166L368.092 240.525L335.05 238.978C328.277 238.661 323.184 245.292 325.443 251.695C325.55 252.001 325.67 252.29 325.804 252.556C326.954 254.852 327.493 257.5 327.216 260.275C326.503 267.425 320.416 272.943 313.242 272.946C305.152 272.949 298.787 266.196 299.162 258.197V258.196Z" fill="#006B65"/>
<path d="M206.788 205.925C206.915 208.448 206.37 210.848 205.311 212.953C205.178 213.219 205.057 213.506 204.95 213.812C202.703 220.184 207.787 226.777 214.528 226.436L247.673 224.768L246.007 191.576C245.669 184.828 252.251 179.735 258.614 181.985C258.919 182.093 259.206 182.213 259.472 182.347C261.573 183.407 263.97 183.953 266.489 183.825C274.472 183.424 280.566 176.435 279.787 168.376C279.083 161.084 272.791 155.501 265.478 155.664C262.877 155.722 260.465 156.48 258.411 157.749C258.155 157.908 257.876 158.055 257.579 158.192C251.372 161.055 244.248 156.576 243.905 149.74L242.252 116.835L166.729 120.638C148.914 121.535 135.197 136.725 136.093 154.564L139.89 230.193L172.925 228.529C179.697 228.189 184.125 221.095 181.257 214.942C181.121 214.648 180.974 214.372 180.814 214.121C179.446 211.947 178.654 209.363 178.663 206.575C178.681 199.39 184.205 193.308 191.347 192.609C199.399 191.821 206.385 197.925 206.788 205.924V205.925Z" fill="#4A2870"/>
<path d="M274.627 187.609C272.105 187.609 269.738 186.943 267.692 185.778C267.433 185.631 267.153 185.496 266.854 185.374C260.612 182.806 253.782 187.561 253.782 194.317V227.55H286.969C293.717 227.55 298.465 234.389 295.902 240.64C295.78 240.939 295.644 241.22 295.497 241.479C294.334 243.529 293.67 245.898 293.67 248.424C293.67 256.428 300.334 262.874 308.409 262.499C315.717 262.16 321.602 256.149 321.806 248.826C321.879 246.22 321.244 243.771 320.082 241.653C319.937 241.388 319.805 241.103 319.683 240.799C317.139 234.445 321.965 227.548 328.799 227.548H361.7V151.824C361.7 133.961 347.239 119.48 329.401 119.48H253.782V152.602C253.782 159.393 260.635 164.177 266.915 161.618C267.215 161.496 267.498 161.362 267.757 161.217C269.994 159.96 272.61 159.296 275.391 159.444C282.556 159.824 288.344 165.654 288.683 172.832C289.064 180.925 282.625 187.605 274.627 187.605V187.609Z" fill="#CA951E"/>
<path d="M118.56 334.247C118.56 334.247 118.059 337.736 117.197 338.863C116.909 339.241 116.379 339.718 116.033 340.402C115.493 341.465 115.792 343.049 116.19 343.919C116.394 344.367 116.175 344.365 116.642 344.509C118.021 344.935 119.487 344.217 120.075 342.892C120.403 342.152 120.69 341.164 120.748 339.918C120.894 336.75 121.876 335.139 121.876 335.139L118.56 334.247Z" fill="#F7A491"/>
<path d="M133.645 335.843C133.645 335.843 133.955 339.778 133.703 341.055C133.567 341.739 132.818 343.149 133.163 343.794C133.506 344.438 133.899 344.6 133.899 344.6L142.802 344.744C143.287 344.752 142.967 344.438 142.576 344.149C141.936 343.676 141.42 343.364 139.374 342.371C139.24 342.307 138.755 341.996 138.581 341.889C138.137 341.616 137.691 341.189 137.307 340.761C136.669 340.045 136.613 336.581 136.613 336.581L133.645 335.843Z" fill="#F7A491"/>
<path d="M140.603 283.548C140.603 283.548 141.725 289.936 140.988 294.124C140.25 298.312 136.718 337.128 136.718 337.128L132.792 337.351C132.792 337.351 131.969 321.137 132.116 318.882C132.263 316.627 133.429 312.854 133.429 312.854L133.038 299.762L137.993 282.563L140.603 283.55V283.548Z" fill="#355389"/>
<path d="M129.064 282.205C129.064 282.205 125.972 286.875 125.235 290.741C124.499 294.606 125.776 306.486 124.359 311.552C123.592 314.295 120.687 318.529 120.245 322.072C119.802 325.615 118.07 334.898 118.07 334.898L121.995 335.679L131.116 312.499L138.271 291.547L140.103 280.756L129.06 282.205H129.064Z" fill="#466EB6"/>
<path d="M131.566 255.63C131.566 255.63 127.471 255.369 125.853 257.14C124.233 258.911 129.446 272.928 129.74 275.181C130.033 277.436 128.238 283.431 128.238 283.431C128.238 283.431 137.854 285.374 140.604 283.548C140.604 283.548 140.9 267.334 140.604 265.724C140.311 264.113 137.856 257.563 137.267 256.919C136.678 256.274 131.567 255.63 131.567 255.63H131.566Z" fill="#F7CC7F"/>
<path d="M132.929 250.139C132.929 250.139 132.908 250.26 132.87 250.466C132.687 251.454 131.984 254.732 131.509 255.632C130.935 256.721 133.474 260.193 135.917 259.768C136.644 259.643 135.301 256.579 135.367 256.253C135.491 255.632 135.658 254.785 135.829 253.916C135.927 253.425 136.024 252.928 136.116 252.462C136.377 251.134 136.592 250.048 136.592 250.048L132.931 250.139H132.929Z" fill="#F7A491"/>
<path d="M132.87 250.466C132.908 250.26 132.929 250.139 132.929 250.139L136.59 250.048C136.59 250.048 136.377 251.134 136.115 252.462C136.024 252.926 135.927 253.42 135.829 253.909C135.263 253.825 134.673 253.551 134.081 253.028C133.436 252.462 133.012 251.78 132.756 251.053C132.8 250.82 132.838 250.62 132.866 250.468L132.87 250.466Z" fill="#F47458"/>
<path d="M135.393 241.787C135.393 241.787 133.668 241.587 132.586 242.991C131.503 244.395 130.339 248.736 133.024 251.097C135.712 253.458 138.366 250.785 138.76 247.952C139.155 245.119 139.306 241.684 135.393 241.785V241.787Z" fill="#F7A491"/>
<path d="M139.555 247.912C139.235 248.538 138.695 248.883 138.352 248.685C138.009 248.487 137.991 247.818 138.311 247.193C138.631 246.567 139.171 246.22 139.514 246.419C139.857 246.617 139.875 247.286 139.555 247.91V247.912Z" fill="#F7A491"/>
<path d="M135.586 241.322C135.586 241.322 133.282 245.452 131.632 245.642C129.982 245.832 129.766 248.028 129.766 248.028C129.766 248.028 130.355 242.973 131.988 241.998C133.621 241.023 135.586 241.324 135.586 241.324V241.322Z" fill="#13375B"/>
<path d="M120.341 342.195C118.202 342.587 116.78 341.331 116.039 340.391C115.495 341.457 115.231 343.046 115.63 343.92C115.981 344.691 117.011 344.668 117.822 344.698C118.678 344.729 119.342 344.252 119.767 343.503C119.965 343.153 120.171 342.719 120.341 342.195Z" fill="#F47458"/>
<path d="M138.58 341.889C136.226 342.495 134.484 342.082 133.511 341.689C133.26 342.403 132.927 343.3 133.103 343.817C133.319 344.449 133.628 344.593 133.898 344.6C136.05 344.656 141.777 344.734 143.417 344.755C143.646 344.758 143.772 344.489 143.625 344.312C143.217 343.825 138.755 341.996 138.578 341.889H138.58Z" fill="#F47458"/>
<path d="M132.064 246.68C132.198 247.413 131.929 248.086 131.462 248.181C130.995 248.277 130.508 247.762 130.373 247.028C130.24 246.295 130.508 245.622 130.975 245.527C131.442 245.431 131.929 245.946 132.064 246.68Z" fill="#F7A491"/>
<path d="M134.756 249.221L136.838 249.315C136.838 249.315 136.754 250.105 135.838 250.09C134.721 250.071 134.758 249.221 134.758 249.221H134.756Z" fill="white"/>
<path d="M312.255 83.0112C312.514 83.0212 313.225 83.2607 314.263 85.2249C315.589 87.7359 317.528 95.3184 317.528 95.3184L311.741 97.4758L310.997 95.8933L309.772 83.7084C309.772 83.7084 312.183 83.0079 312.254 83.0112H312.255Z" fill="#DD513A"/>
<path d="M304.606 81.918C306.261 81.9196 310.355 82.4036 312.256 83.0116C312.256 83.0116 313.652 95.0263 310.999 104.157C310.405 106.2 311.49 112.63 311.49 112.63L294.344 112.403C294.344 112.403 296.375 96.8616 295.609 94.3523C294.844 91.8413 294.825 83.0942 294.825 83.0942C294.825 83.0942 294.943 83.076 298.677 82.4301C300.419 82.1278 302.84 81.918 304.605 81.9213L304.606 81.918Z" fill="#F47458"/>
<path d="M302.608 134.931C302.608 134.931 302.987 139.315 303.685 140.529C304.383 141.744 303.649 143.807 303.611 144.091C303.575 144.373 302.143 144.778 299.866 144.535C297.59 144.293 297.628 143.767 297.811 142.916C297.994 142.067 299.206 140.974 299.279 140.164C299.353 139.355 298.581 136.441 298.581 136.441L302.606 134.929L302.608 134.931Z" fill="#F7A491"/>
<path d="M309.554 109.01C309.554 109.01 321.391 108.353 324.033 109.955C326.676 111.557 322.156 119.426 322.156 119.426C322.156 119.426 313.919 119.046 297.787 119.977C293.966 120.199 293.638 110.003 294.352 109.159C295.067 108.315 309.554 109.01 309.554 109.01Z" fill="#E0973F"/>
<path d="M299.584 144.876C297.24 144.626 297.531 143.473 297.72 142.598C297.839 142.049 298.51 141.403 298.911 140.792C299.121 140.959 299.462 141.255 300.479 141.555C301.536 141.867 302.984 141.25 303.907 140.861C304.236 142.087 304.251 143.652 304.22 143.889C304.182 144.182 301.927 145.125 299.583 144.876H299.584Z" fill="#DD513A"/>
<path d="M300.878 117.49C301.351 121.073 303.692 138.912 303.692 138.912L298.26 139.586C298.26 139.586 291.579 116.302 291.922 112.742C292.265 109.18 294.766 108.881 294.766 108.881C294.766 108.881 299.628 108.006 300.88 117.491L300.878 117.49Z" fill="#F7CC7F"/>
<path d="M294.64 84.4289C296.243 83.826 297.027 98.2922 297.243 104.246C300.082 104.52 305.031 104.248 306.263 104.155C306.842 104.112 308.178 103.621 308.756 103.545C309.346 103.468 309.883 103.428 310.171 103.478C310.279 103.496 313.236 104.708 313.49 104.974C313.804 105.305 314.653 106.136 314.51 106.494C314.366 106.854 312.878 105.493 312.878 105.493L312.151 105.083C313.057 105.969 314.785 107.137 314.536 107.561C314.294 107.976 312.735 106.792 311.625 105.984C312.578 106.846 313.761 108.387 313.489 108.629C313.243 108.845 311.897 107.059 310.458 106.545C309.925 106.355 309.393 106.882 308.974 106.947C308.665 106.993 308.19 107.094 307.886 107.008L306.328 106.565C305.796 106.613 305.783 106.927 305.247 107.043C304.625 107.175 303.604 107.315 302.812 107.509C298.249 108.625 296.726 109.144 295.329 109.142C291.098 109.139 290.852 85.8513 294.641 84.4289H294.64Z" fill="#F7A491"/>
<path d="M291.596 98.0081C291.296 91.909 291.341 84.3926 294.754 83.1107C296.102 82.6052 298.476 85.6464 298.048 98.132C296.225 98.2823 293.55 98.4046 291.596 98.0081Z" fill="#DD513A"/>
<path d="M318.494 138.681C318.494 138.681 318.021 140.202 318.869 141.21C319.718 142.216 323.245 143.204 323.707 143.749C324.171 144.294 324.135 144.758 324.135 144.758L314.235 144.486L314.342 141.492L314.797 139.341L318.491 138.682L318.494 138.681Z" fill="#F7A491"/>
<path d="M319.486 141.711C319.486 141.711 316.942 142.742 315.713 142.131C314.484 141.521 314.522 141.351 314.166 141.579C313.81 141.807 313.683 144.614 313.683 144.614L324.815 144.941C325.59 144.922 325.981 144.351 325.351 143.862C324.919 143.527 324.42 143.302 324.137 143.14C323.266 142.639 319.485 141.711 319.485 141.711H319.486Z" fill="#DD513A"/>
<path d="M318.12 111.82C318.885 110.208 320.626 108.108 323.688 109.374C326.608 110.58 327.391 113.543 326.471 116.578C325.55 119.613 319.484 137.454 319.273 139.907L314.43 139.938C314.43 139.938 315.311 125.812 315.525 122.398C315.733 119.112 316.797 114.612 318.12 111.82Z" fill="#F7CC7F"/>
<path d="M325.982 95.3882H309.794C309.365 95.3882 308.98 95.6475 308.817 96.0457L303.832 108.262H294.907C294.658 108.262 294.455 108.465 294.455 108.716C294.455 108.967 294.658 109.171 294.907 109.171H320.309C321.007 109.171 321.64 108.759 321.927 108.118L326.947 96.8832C327.26 96.1811 326.749 95.3882 325.984 95.3882H325.982Z" fill="black"/>
<path d="M317.265 102.501C317.156 103.049 316.68 103.416 316.201 103.32C315.723 103.225 315.424 102.701 315.533 102.152C315.642 101.604 316.119 101.237 316.597 101.333C317.076 101.429 317.374 101.953 317.265 102.501Z" fill="white"/>
<path d="M308.452 67.2434C307.963 67.0782 307.483 66.8932 307.02 66.6685C306.495 66.4158 305.816 66.1184 305.387 66.0523C304.483 65.9119 302.932 66.0061 302.074 66.9361C301.007 68.0958 299.11 67.1459 299.491 73.2202C299.923 80.0974 303.742 79.3424 303.834 79.2251C303.927 79.1095 307.239 74.8259 307.239 74.8259C307.239 74.8259 308.397 77.3633 308.397 77.2692C308.397 77.175 314.311 69.2159 308.45 67.2401L308.452 67.2434Z" fill="#0E2E35"/>
<path d="M305.553 79.7358L305.883 82.1923C305.883 82.1923 306.622 85.7324 305.672 86.4147C304.722 87.0969 301.632 82.0915 301.632 82.0915L301.958 75.8652L305.553 79.7358Z" fill="#F7A491"/>
<path d="M301.853 77.8839C302.638 80.0084 304.507 81.3134 305.833 81.8189L305.554 79.7358L301.96 75.8652L301.854 77.8823L301.853 77.8839Z" fill="#F47458"/>
<path d="M305.359 69.0901C307.371 68.7647 309.178 70.3853 309.127 72.404C309.105 73.2811 309.033 74.3764 308.851 75.5559C308.414 78.3923 306.481 80.8901 305.204 80.6671C303.925 80.4441 300.71 77.9975 301.277 73.9601C301.627 71.4673 303.247 69.4321 305.36 69.0901H305.359Z" fill="#F7A491"/>
<path d="M302.163 74.443C302.056 75.0675 301.556 75.5003 301.049 75.4127C300.541 75.3235 300.218 74.747 300.325 74.1226C300.432 73.4981 300.932 73.0653 301.439 73.1529C301.947 73.2421 302.27 73.8186 302.163 74.443Z" fill="#F7A491"/>
<path d="M301.439 73.1525C301.439 73.1525 302.985 73.5374 303.557 72.5413C304.131 71.5468 306.18 69.3993 308.787 70.2897C311.393 71.1801 306.494 68.1256 306.284 68.1256C306.075 68.1256 303.574 68.1074 303.574 68.1074C303.574 68.1074 301.645 69.6966 301.576 69.8701C301.507 70.0452 300.951 71.9482 300.951 71.9482L301.439 73.1525Z" fill="#0E2E35"/>
<path d="M304.266 77.3037L307.077 77.8423C307.077 77.8423 306.808 78.9028 305.566 78.7013C304.05 78.4568 304.266 77.3037 304.266 77.3037Z" fill="white"/>
<path d="M256.71 273.306C256.817 273.678 256.88 273.8 257.015 274.049C257.896 275.657 259.941 277.95 259.941 277.95L261.523 274.38C261.523 274.38 261.266 273.258 260.817 271.657C259.29 272.057 257.833 272.288 256.708 273.308L256.71 273.306Z" fill="#F8A492"/>
<path d="M265.781 270.209C265.781 270.209 256.955 274.015 256.67 273.942C256.487 273.896 253.051 268.135 253.013 262.72C252.996 260.219 255.59 257.209 258.485 257.804C259.941 258.103 259.92 258.509 262.076 261.647C264.232 264.784 265.781 270.209 265.781 270.209Z" fill="#13375B"/>
<path d="M273.316 338.439C273.316 338.439 273.107 341.91 273.105 341.917C273.027 342.358 272.726 343.447 272.726 343.846C272.726 345.351 279.862 342.569 278.262 341.902C278.117 341.841 277.358 341.385 277.312 340.873C277.239 340.083 277.053 338.487 277.053 338.487L273.316 338.439Z" fill="#F7A491"/>
<path d="M278.245 341.889C278.245 341.889 276.569 342.35 275.711 342.464C274.853 342.58 273.722 341.61 273.115 341.873C272.446 342.16 272.473 344.754 272.473 344.754C272.473 344.754 281.457 345.492 283.984 344.729C284.986 344.427 281.67 342.962 278.245 341.889Z" fill="#DD513A"/>
<path d="M258.719 338.439C258.719 338.439 258.509 341.91 258.507 341.917C258.43 342.358 258.128 343.447 258.128 343.846C258.128 345.351 265.264 342.569 263.664 341.902C263.519 341.841 262.536 341.045 262.488 340.532C262.415 339.743 262.453 338.487 262.453 338.487L258.717 338.439H258.719Z" fill="#F7A491"/>
<path d="M263.647 341.889C263.647 341.889 261.971 342.35 261.113 342.464C260.255 342.58 259.123 341.61 258.516 341.873C257.848 342.16 257.822 344.754 257.822 344.754C257.822 344.754 266.847 345.615 269.386 344.729C270.371 344.386 267.071 342.962 263.647 341.889Z" fill="#DD513A"/>
<path d="M260.899 275.229L267.185 266.412C267.211 266.335 267.269 266.178 267.356 265.937C267.673 265.061 268.331 263.241 268.905 261.43L268.912 261.41C269.092 260.777 269.474 259.672 269.844 258.605C270.255 257.417 270.764 255.944 270.783 255.693C270.766 255.65 270.736 255.572 270.698 255.47C270.468 254.87 270.156 253.444 270.047 252.823C269.978 252.428 269.907 251.469 270.375 251.469C271.113 251.469 270.761 252.427 271.101 253.026C271.226 252.627 271.479 251.832 271.612 251.029L271.736 249.154C271.759 249.012 271.609 247.978 272.127 247.978H272.152C272.617 248.013 272.605 249.113 272.798 250.971C272.86 250.757 272.921 250.499 272.967 250.263C272.962 250.136 273.054 249.577 273.123 249.281C273.029 248.763 273.084 247.947 273.635 248.023C273.91 248.061 273.889 249.202 273.889 249.202C273.886 249.359 273.869 250.565 273.879 250.803C273.935 250.398 274.156 248.672 274.588 248.672C274.946 248.672 274.976 249.136 274.968 249.504C274.963 249.723 274.739 251.591 274.725 251.809C274.894 251.525 275.095 249.878 275.261 249.878C275.961 249.878 275.708 252.22 275.451 252.832C275.426 252.894 275.402 253.017 275.372 253.159C275.285 253.577 275.138 254.274 274.773 254.901C274.334 255.653 273.729 256.849 273.637 257.032C273.569 257.406 273.359 258.749 273.094 260.439C272.98 261.162 272.856 261.954 272.728 262.775H272.721C272.698 262.951 272.566 263.516 272.069 265.636C271.39 268.537 271.319 268.662 271.287 268.715C270.992 269.239 264.215 278.455 263.927 278.847L263.757 279.078L260.903 275.231L260.899 275.229Z" fill="#F7A491"/>
<path d="M272.589 254.666C272.589 254.666 272.079 253.359 271.17 253.357C271.17 253.357 271.678 253.174 272.112 253.519C272.547 253.864 272.587 254.666 272.587 254.666H272.589Z" fill="#F47458"/>
<path d="M259.379 252.141L258.571 257.266C258.571 257.266 261.654 259.745 263.451 259.222C264.958 258.782 263.924 256.808 263.924 256.808C263.924 256.808 263.121 254.072 263.366 252.639C263.612 251.205 259.379 252.141 259.379 252.141Z" fill="#F7A491"/>
<path d="M259.962 253.691C260.734 254.056 262.262 254.555 263.451 254.675C263.338 253.958 263.273 253.2 263.369 252.64C263.483 251.979 262.641 251.822 261.704 251.845C260.477 251.951 259.382 252.143 259.382 252.143L259.227 253.127C259.461 253.373 259.705 253.57 259.962 253.692V253.691Z" fill="#FE875E"/>
<path d="M255.49 246.23C255.363 246.23 256.709 251.954 258.791 252.939C260.875 253.923 263.981 253.41 264.563 251.868C265.208 250.164 262.856 244.324 259.926 243.582C256.996 242.84 255.489 246.23 255.489 246.23H255.49Z" fill="#F7A491"/>
<path d="M257.9 240.972C256.235 241.934 255.473 243.358 255.216 243.942C254.436 244.314 253.49 245.115 253.037 247.279C252.479 249.937 254.462 251.987 256.564 252.604C258.665 253.22 258.99 254.612 258.99 254.612L259.23 253.114C259.23 253.114 258.763 251.809 258.058 251.156C257.356 250.504 258.392 249.551 258.482 248.774C258.553 248.176 258.113 247.015 258.208 246.034C258.208 246.034 259.376 244.261 260.528 243.823C262.491 243.077 260.035 239.74 257.9 240.972Z" fill="#13375B"/>
<path d="M258.786 249.77C259.058 250.431 258.948 251.089 258.537 251.237C258.128 251.386 257.575 250.97 257.303 250.309C257.031 249.648 257.141 248.991 257.552 248.844C257.961 248.695 258.514 249.111 258.786 249.772V249.77Z" fill="#F7A491"/>
<path d="M266.544 275.371L278.667 273.392C278.667 273.392 277.288 269.915 276.795 269.915C276.302 269.915 267.628 273.706 267.628 273.706L266.938 275.094L266.544 275.371Z" fill="#F8A492"/>
<path d="M260.334 283.696C260.334 283.696 259.125 289.55 259.618 293.991C260.112 298.429 260.15 314.201 260.15 314.201L258.269 339.433L262.731 339.53C262.731 339.53 268.024 314.31 267.925 314.957C267.826 315.605 269.698 297.2 269.698 297.2L263.39 283.142L260.334 283.697V283.696Z" fill="#184655"/>
<path d="M261.516 283.418C261.516 283.418 260.727 288.69 261.714 291.002C262.699 293.315 270.168 316.001 270.267 317.85C270.366 319.7 272.849 340.145 272.849 340.145L278.037 340L279.159 317.269L276.808 288.699L274.527 281.477L261.516 283.42V283.418Z" fill="#13375B"/>
<path d="M258.571 257.266C258.571 257.266 259.851 258.107 261.044 258.009C262.236 257.912 263.924 256.81 263.924 256.81L263.69 256.014C263.69 256.014 260.603 255.563 260.524 255.612C260.446 255.66 258.571 257.266 258.571 257.266Z" fill="#F7A491"/>
<path d="M272.208 269.743C272.208 269.743 276.795 274.076 278.865 273.336C280.935 272.596 281.791 270.067 276.74 266.366C272.22 263.054 272.208 269.741 272.208 269.741V269.743Z" fill="#F8A492"/>
<path d="M275.317 275.093C274.636 271.381 269.698 259.833 269.304 257.706C269.113 256.672 266.448 256.649 263.913 256.785C261.234 256.927 258.571 257.267 258.571 257.267C258.571 257.267 256.199 257.657 255.156 258.636C254.112 259.616 253.835 262.324 255.336 267.465C256.521 271.522 257.989 273.75 258.715 276.707C258.862 277.699 258.989 278.676 259.155 279.82C259.423 284.239 259.152 290.078 259.152 290.078C259.152 290.078 272.064 292.761 276.894 288.691C276.894 288.691 276.015 278.898 275.317 275.095V275.093Z" fill="#355389"/>
<path d="M278.608 267.113C278.608 267.113 273.542 271.3 273.247 271.3C273.057 271.3 266.016 266.115 264.391 261.854C263.492 259.499 265.378 256.864 267.529 256.872C269.02 256.879 269.683 257.264 272.641 259.76C275.598 262.257 278.608 267.111 278.608 267.111V267.113Z" fill="#466EB6"/>
<path d="M189.479 80.1668C190.309 78.1663 191.153 76.1608 193.308 75.1481C195.052 74.3287 196.873 74.636 198.422 75.804C202.812 79.1095 198.986 82.7505 203.983 89.018C205.535 90.9657 207.414 92.5384 208.345 94.8197C209.646 98.0146 208.096 99.5476 205.611 101.077C193.719 108.397 187.485 93.3676 187.709 89.9299C187.876 87.3727 188.946 81.4553 189.481 80.1668H189.479Z" fill="#13375B"/>
<path d="M177.137 119.124C177.638 119.044 178.855 118.17 179.286 118.091C179.619 118.03 180.34 117.921 180.647 117.875C181.023 116.469 182.933 108.8 183.148 106.552C183.381 104.117 185.099 93.5825 185.099 93.5825L189.552 94.3936C189.552 94.3936 187.703 102.498 187.191 106.427C186.752 109.802 183.054 117.391 182.584 118.192C182.584 118.212 182.584 118.23 182.582 118.25C182.511 119.441 181.937 119.044 181.937 119.044L181.007 119.282C181.007 119.282 177.712 119.599 177.496 119.679C177.282 119.758 176.637 119.203 177.138 119.124H177.137Z" fill="#F7A491"/>
<path d="M188.98 87.424C185.833 88.4928 184.043 97.0616 184.043 97.0616C184.043 97.0616 188.982 98.4426 190.247 97.7174C190.247 97.7174 191.684 91.3425 192.199 91.5655L188.982 87.4224L188.98 87.424Z" fill="#6A97CE"/>
<path d="M164.633 133.928C163.669 136.472 163.17 138.922 163.125 139.218C163.104 139.36 163.305 140.052 163.285 140.199C161.352 142.841 158.574 143.417 156.191 143.586C157.406 142.399 159.187 141.275 159.273 140.9C159.41 140.302 160.142 137.637 160.504 133.946C161.985 134.632 162.99 134.088 164.633 133.928Z" fill="#F7A491"/>
<path d="M192.027 105.472L196.282 117.468C196.282 117.468 189.445 118.757 186.89 119.226C184.335 119.695 170.055 120.32 169.694 120.574C169.425 120.762 166.475 130.316 165.159 135.584C163.664 135.912 161.106 135.518 159.745 135.048C160.48 127.512 163.136 115.57 163.988 114.27C165.373 112.152 192.029 105.472 192.029 105.472H192.027Z" fill="#256653"/>
<path d="M175.408 139.187C174.938 141.866 174.905 144.367 174.916 144.666C174.921 144.81 175.248 145.451 175.258 145.601C173.852 148.558 171.231 149.647 168.923 150.26C169.893 148.865 171.434 147.427 171.447 147.042C171.468 146.429 171.691 143.675 171.354 139.979C172.938 140.376 173.824 139.652 175.406 139.187H175.408Z" fill="#F7A491"/>
<path d="M196.992 106.094L198.642 108.916C201.154 113.213 199.227 118.74 194.594 120.541C194.569 120.551 194.544 120.561 194.519 120.569C192.098 121.509 178.188 124.803 177.881 125.12C177.651 125.356 176.543 135.293 176.234 140.715C174.827 141.319 172.24 141.41 170.815 141.204C170.127 133.662 170.502 121.435 171.094 119.997C172.059 117.658 196.992 106.093 196.992 106.093V106.094Z" fill="#327F6B"/>
<path d="M174.704 144.75C175.073 144.34 176.434 146.595 176.774 147.076C177.157 147.616 177.048 148.024 177.002 148.11C176.881 148.333 169.712 152.557 167.963 152.858C167.798 152.886 167.511 152.782 167.44 152.718C166.757 152.111 169.901 147.639 171.315 147.051C172.227 146.671 173.039 146.594 174.705 144.75H174.704Z" fill="#13375B"/>
<path d="M162.896 139.299C163.336 138.965 164.25 141.435 164.494 141.972C164.768 142.575 164.585 142.955 164.524 143.029C164.364 143.226 156.531 146.029 154.758 145.996C154.59 145.993 154.329 145.836 154.27 145.76C153.712 145.036 157.638 141.233 159.136 140.921C160.105 140.72 160.916 140.796 162.897 139.297L162.896 139.299Z" fill="#13375B"/>
<path d="M191.965 87.3988C191.884 87.3988 191.767 87.3707 191.649 87.3327C191.065 87.2287 189.786 87.075 188.791 87.4946C187.582 88.0051 185.708 92.7809 185.819 97.6806C185.863 98.4306 185.909 99.1013 185.947 99.5688C186.253 103.271 187.313 110.217 187.371 110.254C188.814 111.184 197.52 107.578 198.117 106.786C198.716 105.995 199.069 96.3723 199.359 95.8916L199.932 87.5227C198.922 87.2204 193.514 87.3856 191.967 87.3955L191.965 87.3988Z" fill="#9BC1F9"/>
<path d="M195.494 84.3184C195.494 84.3184 194.933 87.2209 195.045 88.3673C195.157 89.5122 194.618 93.2026 192.198 93.2159C189.777 93.2274 191.737 88.5243 191.967 87.4009C192.194 86.2793 192.249 82.8052 192.249 82.8052L195.495 84.32L195.494 84.3184Z" fill="#F7A491"/>
<path d="M204.056 118.762C204.165 118.757 213.873 118.268 213.873 118.268C213.873 118.268 209.845 121.167 209.762 121.167C209.68 121.167 206.553 119.931 206.417 119.931C206.28 119.931 204.054 118.762 204.054 118.762H204.056Z" fill="#50BFA5"/>
<path d="M400.606 338.582C400.606 338.582 400.797 341.991 400.799 341.998C400.87 342.431 401.147 343.501 401.147 343.894C401.147 345.373 394.596 342.639 396.064 341.985C396.198 341.925 396.894 341.477 396.937 340.974C397.004 340.199 397.174 338.629 397.174 338.629L400.604 338.582H400.606Z" fill="#F7A491"/>
<path d="M396.002 342C396.002 342 397.539 342.453 398.328 342.565C399.116 342.677 400.154 341.726 400.711 341.983C401.325 342.266 401.3 344.815 401.3 344.815C401.3 344.815 393.054 345.54 390.734 344.79C389.815 344.493 392.859 343.054 396.003 342H396.002Z" fill="#F7CC7F"/>
<path d="M411.514 338.405C411.514 338.405 411.705 341.815 411.707 341.822C411.778 342.254 412.056 343.325 412.056 343.718C412.056 345.197 405.506 342.462 406.974 341.808C407.106 341.749 408.01 340.966 408.053 340.462C408.12 339.687 408.084 338.453 408.084 338.453L411.514 338.405Z" fill="#F7A491"/>
<path d="M406.991 341.795C406.991 341.795 408.528 342.248 409.317 342.36C410.104 342.472 411.143 341.521 411.7 341.778C412.314 342.061 412.339 344.61 412.339 344.61C412.339 344.61 404.15 344.947 401.723 344.585C400.768 344.443 403.848 342.849 406.992 341.797L406.991 341.795Z" fill="#F7CC7F"/>
<path d="M409.572 284.246C409.572 284.246 410.682 289.998 410.23 294.359C409.778 298.72 409.742 314.214 409.742 314.214L411.829 338.995L407.371 339.099C407.371 339.099 402.515 314.321 402.604 314.957C402.695 315.593 400.976 297.511 400.976 297.511L406.766 283.699L409.57 284.244L409.572 284.246Z" fill="#355389"/>
<path d="M408.017 280.53C408.017 280.53 413.047 285.835 411.177 291.628C410.426 293.956 403.417 316.19 403.326 318.007C403.235 319.824 400.955 339.91 400.955 339.91L396.193 339.767L395.162 317.434L396.523 287.343L399.414 282.268L408.019 280.529L408.017 280.53Z" fill="#466EB6"/>
<path d="M377.484 263.265C379.131 261.425 382.715 258.807 382.715 258.807C382.715 258.807 384.85 256.98 385.721 256.679C387.003 256.236 389.197 255.057 392.371 259.874C394.642 263.321 408.975 281.171 411.329 281.772L395.964 289.133C395.543 285.618 387.95 278.975 386.856 277.736C384.413 274.966 375.925 265.006 377.484 263.265Z" fill="#F47458"/>
<path d="M378.2 255.785L382.986 258.592C382.986 258.592 383.121 262.684 381.555 263.746C380.242 264.638 379.244 262.497 379.244 262.497C379.244 262.497 377.464 260.027 376.113 259.258C374.76 258.488 378.2 255.785 378.2 255.785Z" fill="#F7A491"/>
<path d="M379.003 257.586C378.823 258.44 378.406 259.674 377.761 260.69C377.233 260.118 376.641 259.558 376.113 259.258C375.489 258.902 375.885 258.136 376.494 257.412C377.353 256.517 378.199 255.785 378.199 255.785L379.12 256.324C379.179 256.674 379.064 257.302 379.003 257.586Z" fill="#F47458"/>
<path d="M375.708 248.755C375.788 248.656 379.723 253.561 379.238 255.86C378.753 258.161 376.374 260.259 374.721 259.683C372.893 259.045 369.493 253.272 370.712 250.468C371.932 247.665 375.709 248.757 375.709 248.757L375.708 248.755Z" fill="#F7A491"/>
<path d="M371.401 247.207C373.116 246.252 375.914 245.978 378.004 247.073C380.574 248.421 381.16 251.811 380.355 253.879C379.55 255.948 380.472 257.117 380.472 257.117L379.109 256.319C379.109 256.319 378.313 255.074 378.209 254.082C378.105 253.09 376.66 253.266 375.954 252.815C375.411 252.468 374.716 251.344 373.839 250.759C373.839 250.759 371.625 250.486 370.538 251.099C368.682 252.141 368.946 248.575 371.402 247.207H371.401Z" fill="#13375B"/>
<path d="M377.058 253.643C377.045 254.378 377.393 254.981 377.834 254.988C378.274 254.994 378.642 254.405 378.655 253.669C378.669 252.934 378.32 252.331 377.88 252.325C377.44 252.318 377.072 252.908 377.058 253.643Z" fill="#F7A491"/>
<path d="M373.028 257.548L375.112 255.989C375.112 255.989 375.663 256.831 374.767 257.545C373.675 258.414 373.03 257.548 373.03 257.548H373.028Z" fill="white"/>
<path d="M367.797 288.574C368.319 287.811 368.546 286.709 369.269 285.868C369.511 285.585 369.897 285.268 370.336 284.951C373.807 282.918 382.847 277.676 383.199 277.269C383.616 276.787 389.786 266.522 389.786 266.522L384.244 265.265L378.829 274.841C378.377 275.201 369.78 281.563 369.78 281.563C369.78 281.563 368.071 282.901 367.136 283.527C366.664 283.803 366.205 283.981 365.804 284.122C365.3 284.297 364.34 284.778 364.145 284.948C363.919 285.146 363.467 285.572 363.198 285.832C362.929 286.091 362.604 286.385 362.477 286.539C362.401 286.633 362.164 286.762 361.989 286.849C361.728 286.98 361.763 287.365 362.042 287.444C362.305 287.518 362.66 287.353 362.881 287.249C363.503 286.957 364.264 286.165 364.303 286.263C364.343 286.36 363.571 288.054 363.495 288.253C363.419 288.453 362.533 290.427 362.487 290.867C362.441 291.306 362.706 291.409 362.903 291.247C363.073 291.108 364.498 288.473 364.498 288.473C364.498 288.473 364.681 288.138 364.752 288.329C364.823 288.521 363.533 290.918 363.407 291.311C363.282 291.704 363.381 292.026 363.746 291.889C364.188 291.723 365.407 289.079 365.407 289.079C365.407 289.079 365.565 288.751 365.674 288.865C365.783 288.979 364.651 290.999 364.638 291.232C364.625 291.465 364.836 291.694 365.141 291.5C365.501 291.27 366.57 288.903 366.57 288.903C366.57 288.903 366.702 288.746 366.743 288.856C366.784 288.967 365.943 290.758 366.006 291.019C366.058 291.238 366.256 291.194 366.256 291.194C366.697 291.194 367.276 289.337 367.797 288.574Z" fill="#F8A492"/>
<path d="M388.266 271.945C388.266 271.945 386.461 271.37 385.303 270.84C384.528 270.485 381.146 268.8 381.146 268.8C381.146 268.8 382.604 262.641 383.589 260.426C387.207 252.298 391.316 257.903 391.874 259.21C393.121 262.132 388.264 271.945 388.264 271.945H388.266Z" fill="#355389"/>
<path d="M262.211 250.665L263.929 249.379C263.929 249.379 264.382 250.075 263.643 250.661C262.743 251.378 262.211 250.665 262.211 250.665Z" fill="white"/>
<path d="M214.096 118.258C214.055 118.154 213.964 118.152 213.871 118.149C212.971 118.121 212.07 118.081 211.176 117.947C211.027 117.926 210.881 117.891 210.744 117.837C210.495 117.738 210.25 117.739 209.998 117.809C209.863 117.847 209.724 117.853 209.584 117.853C209.13 117.852 207.839 117.411 207.174 117.295C207.022 117.268 206.902 117.153 206.864 117.004C206.21 114.417 204.81 108.612 204.628 106.704C204.396 104.264 202.713 93.2588 202.713 93.2588L198.209 94.5159C198.209 94.5159 200.064 102.639 200.575 106.577C200.971 109.618 204.006 116.072 204.958 117.928C205.423 119.309 206.466 119.347 206.709 119.376C206.847 119.393 206.974 119.462 207.065 119.568C207.23 119.76 207.418 119.926 207.632 120.064C207.792 120.164 207.914 120.296 208.02 120.45C208.211 120.729 208.383 121.022 208.551 121.316C208.663 121.511 208.781 121.572 208.947 121.526C209.125 121.476 209.211 121.344 209.208 121.126C209.203 120.804 209.101 120.513 208.939 120.237C208.787 119.979 208.799 119.831 208.975 119.593C209.076 119.457 209.181 119.325 209.313 119.216C209.449 119.105 209.591 119.023 209.774 119.048C210.097 119.129 210.424 119.195 210.755 119.231L211.027 119.287C211.037 119.287 211.176 119.319 211.176 119.319C211.199 119.325 211.677 119.376 211.842 119.378C211.974 119.378 212.187 119.386 212.369 119.396C212.534 119.404 212.88 119.319 212.892 119.319C213.052 119.315 213.193 119.257 213.312 119.15C213.362 119.105 213.408 119.058 213.383 118.982C213.36 118.914 213.307 118.884 213.236 118.871C213.127 118.851 212.568 118.783 212.575 118.76C212.741 118.76 213.261 118.749 213.428 118.744C213.652 118.737 213.845 118.658 214 118.491C214.061 118.425 214.132 118.36 214.091 118.256L214.096 118.258Z" fill="#F7A491"/>
<path d="M199.986 87.5081C202.208 87.1034 204.043 97.0614 204.043 97.0614C204.043 97.0614 199.104 98.4425 197.838 97.7172C197.838 97.7172 196.401 91.3423 195.887 91.5653L199.984 87.5065L199.986 87.5081Z" fill="#9BC1F9"/>
<path d="M146.241 266.507C146.388 266.084 144.339 265.744 144.229 265.318C144.12 264.891 146.817 264.857 146.913 264.482C147.091 263.791 143.956 264.336 144.017 264.013C144.078 263.689 147.284 262.967 146.937 262.413C146.591 261.86 143.692 263.509 143.605 263.134C143.518 262.757 146.437 261.842 146.386 261.018C146.358 260.576 141.592 263.216 141.04 262.977C140.487 262.737 141.634 260.666 141.195 260.357C140.754 260.05 139.492 264.568 139.187 264.72C138.885 264.87 132.445 268.551 130.154 269.135C129.875 268.367 129.274 267.33 129.029 266.603C127.743 267.52 126.788 267.979 125.462 268.813C126.424 271.225 127.791 273.867 128.461 274.169C130.5 275.092 138.385 268.542 139.961 267.421C141.536 266.299 142.439 266.662 143.503 266.309C144.568 265.954 146.094 266.928 146.241 266.505V266.507Z" fill="#F7A491"/>
<path d="M125.189 269.973C125.189 269.973 123.424 262.167 123.731 259.902C124.037 257.638 126.725 255.528 128.587 256.311C130.45 257.094 131.294 267.992 131.294 267.992L125.191 269.974L125.189 269.973Z" fill="#F7CC7F"/>
<circle cx="159.092" cy="21.0916" r="11.0916" fill="#F37363"/>
<circle cx="59.5211" cy="252.521" r="19.5211" fill="#CA951E"/>
<defs>
<clipPath id="clip0_1943_1473">
<rect width="499" height="345" fill="white"/>
</clipPath>
</defs>
</svg>
