<svg width="67" height="67" viewBox="0 0 67 67" fill="none" xmlns="http://www.w3.org/2000/svg">
<circle cx="33.5" cy="33.5" r="33.5" fill="#CA951E"/>
<path d="M42.5857 24.3453C42.4507 24.3453 42.3155 24.2901 42.2124 24.1795C42.0063 23.9582 42.0063 23.5995 42.2126 23.3784L43.4248 22.0785C43.6309 21.8572 43.9654 21.8574 44.1713 22.0787C44.3774 22.3 44.3774 22.6584 44.1711 22.8795L42.9589 24.1796C42.8558 24.2901 42.7208 24.3453 42.5856 24.3453L42.5857 24.3453Z" fill="white"/>
<path d="M42.0884 36.9506C41.9534 36.9506 41.8182 36.8954 41.7152 36.7847L40.7853 35.7878C40.5792 35.5665 40.579 35.2081 40.7853 34.9868C40.9913 34.7655 41.3256 34.7655 41.5317 34.9868L42.4615 35.9836C42.6678 36.2047 42.6678 36.5634 42.4617 36.7845C42.3586 36.8952 42.2236 36.9506 42.0882 36.9506L42.0884 36.9506Z" fill="white"/>
<path d="M31.7617 25.8769C31.6267 25.8769 31.4915 25.8216 31.3886 25.711L30.4586 24.7141C30.2525 24.4928 30.2523 24.1344 30.4586 23.913C30.6647 23.6917 30.999 23.6917 31.2051 23.913L32.1349 24.9099C32.3411 25.131 32.3411 25.4897 32.1351 25.7108C32.0319 25.8216 31.8967 25.8769 31.7615 25.8769L31.7617 25.8769Z" fill="white"/>
<path d="M42.6744 29.1862C42.4396 29.1862 42.2254 29.0169 42.1638 28.7618C42.0906 28.4592 42.2599 28.1499 42.5422 28.0714L43.772 27.7293C44.0538 27.6505 44.3423 27.8325 44.4157 28.1353C44.4888 28.4382 44.3193 28.7472 44.0371 28.8257L42.8073 29.168C42.763 29.1801 42.7185 29.1862 42.6745 29.1862L42.6744 29.1862Z" fill="white"/>
<path d="M38.0731 24.2506C38.0291 24.2506 37.9844 24.245 37.9401 24.2324C37.6579 24.1539 37.4885 23.8446 37.5617 23.5418L37.8807 22.2231C37.9539 21.9203 38.2424 21.7386 38.5245 21.8171C38.8066 21.8956 38.9761 22.2047 38.9029 22.5077L38.5839 23.8264C38.5222 24.0815 38.308 24.2506 38.0733 24.2506L38.0731 24.2506Z" fill="white"/>
<path d="M46.4722 33.8488C46.4262 33.8488 46.3794 33.8421 46.3328 33.8283L44.679 33.3439C44.3977 33.2615 44.2319 32.95 44.3089 32.6482C44.3856 32.3466 44.676 32.1687 44.9573 32.2511L46.6112 32.7356C46.8923 32.8181 47.058 33.1294 46.9813 33.4312C46.9172 33.6833 46.7043 33.8488 46.4724 33.8488L46.4722 33.8488Z" fill="white"/>
<path d="M28.1031 28.4663C28.0569 28.4663 28.0102 28.4598 27.9636 28.4461L26.31 27.9616C26.0287 27.8793 25.8629 27.5677 25.9397 27.2659C26.0166 26.9643 26.307 26.7863 26.5881 26.8688L28.2419 27.3533C28.5233 27.4358 28.689 27.7472 28.6121 28.049C28.5482 28.3008 28.3353 28.4663 28.1034 28.4663L28.1031 28.4663Z" fill="white"/>
<path d="M34.3124 21.9143C34.0771 21.9143 33.8624 21.7441 33.8014 21.488L33.3764 19.7069C33.3042 19.404 33.4747 19.0953 33.7571 19.0179C34.04 18.9402 34.3272 19.1231 34.3994 19.4261L34.8244 21.2072C34.8968 21.5103 34.7263 21.8188 34.4439 21.8965C34.3999 21.9084 34.3558 21.9143 34.3124 21.9143L34.3124 21.9143Z" fill="white"/>
<path d="M39.0327 41.6971C38.7974 41.6971 38.5826 41.527 38.5217 41.2709L38.0967 39.4897C38.0243 39.1867 38.195 38.8782 38.4772 38.8005C38.7601 38.723 39.0474 38.9059 39.1196 39.2089L39.5447 40.9901C39.6169 41.2931 39.4464 41.6016 39.164 41.6791C39.12 41.6912 39.0761 41.6971 39.0327 41.6971L39.0327 41.6971Z" fill="white"/>
<path d="M20.5281 48C20.4936 48 20.4595 47.9959 20.425 47.9886C20.3914 47.9817 20.3581 47.9704 20.3264 47.9563C20.2947 47.9421 20.2642 47.9243 20.2349 47.9041C20.2065 47.8836 20.1788 47.86 20.1548 47.8339C20.1305 47.8078 20.1082 47.7789 20.0894 47.7479C20.0701 47.7172 20.0539 47.6844 20.0407 47.6498C20.0275 47.6158 20.0173 47.58 20.0106 47.5438C20.0038 47.5076 20 47.4702 20 47.4333C20 47.3965 20.0038 47.3589 20.0106 47.3229C20.0173 47.2867 20.0275 47.2511 20.0407 47.2165C20.0539 47.1825 20.0701 47.1497 20.0894 47.119C20.1082 47.0878 20.1305 47.0591 20.1548 47.033C20.1789 47.0069 20.2067 46.9833 20.2349 46.9626C20.264 46.9424 20.2945 46.9248 20.3264 46.9106C20.3581 46.8965 20.3914 46.8851 20.425 46.8783C20.4933 46.8635 20.5634 46.8635 20.6315 46.8783C20.6652 46.8851 20.698 46.8965 20.7303 46.9106C20.762 46.9248 20.7925 46.9426 20.8217 46.9626C20.8502 46.9832 20.8772 47.0069 20.9019 47.033C20.9262 47.0591 20.9479 47.0878 20.9675 47.119C20.9863 47.1497 21.0027 47.1825 21.0159 47.2165C21.0291 47.2511 21.0393 47.2867 21.0461 47.3229C21.0529 47.3591 21.0567 47.3965 21.0567 47.4333C21.0567 47.4702 21.0529 47.5074 21.0461 47.5438C21.0391 47.58 21.0291 47.6156 21.0159 47.6498C21.0027 47.6844 20.9865 47.7172 20.9675 47.7479C20.9479 47.7788 20.9262 47.8078 20.9019 47.8339C20.8772 47.86 20.85 47.8836 20.8217 47.9041C20.7927 47.9245 20.762 47.9421 20.7303 47.9563C20.698 47.9704 20.6652 47.9817 20.6315 47.9886C20.5972 47.9959 20.563 48 20.5281 48Z" fill="white"/>
<path d="M43.3489 32.2066L40.8288 29.3101L41.6607 25.4507C41.7016 25.2603 41.6483 25.0609 41.5197 24.9225C41.3909 24.7843 41.205 24.7271 41.0274 24.7712L37.4281 25.6633L34.7268 22.9607C34.5939 22.8276 34.4061 22.7772 34.2302 22.828C34.0542 22.8784 33.9151 23.0228 33.8619 23.2095L32.7828 26.9982L29.2497 28.1555C29.0757 28.2125 28.9412 28.3616 28.8939 28.5503C28.847 28.7391 28.8937 28.9405 29.018 29.0836L31.5286 31.9694L31.2805 32.9436L26.4636 38.109C26.0948 38.5045 25.8919 39.0298 25.8919 39.5887C25.8919 39.9536 25.9783 40.304 26.1408 40.6133L21.7656 45.3053C21.5593 45.5264 21.5593 45.885 21.7654 46.1062C21.8685 46.2168 22.0035 46.272 22.1389 46.272C22.2739 46.272 22.4091 46.2168 22.5121 46.1064L26.888 41.4137C27.1835 41.5913 27.5133 41.6803 27.8431 41.6803C28.3428 41.6803 28.8422 41.4764 29.2225 41.0686L34.0891 35.8492L34.9406 35.6289L37.6394 38.3293C37.7384 38.4282 37.8676 38.4816 37.9996 38.4816C38.0452 38.4816 38.0912 38.4751 38.1363 38.4622C38.3122 38.4118 38.4511 38.2674 38.5043 38.0806L39.5836 34.292L43.1165 33.1347C43.2908 33.0777 43.4252 32.9284 43.4725 32.7396C43.5195 32.5511 43.4727 32.3496 43.3484 32.2068L43.3489 32.2066ZM28.4764 40.2676C28.1274 40.642 27.5594 40.642 27.2102 40.2676C27.0411 40.0863 26.9482 39.8452 26.9482 39.5889C26.9482 39.3326 27.0411 39.0915 27.2102 38.9103L33.3208 32.3573L34.5865 33.7149L28.4764 40.2676ZM34.0675 31.5567L35.9396 29.549C36.2887 29.1746 36.8566 29.1746 37.2058 29.549C37.3749 29.7303 37.4679 29.9712 37.4679 30.2277C37.4679 30.484 37.3749 30.7249 37.2058 30.9059L35.3332 32.9142L34.0675 31.5567ZM39.007 33.2966C38.839 33.3516 38.7075 33.4926 38.6563 33.6729L37.742 36.8825L35.4535 34.5928C35.4195 34.5589 35.3816 34.5299 35.3415 34.5071L37.9524 31.7075C38.321 31.312 38.5239 30.7867 38.5239 30.2277C38.5239 29.6686 38.321 29.1431 37.9524 28.748C37.1916 27.9322 35.9537 27.9322 35.1933 28.748L32.9476 31.1562L32.582 31.5481C32.5607 31.505 32.5339 31.4641 32.5019 31.4275L30.3672 28.974L33.3602 27.9937C33.5282 27.9386 33.6596 27.7977 33.7109 27.6174L34.6252 24.4078L36.9137 26.6975C37.0419 26.8257 37.2216 26.8775 37.3926 26.835L40.4419 26.079L39.7371 29.349C39.6975 29.5325 39.7457 29.7253 39.8655 29.863L42.0001 32.3168L39.007 33.2966Z" fill="white"/>
</svg>