<svg width="499" height="347" viewBox="0 0 499 347" fill="none" xmlns="http://www.w3.org/2000/svg">
<g clipPath="url(#clip0_1271_2137)">
<path d="M42.7625 345H479.118C515.286 314.918 496.674 224.398 466.463 206.048C433.945 186.295 485.581 117.983 435.488 95.8094C402.78 81.3328 350.762 97.1122 357.759 58.3781C367.463 4.66699 254.055 -9.0932 170.504 5.38337C80.1756 21.0367 162.664 97.9948 63.3285 113.501C12.2489 121.475 22.1199 189.689 26.883 203.786C31.0311 216.063 58.4754 235.537 20.3342 262.355C-35.5947 301.679 41.4443 344.278 42.7625 345Z" fill="#A7D7F0" fill-opacity="0.5"/>
</g>
<g clipPath="url(#clip1_1271_2137)">
<path d="M298.706 122.932H296.09V122.058H298.706V122.932ZM294.346 122.932H291.729V122.058H294.346V122.932ZM289.985 122.932H287.369V122.058H289.985V122.932ZM285.625 122.932H283.008V122.058H285.625V122.932ZM281.264 122.932H278.648V122.058H281.264V122.932ZM276.904 122.932H274.287V122.058H276.904V122.932ZM272.543 122.932H269.927V122.058H272.543V122.932ZM268.183 122.932H265.566V122.058H268.183V122.932ZM263.822 122.932H261.206V122.058H263.822V122.932ZM259.462 122.932H256.845V122.058H259.462V122.932ZM255.101 122.932H252.485V122.058H255.101V122.932ZM250.741 122.932H248.124V122.058H250.741V122.932ZM246.38 122.932H243.764V122.058H246.38V122.932ZM242.02 122.932H239.403V122.058H242.02V122.932ZM237.659 122.932H235.043V122.058H237.659V122.932ZM233.299 122.932H230.682V122.058H233.299V122.932ZM228.938 122.932H226.322V122.058H228.938V122.932ZM224.578 122.932H221.961V122.058H224.578V122.932ZM220.217 122.932H217.601V122.058H220.217V122.932ZM215.857 122.932H213.24V122.058H215.857V122.932ZM211.496 122.932H208.88V122.058H211.496V122.932ZM207.136 122.932H204.519V122.058H207.136V122.932ZM202.775 122.932H200.159V122.058H202.775V122.932ZM198.415 122.932H195.798V122.058H198.415V122.932ZM194.054 122.932H191.438V122.058H194.054V122.932ZM189.694 122.932H187.077V122.058H189.694V122.932ZM185.333 122.932H183.179C183.013 122.932 182.856 122.932 182.7 122.915L182.752 122.041C182.891 122.041 183.04 122.049 183.188 122.049H185.342V122.924L185.333 122.932ZM300.477 122.915L300.416 122.041C301.244 121.988 302.046 121.796 302.814 121.481L303.145 122.285C302.291 122.644 301.392 122.854 300.468 122.915H300.477ZM180.877 122.618C179.996 122.364 179.159 121.971 178.391 121.446L178.888 120.73C179.569 121.202 180.319 121.56 181.112 121.779L180.877 122.618ZM304.759 121.403L304.253 120.686C304.933 120.205 305.526 119.628 306.014 118.955L306.712 119.471C306.163 120.214 305.509 120.861 304.75 121.394L304.759 121.403ZM177.005 120.24C176.377 119.558 175.862 118.789 175.479 117.95L176.272 117.592C176.612 118.344 177.074 119.034 177.641 119.646L177.005 120.24ZM307.637 117.889L306.843 117.531C307.183 116.77 307.384 115.966 307.462 115.145L308.334 115.223C308.256 116.15 308.02 117.041 307.645 117.889H307.637ZM174.903 116.202C174.781 115.634 174.729 115.057 174.729 114.472C174.729 114.131 174.746 113.79 174.79 113.449L175.653 113.554C175.618 113.851 175.601 114.157 175.601 114.472C175.601 114.996 175.653 115.512 175.758 116.019L174.903 116.202V116.202ZM307.419 113.493C307.314 112.671 307.07 111.876 306.703 111.133L307.488 110.748C307.898 111.579 308.169 112.47 308.291 113.379L307.427 113.493H307.419ZM176.028 111.954L175.208 111.666C175.513 110.801 175.958 109.988 176.534 109.262L177.223 109.804C176.708 110.46 176.307 111.185 176.037 111.963L176.028 111.954ZM305.823 109.743C305.299 109.096 304.689 108.537 303.991 108.091L304.462 107.357C305.238 107.855 305.927 108.476 306.503 109.192L305.823 109.743V109.743ZM178.374 108.616L177.816 107.943C178.531 107.357 179.333 106.885 180.188 106.562L180.502 107.374C179.734 107.672 179.011 108.082 178.374 108.616V108.616ZM302.517 107.357C301.793 107.086 301.026 106.937 300.25 106.902L299.857 106.885L299.831 106.492C299.788 105.653 299.639 104.822 299.404 104.018L300.241 103.765C300.459 104.508 300.607 105.277 300.677 106.055C301.41 106.125 302.125 106.282 302.814 106.535L302.509 107.357H302.517ZM182.089 106.964L181.967 106.098C182.359 106.046 182.769 106.011 183.17 106.011H184.644V106.885H183.17C182.813 106.885 182.447 106.911 182.098 106.964H182.089ZM200.787 106.885H199.461V106.011H199.967C200.011 105.556 200.08 105.111 200.168 104.665L201.022 104.848C200.909 105.382 200.839 105.932 200.804 106.474L200.778 106.885H200.787ZM197.717 106.885H195.101V106.011H197.717V106.885ZM193.357 106.885H190.74V106.011H193.357V106.885ZM188.996 106.885H186.38V106.011H188.996V106.885ZM201.502 103.24L200.691 102.926C201.014 102.078 201.441 101.274 201.947 100.522L202.671 101.011C202.2 101.711 201.807 102.454 201.502 103.24ZM298.793 102.454C298.436 101.693 297.982 100.985 297.459 100.33L298.139 99.7791C298.706 100.487 299.195 101.256 299.587 102.078L298.802 102.454H298.793ZM203.717 99.7092L203.08 99.1148C203.7 98.4506 204.397 97.8562 205.147 97.358L205.627 98.0835C204.929 98.5467 204.284 99.0973 203.708 99.7092H203.717ZM296.308 99.1061C295.689 98.538 295 98.0398 294.276 97.6377L294.703 96.8773C295.488 97.3143 296.229 97.8562 296.901 98.468L296.317 99.1148L296.308 99.1061ZM207.092 97.2619L206.726 96.4665C207.554 96.0819 208.418 95.8022 209.307 95.6274L209.482 96.484C208.662 96.6501 207.86 96.9123 207.101 97.2619H207.092ZM292.759 96.9297C291.974 96.6413 291.154 96.4403 290.317 96.3441L290.421 95.4788C291.32 95.5837 292.209 95.7935 293.055 96.1082L292.759 96.9297ZM211.147 96.283L211.113 95.4089C211.269 95.4089 211.426 95.4002 211.583 95.4002H213.746V96.2742H211.583C211.435 96.2742 211.296 96.2742 211.147 96.283ZM288.633 96.2742H287.351L287.543 95.6974C287.735 95.103 287.883 94.4912 287.971 93.8794L288.834 94.0105C288.764 94.4737 288.668 94.9369 288.546 95.4002H288.633V96.2742V96.2742ZM222.467 96.2742H219.851V95.4002H222.467V96.2742ZM218.107 96.2742H215.49V95.4002H218.107V96.2742ZM222.729 95.1467C222.511 94.2639 222.389 93.3549 222.38 92.4459H223.252C223.252 93.2763 223.366 94.1066 223.575 94.9282L222.729 95.138V95.1467ZM288.084 92.21C288.075 91.3709 287.962 90.5318 287.761 89.719L288.607 89.5092C288.825 90.392 288.947 91.2922 288.956 92.2012H288.084V92.21ZM223.366 90.7765L222.502 90.6454C222.633 89.7452 222.868 88.8624 223.209 88.0233L224.02 88.3467C223.706 89.1246 223.488 89.9462 223.366 90.7678V90.7765ZM287.221 88.137C286.889 87.3678 286.471 86.6336 285.974 85.9519L286.671 85.4362C287.212 86.1704 287.665 86.9658 288.014 87.7961L287.212 88.137H287.221ZM224.761 86.8521L224.011 86.4064C224.473 85.6285 225.031 84.903 225.659 84.2475L226.287 84.8506C225.703 85.4537 225.188 86.1267 224.761 86.8521V86.8521ZM284.883 84.6845C284.29 84.0902 283.628 83.5658 282.912 83.1287L283.366 82.3858C284.133 82.8578 284.849 83.4259 285.494 84.064L284.875 84.6845H284.883ZM227.534 83.7318L227.002 83.0326C227.726 82.482 228.511 82.0187 229.331 81.6516L229.688 82.447C228.921 82.7879 228.197 83.2161 227.525 83.7318H227.534ZM281.421 82.3596C280.645 82.0362 279.834 81.8002 279.014 81.6691L279.154 80.8038C280.043 80.9524 280.924 81.2059 281.761 81.5555L281.421 82.3596V82.3596ZM231.275 81.8876L231.049 81.0398C231.921 80.8038 232.828 80.6727 233.735 80.6465L233.761 81.5205C232.924 81.5467 232.087 81.6691 231.275 81.8789V81.8876ZM277.348 81.5205H274.732V80.6465H277.279L277.348 81.5205ZM272.988 81.5205H270.372V80.6465H272.988V81.5205ZM268.627 81.5205H266.011V80.6465H268.627V81.5205ZM264.267 81.5205H261.651V80.6465H264.267V81.5205ZM259.906 81.5205H257.29V80.6465H259.906V81.5205ZM255.546 81.5205H252.93V80.6465H255.546V81.5205ZM251.185 81.5205H248.569V80.6465H251.185V81.5205ZM246.825 81.5205H244.209V80.6465H246.825V81.5205ZM242.465 81.5205H239.848V80.6465H242.465V81.5205ZM238.104 81.5205H235.488V80.6465H238.104V81.5205Z" fill="#E6E7E8"/>
<path d="M147.475 210.248H144.859V209.374H147.475V210.248ZM143.115 210.248H140.499V209.374H143.115V210.248ZM138.754 210.248H136.138V209.374H138.754V210.248ZM134.394 210.248H131.778V209.374H134.394V210.248ZM130.033 210.248H127.417V209.374H130.033V210.248ZM125.673 210.248H123.057V209.374H125.673V210.248ZM121.312 210.248H118.696V209.374H121.312V210.248ZM116.952 210.248H114.336V209.374H116.952V210.248ZM112.591 210.248H109.975V209.374H112.591V210.248ZM108.231 210.248H105.615V209.374H108.231V210.248ZM103.87 210.248H101.254V209.374H103.87V210.248ZM99.5099 210.248H96.8936V209.374H99.5099V210.248ZM95.1494 210.248H92.5331V209.374H95.1494V210.248ZM90.7889 210.248H88.1726V209.374H90.7889V210.248ZM86.4284 210.248H83.8121V209.374H86.4284V210.248ZM82.0679 210.248H79.4516V209.374H82.0679V210.248ZM77.7074 210.248H75.0911V209.374H77.7074V210.248ZM73.3469 210.248H70.7306V209.374H73.3469V210.248ZM68.9864 210.248H66.3701V209.374H68.9864V210.248ZM149.237 210.248L149.202 209.374C150.022 209.339 150.798 209.121 151.505 208.727L151.923 209.496C151.086 209.951 150.188 210.204 149.237 210.248ZM64.5736 210.213C63.6492 210.108 62.7335 209.785 61.9486 209.269L62.4195 208.535C63.0998 208.972 63.8759 209.252 64.6695 209.348L64.5736 210.213ZM153.406 208.36L152.778 207.748C153.336 207.163 153.772 206.455 154.016 205.694L154.845 205.965C154.557 206.857 154.06 207.678 153.406 208.36V208.36ZM60.5445 208.028C59.9428 207.303 59.5067 206.446 59.28 205.537L60.1259 205.327C60.3178 206.105 60.6928 206.848 61.216 207.469L60.5445 208.028V208.028ZM154.278 204.112V204.051C154.278 203.256 154.103 202.487 153.755 201.77L154.539 201.385C154.941 202.225 155.15 203.125 155.15 204.06L154.278 204.112ZM59.9864 203.728L59.1143 203.675C59.1753 202.723 59.4457 201.822 59.9166 201.001L60.6753 201.438C60.2654 202.146 60.0387 202.924 59.9864 203.737V203.728ZM152.848 200.441C152.298 199.847 151.609 199.384 150.859 199.104L151.173 198.291C152.045 198.623 152.848 199.165 153.484 199.856L152.848 200.45V200.441ZM61.6782 200.171L61.0852 199.532C61.7742 198.894 62.6114 198.414 63.5009 198.143L63.7538 198.982C62.9864 199.218 62.2713 199.629 61.6782 200.179V200.171ZM149.246 198.763L148.853 198.746L148.792 198.353C148.749 197.522 148.566 196.709 148.26 195.94L149.071 195.617C149.42 196.473 149.621 197.382 149.664 198.3L149.272 198.326V198.562L149.246 198.772V198.763ZM76.6871 198.746H74.0708V197.872H76.6871V198.746ZM72.3266 198.746H69.7103V197.872H72.3266V198.746ZM67.9661 198.746H65.3498V197.872H67.9661V198.746ZM78.1348 197.566L77.2714 197.426C77.4196 196.517 77.7074 195.634 78.1435 194.813L78.9109 195.223C78.5272 195.958 78.2568 196.744 78.126 197.566H78.1348ZM147.484 194.481C147.013 193.799 146.446 193.196 145.784 192.689L146.316 191.99C147.048 192.549 147.685 193.222 148.208 193.982L147.484 194.472V194.481ZM79.8441 193.86L79.1813 193.301C79.7743 192.593 80.4807 191.99 81.2656 191.509L81.7191 192.252C81.0127 192.68 80.3848 193.222 79.8528 193.86H79.8441ZM144.379 191.841C143.629 191.491 142.827 191.273 142.007 191.185L142.103 190.32C143.019 190.416 143.909 190.661 144.754 191.054L144.388 191.85L144.379 191.841ZM83.2017 191.553L82.9226 190.722C83.7947 190.425 84.7017 190.268 85.6348 190.268V191.142C84.8063 191.142 83.9865 191.282 83.2104 191.553H83.2017ZM94.7134 191.142H91.7308V190.268H94.1116V190.46L94.4605 190.355L94.7134 191.142V191.142ZM89.9866 191.142H87.3703V190.268H89.9866V191.142ZM140.847 190.748L140.019 190.486C140.254 189.743 140.377 188.974 140.377 188.205V188.048L141.249 188.03V188.205C141.249 189.062 141.118 189.918 140.856 190.757L140.847 190.748ZM93.2918 188.791C93.2744 188.59 93.2744 188.397 93.2744 188.196C93.2744 187.471 93.3703 186.745 93.5535 186.046L94.3994 186.265C94.2337 186.894 94.1552 187.541 94.1552 188.188C94.1552 188.371 94.1552 188.546 94.1727 188.721L93.3006 188.782L93.2918 188.791ZM140.158 186.404C139.967 185.6 139.635 184.84 139.199 184.132L139.932 183.66C140.429 184.447 140.786 185.294 141.004 186.195L140.158 186.404V186.404ZM94.975 184.735L94.1988 184.333C94.6174 183.511 95.1669 182.769 95.8297 182.122L96.4401 182.742C95.8471 183.328 95.35 183.992 94.975 184.726V184.735ZM138.161 182.847C137.577 182.253 136.906 181.763 136.173 181.388L136.565 180.61C137.385 181.029 138.135 181.571 138.781 182.235L138.161 182.847V182.847ZM97.7308 181.728L97.2686 180.985C98.0535 180.496 98.9082 180.138 99.7977 179.919L99.9983 180.767C99.196 180.959 98.4285 181.283 97.7308 181.72V181.728ZM134.638 180.802C134.028 180.645 133.391 180.566 132.754 180.566H132.153V179.692H132.754C133.469 179.692 134.176 179.779 134.856 179.954L134.638 180.802ZM101.629 180.566V179.692H104.245V180.566H101.629ZM130.408 180.566H127.792V179.692H130.408V180.566ZM126.048 180.566H123.432V179.692H126.048V180.566ZM121.687 180.566H119.071V179.692H121.687V180.566ZM117.327 180.566H114.711V179.692H117.327V180.566ZM112.966 180.566H110.35V179.692H112.966V180.566ZM108.606 180.566H105.99V179.692H108.606V180.566Z" fill="#E6E7E8"/>
<path d="M413.125 186.623H410.509V185.749H413.125V186.623ZM408.765 186.623H406.149V185.749H408.765V186.623ZM404.404 186.623H401.788V185.749H404.404V186.623ZM400.044 186.623H397.428V185.749H400.044V186.623ZM395.683 186.623H393.067V185.749H395.683V186.623ZM391.323 186.623H388.707V185.749H391.323V186.623ZM386.962 186.623H384.346V185.749H386.962V186.623ZM382.602 186.623H379.986V185.749H382.602V186.623ZM378.241 186.623H375.625V185.749H378.241V186.623ZM373.881 186.623H371.265V185.749H373.881V186.623ZM369.52 186.623H366.904V185.749H369.52V186.623ZM365.16 186.623H362.544V185.749H365.16V186.623ZM360.799 186.623H358.183V185.749H360.799V186.623ZM356.439 186.623H353.823V185.749H356.439V186.623ZM352.078 186.623H349.462V185.749H352.078V186.623ZM347.718 186.623H345.102V185.749H347.718V186.623ZM343.357 186.623H340.741V185.749H343.357V186.623ZM414.896 186.623L414.835 185.749C415.585 185.697 416.265 185.303 416.701 184.674L417.416 185.172C416.832 186.02 415.916 186.553 414.896 186.623ZM338.945 186.606C337.933 186.492 337.035 185.924 336.494 185.041L337.235 184.578C337.636 185.216 338.308 185.653 339.049 185.732L338.953 186.597L338.945 186.606ZM417.957 183.477L417.573 183.284H417.137C417.137 182.524 416.797 181.825 416.204 181.344L416.745 180.662C417.547 181.3 418.009 182.262 418.009 183.284V183.389L417.966 183.485L417.957 183.477ZM336.852 183.171L335.979 183.136C336.023 182.113 336.529 181.178 337.357 180.575L337.872 181.283C337.253 181.729 336.878 182.419 336.852 183.179V183.171ZM414.835 180.811C414.774 180.811 414.721 180.811 414.66 180.811H412.044V179.937H414.66C414.739 179.937 414.817 179.937 414.896 179.937L414.835 180.811ZM410.3 180.811H407.684V179.937H410.3V180.811ZM405.939 180.811H403.681L404.387 180.068C404.675 179.762 404.91 179.421 405.093 179.054L405.878 179.439C405.791 179.613 405.704 179.779 405.599 179.937H405.939V180.811ZM367.741 180.811H365.413V179.937H367.741V179.998L367.881 179.876C367.933 179.946 367.994 180.007 368.055 180.068L368.77 180.811H367.741ZM363.669 180.811H361.052V179.937H363.669V180.811ZM359.308 180.811H356.692V179.937H359.308V180.811ZM354.948 180.811H352.331V179.937H354.948V180.811ZM350.587 180.811H347.971V179.937H350.587V180.811ZM346.227 180.811H343.61V179.937H346.227V180.811ZM341.866 180.811H339.328L339.25 179.937H341.875V180.811H341.866ZM366.302 178.766C366.163 178.32 366.093 177.857 366.093 177.385C366.093 176.886 366.172 176.388 366.329 175.916L367.157 176.187C367.035 176.572 366.965 176.974 366.965 177.385C366.965 177.769 367.018 178.145 367.131 178.503L366.294 178.757L366.302 178.766ZM406.349 177.586L405.477 177.551V177.393C405.477 176.65 405.268 175.934 404.875 175.304L405.608 174.832C406.096 175.593 406.349 176.476 406.349 177.385C406.349 177.446 406.349 177.516 406.349 177.577V177.586ZM367.925 174.832L367.27 174.256C367.916 173.521 368.744 173.006 369.686 172.761L369.904 173.609C369.137 173.801 368.456 174.229 367.933 174.832H367.925ZM403.794 174.177C403.14 173.722 402.381 173.486 401.596 173.486V172.612C402.564 172.612 403.497 172.901 404.291 173.46L403.794 174.177ZM399.835 173.486H399.207L399.163 173.102C399.085 172.385 398.832 171.677 398.431 171.065L399.163 170.593C399.634 171.319 399.931 172.158 400.027 173.006L399.826 173.032V173.495L399.835 173.486ZM377.422 173.486H375.887V172.612H376.663C376.733 172.219 376.855 171.834 377.003 171.467L377.805 171.808C377.631 172.219 377.518 172.656 377.465 173.102L377.422 173.486V173.486ZM374.143 173.486H371.526V172.612H374.143V173.486ZM378.66 170.453L378.015 169.868C378.651 169.16 379.454 168.618 380.343 168.303L380.64 169.125C379.89 169.396 379.209 169.85 378.669 170.453H378.66ZM397.367 169.877C396.739 169.378 395.989 169.046 395.195 168.915L395.335 168.05C396.268 168.207 397.149 168.601 397.899 169.186L397.358 169.877H397.367ZM393.529 168.854H390.913V167.98H393.529V168.854ZM389.169 168.854H386.553V167.98H389.169V168.854ZM384.808 168.854H382.218L382.192 167.98H384.808V168.854Z" fill="#E6E7E8"/>
<path d="M402.346 193.764H392.387C393.128 192.986 393.599 191.937 393.599 190.775C393.599 188.389 391.654 186.439 389.274 186.439H387.285C386.989 183.844 384.774 181.807 382.105 181.807H369.896C367.227 181.807 365.012 183.844 364.715 186.439H358.541C356.16 186.439 354.215 188.389 354.215 190.775C354.215 191.928 354.677 192.986 355.427 193.764H327.014C325.419 193.764 324.11 195.075 324.11 196.674C324.11 198.274 325.419 199.585 327.014 199.585H402.355C403.951 199.585 405.259 198.274 405.259 196.674C405.259 195.075 403.951 193.764 402.355 193.764H402.346Z" fill="#E6E7E8"/>
<path d="M414.189 307.598L414.337 310.352H412.828V309.233L405.337 303.892L412.828 308.429L412.968 304.478L411.032 302.162L412.968 303.726L413.578 296.778L414.136 306.681L421.828 302.643L414.189 307.598Z" fill="#0F7292"/>
<path d="M427.584 303.893C427.584 306.226 427.017 308.42 426.014 310.352H414.346L414.189 307.598L421.828 302.651L414.136 306.689L413.587 296.787L412.968 303.735L411.032 302.179L412.968 304.496L412.828 308.446L405.337 303.901L412.828 309.242V310.36H401.16C400.157 308.429 399.59 306.226 399.59 303.901C399.59 296.157 405.86 289.873 413.587 289.873C421.314 289.873 427.584 296.157 427.584 303.901V303.893Z" fill="#B9EDE3"/>
<path d="M113.071 298.229L113.175 300.082H112.164V299.33L107.123 295.738L112.164 298.788L112.251 296.131L110.952 294.576L112.251 295.624L112.67 290.957L113.045 297.617L118.216 294.899L113.071 298.229Z" fill="#0F7292"/>
<path d="M122.08 295.738C122.08 297.302 121.696 298.779 121.024 300.082H113.175L113.071 298.229L118.207 294.899L113.036 297.608L112.661 290.948L112.242 295.615L110.943 294.567L112.242 296.122L112.146 298.779L107.114 295.72L112.146 299.313V300.064H104.297C103.626 298.762 103.242 297.285 103.242 295.72C103.242 290.511 107.454 286.29 112.652 286.29C117.85 286.29 122.062 290.511 122.062 295.72L122.08 295.738Z" fill="#B9EDE3"/>
<path d="M250.025 298.229L250.13 300.082H249.109V299.33L244.077 295.738L249.109 298.788L249.205 296.131L247.906 294.576L249.205 295.624L249.624 290.957L249.99 297.617L255.162 294.899L250.025 298.229Z" fill="#0F7292"/>
<path d="M259.034 295.738C259.034 297.302 258.65 298.779 257.978 300.082H250.13L250.025 298.229L255.162 294.899L249.99 297.608L249.615 290.948L249.196 295.615L247.897 294.567L249.196 296.122L249.1 298.779L244.068 295.72L249.1 299.313V300.064H241.252C240.58 298.762 240.196 297.285 240.196 295.72C240.196 290.511 244.409 286.29 249.606 286.29C254.804 286.29 259.016 290.511 259.016 295.72L259.034 295.738Z" fill="#B9EDE3"/>
<path d="M272.961 332.412L273.301 338.487H269.961V336.022L253.426 324.223L269.961 334.256L270.266 325.534L266.001 320.42L270.266 323.855L271.627 308.516L272.847 330.384L289.836 321.478L272.961 332.412Z" fill="#0F7292"/>
<path d="M302.534 324.222C302.534 329.362 301.287 334.221 299.072 338.487H273.301L272.961 332.412L289.828 321.478L272.848 330.393L271.627 308.525L270.266 323.864L266.002 320.429L270.266 325.542L269.961 334.265L253.426 324.231L269.961 336.031V338.495H244.191C241.976 334.23 240.72 329.379 240.72 324.231C240.72 307.126 254.56 293.255 271.636 293.255C288.711 293.255 302.543 307.126 302.543 324.231L302.534 324.222Z" fill="#7FD6C5"/>
<path d="M386.518 333.409L386.84 339.282H383.614V336.896L367.637 325.499L383.614 335.192L383.91 326.766L379.785 321.819L383.91 325.141L385.227 310.326L386.404 331.46L402.817 322.842L386.518 333.409Z" fill="#0F7292"/>
<path d="M415.096 325.499C415.096 330.472 413.893 335.157 411.747 339.282H386.84L386.518 333.409L402.817 322.842L386.404 331.451L385.227 310.317L383.91 325.14L379.785 321.819L383.91 326.757L383.613 335.192L367.637 325.499L383.613 336.896V339.282H358.706C356.561 335.157 355.357 330.472 355.357 325.499C355.357 308.962 368.735 295.563 385.227 295.563C401.718 295.563 415.096 308.962 415.096 325.499V325.499Z" fill="#7FD6C5"/>
<path d="M65.8468 332.107L66.091 336.381H63.7364V334.641L52.1025 326.347L63.7364 333.409L63.9544 327.264L60.9544 323.672L63.9544 326.084L64.9137 315.299L65.7683 330.682L77.7161 324.415L65.8468 332.107Z" fill="#0F7292"/>
<path d="M86.6547 326.347C86.6547 329.965 85.7739 333.374 84.2128 336.381H66.0906L65.8551 332.107L77.7244 324.415L65.7766 330.682L64.922 315.299L63.9627 326.085L60.9626 323.663L63.9627 327.256L63.7446 333.391L52.1108 326.329L63.7446 334.624V336.363H45.605C44.0439 333.356 43.1631 329.948 43.1631 326.329C43.1631 314.294 52.9044 304.54 64.9133 304.54C76.9221 304.54 86.6547 314.294 86.6547 326.329V326.347Z" fill="#B9EDE3"/>
<path d="M96.7883 334.545L97.1197 340.418H93.8929V338.032L77.916 326.635L93.8929 336.328L94.1894 327.893L90.0644 322.955L94.1894 326.276L95.5063 311.461L96.6836 332.587L113.097 323.978L96.7883 334.545Z" fill="#0F7292"/>
<path d="M125.376 326.635C125.376 331.608 124.172 336.293 122.027 340.418H97.1195L96.7968 334.545L113.096 323.978L96.6835 332.587L95.5061 311.453L94.1893 326.277L90.0642 322.955L94.1893 327.894L93.8927 336.328L77.9159 326.635L93.8927 338.032V340.418H68.9856C66.8402 336.293 65.6367 331.608 65.6367 326.635C65.6367 310.098 79.0147 296.699 95.5061 296.699C111.998 296.699 125.376 310.098 125.376 326.635Z" fill="#7FD6C5"/>
<path d="M387.424 281.168C388.183 281.412 388.907 281.5 389.587 281.482C391.427 283.283 390.852 285.651 389.203 287.836C388.506 288.763 387.433 288.772 386.142 288.282C384.389 287.635 382.253 286.071 380.194 284.664C376.636 282.243 369.424 274.341 369.424 274.341C363.162 273.118 364.34 266.711 365.979 266.51C367.61 266.326 369.302 270.347 369.302 270.347C369.302 270.347 369.625 267.323 370.444 267.384C371.273 267.436 370.488 270.146 371.883 272.567C373.279 274.988 384.241 280.11 387.424 281.15V281.168Z" fill="#E8C8A1"/>
<path d="M157.277 220.554H124.417C118.391 220.554 113.498 225.448 113.498 231.497V334.353C113.498 340.393 118.382 345.296 124.417 345.296H227.045C233.072 345.296 237.964 340.401 237.964 334.353V301.437C248.159 301.437 256.435 293.142 256.435 282.925C256.435 272.707 248.159 264.413 237.964 264.413V231.497C237.964 225.457 233.08 220.554 227.045 220.554H194.193C194.036 230.623 185.821 238.742 175.74 238.742C165.658 238.742 157.443 230.623 157.286 220.554H157.277Z" fill="#E50064"/>
<path d="M334.131 196.019L366.154 203.344C372.032 204.69 377.884 201.001 379.227 195.11L386.535 163.016C396.477 165.288 406.384 159.065 408.652 149.092C410.919 139.128 404.692 129.199 394.759 126.927L402.067 94.8499C403.41 88.9589 399.73 83.0941 393.852 81.7481L361.82 74.415C361.855 74.3101 361.881 74.2052 361.907 74.0916C364.175 64.1276 357.965 54.1985 348.015 51.9261C338.073 49.6536 328.166 55.8942 325.898 65.8494C325.872 65.9543 325.846 66.0679 325.837 66.1728L293.814 58.8484C287.936 57.5024 282.084 61.1908 280.741 67.0818L273.433 99.1589C283.375 101.431 289.601 111.36 287.325 121.324C285.049 131.297 275.151 137.529 265.209 135.248L257.9 167.342C256.557 173.233 260.238 179.098 266.116 180.444L298.122 187.768C300.389 177.804 310.296 171.564 320.238 173.845C330.189 176.126 336.407 186.047 334.131 196.011V196.019Z" fill="#CA951E"/>
<path d="M99.6581 174.44L111.222 205.249C113.341 210.904 119.638 213.762 125.28 211.638L156.022 200.049C159.606 209.611 170.255 214.462 179.813 210.861C189.354 207.268 194.185 196.579 190.601 187.017L221.333 175.436C226.976 173.312 229.828 167.002 227.709 161.347L216.144 130.528C216.249 130.502 216.354 130.458 216.458 130.423C225.999 126.831 230.839 116.159 227.246 106.58C223.662 97.0176 212.996 92.1755 203.455 95.7677C203.351 95.8027 203.246 95.8464 203.15 95.8988L191.586 65.0891C189.467 59.4341 183.17 56.576 177.528 58.6999L146.795 70.2809C150.379 79.8428 145.548 90.5235 136.007 94.1246C126.449 97.7256 115.809 92.8747 112.216 83.3127L81.4748 94.9024C75.8323 97.0263 72.9806 103.337 75.0998 108.992L86.6551 139.793C96.1958 136.201 106.853 141.043 110.446 150.605C114.039 160.184 109.199 170.847 99.6581 174.448V174.44Z" fill="#4A3D98"/>
<path d="M299.674 221.882H290.525C290.525 221.882 290.831 220.318 291.162 218.465C291.336 217.984 295.409 218.255 295.409 218.255L299.674 221.882Z" fill="#26363D"/>
<path d="M280.295 202.207C275.787 202.653 272.342 202.207 272.342 202.207C272.342 202.47 272.342 202.723 272.351 202.985C272.403 204.602 272.909 206.193 273.79 207.539C274.592 208.745 275.438 210.467 275.246 212.005C274.941 214.453 273.423 215.904 267.973 212.879L268.112 217.809C268.112 217.809 275.665 222.494 279.327 220.44C282.929 218.438 282.981 214.767 282.877 207.836L280.295 202.199V202.207Z" fill="#3A4D57"/>
<path d="M270.38 177.839C270.389 178.04 268.723 180.628 271.086 183.25C261.31 184.814 261.467 178.04 261.467 178.04C263.202 178.469 266.124 178.74 270.014 177.927C270.136 177.901 270.258 177.874 270.38 177.839Z" fill="#EED7BA"/>
<path d="M315.616 173.391C315.834 173.906 314.081 176.048 310.775 176.327C310.775 176.327 306.389 186.064 302.857 186.702C300.834 187.087 298.374 186.938 296.02 186.405C298.618 183.582 297.99 180.872 297.99 180.872C299.22 181.301 300.432 181.528 301.366 181.301C303.72 180.732 307.008 175.873 307.932 174.824C308.857 173.775 311.482 171.249 312.145 171.616C312.807 171.975 310.418 173.688 310.749 174.02C311.081 174.352 315.38 172.866 315.616 173.373V173.391Z" fill="#EED7BA"/>
<path d="M296.805 168.863C296.378 170.751 295.244 175.454 292.793 175.593C291.45 175.663 289.959 175.156 289.959 175.156C289.959 175.156 289.549 175.655 288.982 176.52C287.22 175.689 284.796 174.632 283.959 174.37C283.872 174.343 283.784 174.317 283.688 174.309C284.308 173.4 284.822 172.727 285.668 171.11C285.965 171.433 287.255 172.727 288.834 172.858C290.212 172.971 291.284 172.045 291.284 171.678C291.284 170.952 291.808 169.536 292.968 169.563C294.11 169.589 293.447 171.695 293.447 171.8C293.447 171.914 294.25 171.8 294.25 171.8C294.843 169.886 295.689 169.187 296.796 168.863H296.805Z" fill="#EED7BA"/>
<path d="M219.607 137.826C219.816 139.155 219.912 147.519 213.859 157.081C213.859 157.081 220.888 174.841 220.775 178.757C220.775 178.757 220.566 178.914 220.173 179.203C218.011 180.732 210.275 185.618 202.112 184.316L198.249 165.813L177.955 167.762L176.821 165.393C177.083 165.306 193.679 158.462 201.877 154.258C203.412 153.471 204.676 152.763 205.444 152.23C205.618 152.108 205.792 151.985 205.958 151.863C210.659 148.542 214.662 144.434 216.929 136.803C216.929 136.803 219.388 136.497 219.598 137.826H219.607Z" fill="#FA8B65"/>
<path d="M173.49 164.178C174.083 163.732 176.821 165.384 176.821 165.384L177.955 167.753C175.653 169.116 174.667 169.361 172.67 169.448C170.664 169.518 170.019 168.67 170.211 167.534C170.385 166.415 174.519 165.629 174.519 165.629C173.682 165.061 172.906 164.615 173.499 164.178H173.49Z" fill="#EED7BA"/>
<path d="M217.008 131.996C217.426 131.944 217.958 133.98 217.958 133.98C217.958 133.98 218.534 132.162 219.101 132.748C219.676 133.316 221.22 136.183 219.607 137.835C219.397 136.506 216.938 136.812 216.938 136.812C216.877 136.602 216.153 132.337 217.008 132.005V131.996Z" fill="#EED7BA"/>
<path d="M200.743 146.636C201.903 147.047 201.703 148.585 201.99 149.066C202.269 149.556 202.06 150.596 204.833 150.028C204.833 150.167 205.906 151.706 205.967 151.854C205.793 151.977 205.618 152.099 205.453 152.221C204.676 152.755 203.421 153.454 201.886 154.249C200.926 152.195 200.298 152.055 200.298 152.055C200.298 152.055 198.45 152.711 197.333 151.959C196.461 151.374 195.938 149.704 195.781 148.848C195.423 146.925 195.781 144.46 195.781 144.46C195.903 144.495 196.025 144.547 196.139 144.574C198.022 145.063 198.65 147.484 198.659 148.437H199.217C199.217 148.437 198.345 145.369 200.752 146.636H200.743Z" fill="#EED7BA"/>
<path d="M204.197 216.489V220.545C203.621 220.667 194.656 220.545 194.656 220.545L200.15 216.384L204.206 216.48L204.197 216.489Z" fill="#26363D"/>
<path d="M223.898 215.763C223.898 215.763 219.485 220.903 215.752 220.606C215.63 220.702 218.875 215.422 219.023 214.627L222.25 212.556L223.898 215.763V215.763Z" fill="#26363D"/>
<path d="M202.103 184.307C210.266 185.618 218.002 180.732 220.165 179.194C221.97 183.844 220.444 190.172 219.694 195.023C218.508 202.705 222.519 213.028 222.519 213.028L219.022 214.627C219.048 214.487 219.057 214.409 219.057 214.409C219.057 214.409 214.13 206.927 212.665 201.761C211.199 196.587 211.67 187.654 211.67 187.654C206.281 196.439 204.196 216.498 204.196 216.498L200.141 216.401C200.141 216.401 199.478 206.315 199.635 197.627C199.784 188.939 202.095 184.316 202.095 184.316L202.103 184.307Z" fill="#3A4D57"/>
<path d="M201.196 149.092C200.917 148.611 201.44 146.741 200.516 146.557C198.99 145.849 199.208 148.437 199.208 148.437H198.65C198.641 147.484 198.013 145.072 196.129 144.573C196.016 144.547 195.894 144.503 195.772 144.46C193.897 143.769 191.315 141.453 192.981 141.2C194.751 140.937 199.914 139.705 202.6 141.383C205.086 142.921 204.868 148.34 204.842 150.019C202.068 150.587 201.493 149.573 201.205 149.083L201.196 149.092Z" fill="#845E40"/>
<path d="M85.1285 300.484L80.9512 298.089L76.3203 304.548L77.0703 307.45C91.8175 319.861 88.2942 340.777 88.2942 340.777H93.71C93.71 340.777 95.9949 336.127 95.2449 322.632C94.4687 308.665 85.1285 300.475 85.1285 300.475V300.484Z" fill="#3A4D57"/>
<path d="M58.3028 340.698L61.8174 344.343C62.1226 344.657 61.8523 345.173 61.4249 345.112L52.0586 343.801L53.9074 340.471" fill="#26363D"/>
<path d="M88.7823 340.785L88.1719 344.788H96.9016C97.3725 344.788 97.5731 344.194 97.2068 343.905L93.1952 340.785" fill="#26363D"/>
<path d="M66.3003 299.208C65.9166 302.223 64.1811 311.418 61.3817 319.852C57.8846 330.367 53.2275 340.139 53.2275 340.453L59.088 341.214C59.088 341.214 64.7044 332.893 68.7422 326.137C72.7626 319.38 77.0707 307.458 77.0707 307.458C77.0707 307.458 81.3179 304.985 81.3964 300.484C81.4661 295.982 74.5678 296.996 74.5678 296.996L66.309 299.208H66.3003Z" fill="#3A4D57"/>
<path d="M91.8179 282.033C91.1987 281.771 90.5969 281.517 90.0301 281.246C89.751 277.864 88.7394 274.534 86.751 272.838C87.4051 273.292 90.0214 275.032 92.2452 275.399C92.5156 275.443 92.9342 275.521 93.4574 275.609C93.501 275.617 93.8935 280.975 91.8702 281.884L91.8179 282.033V282.033Z" fill="#049B9B"/>
<path d="M86.5933 272.715C86.6456 272.75 86.698 272.794 86.7503 272.838C89.1573 274.769 89.6369 277.933 89.7067 280.835C89.8288 286.193 88.5294 291.149 86.7503 296.157C86.3753 297.206 85.9916 298.255 85.5991 299.295C85.5468 299.443 85.2939 300.44 85.1369 300.492C78.7531 302.686 68.4885 299.863 66.3083 299.216C66.0379 299.129 65.8896 299.085 65.8896 299.085C65.8896 299.085 66.2385 293.535 69.9624 283.737C73.6862 273.948 80.9247 270.565 81.134 270.355C81.134 270.355 83.7503 273.554 85.3985 272.348C85.3985 272.348 85.4072 272.243 85.4421 272.086L85.634 272.121C85.9828 272.278 86.2968 272.479 86.602 272.715H86.5933Z" fill="#00ACB3"/>
<path d="M87.6924 265.461C87.6924 265.461 87.3436 263.739 86.4628 263.739C85.5819 263.739 84.3523 264.369 85.8697 266.125C85.8697 266.125 85.0936 267.769 82.0674 267.873C82.329 267.043 82.5383 266.134 82.5645 265.391C82.5994 263.451 82.3813 259.046 85.5558 258.137C88.7128 257.228 90.6488 257.953 92.0529 259.046C93.457 260.138 94.7128 260.558 95.4628 260.601C95.4628 260.601 94.2855 262.393 92.7419 262.874C92.3233 262.996 91.8959 263.04 91.4512 262.918C89.3494 262.358 88.8872 262.612 88.2942 264.036L87.7011 265.452L87.6924 265.461Z" fill="#845E40"/>
<path d="M113.515 279.988C113.515 280.136 103.469 283.965 96.4308 283.764C95.175 283.335 93.9366 282.881 92.7418 282.4C92.4279 282.278 92.1226 282.155 91.8174 282.024L91.8697 281.876C93.893 280.967 93.5005 275.609 93.4569 275.6C97.957 276.43 110.698 278.834 113.515 277.444V279.979V279.988Z" fill="#E5CBAE"/>
<path d="M86.4632 263.731C87.344 263.731 87.6928 265.452 87.6928 265.452L88.2858 264.037C88.8789 262.621 89.3411 262.358 91.4428 262.918C91.8963 263.04 92.3237 262.996 92.7336 262.874C92.7423 263.425 92.6463 264.911 91.5649 267.55C90.1609 271.011 87.3701 270.233 86.5068 270.347C85.844 270.434 85.5387 271.579 85.4254 272.086C85.3905 272.244 85.3818 272.349 85.3818 272.349C83.7422 273.555 81.1172 270.356 81.1172 270.356C81.1172 270.356 81.6492 269.211 82.0591 267.874C85.0852 267.769 85.8614 266.125 85.8614 266.125C84.344 264.369 85.5823 263.739 86.4544 263.739L86.4632 263.731Z" fill="#EED7BA"/>
<path d="M92.5151 279.078C92.2099 278.93 91.9221 278.772 91.6343 278.624C91.0413 278.309 90.457 277.995 89.925 277.68C87.9802 276.552 86.3755 275.407 85.3726 274.315C84.5528 273.415 83.5325 272.724 82.3377 272.523C80.9947 272.296 79.39 272.541 78.3784 274.481C76.3813 278.318 78.1865 281.255 81.9104 282.776C83.3493 283.361 85.6517 284.209 88.329 285.092C88.8 285.249 89.2796 285.406 89.7767 285.555C89.9163 279.856 92.5151 279.087 92.5151 279.087V279.078Z" fill="#0ABFBF"/>
<path d="M110.35 285.914C112.225 286.036 113.769 283.021 113.769 284.017C113.769 284.891 113.219 285.887 113.08 286.115C113.437 285.686 116.568 281.911 117.467 284.209C118.417 286.648 114.091 289.322 113.882 289.541C113.673 289.759 108.17 289.261 101.716 288.44C98.1757 287.994 93.7192 286.796 89.7773 285.555C89.9169 279.857 92.5157 279.087 92.5157 279.087C93.6582 279.682 94.853 280.241 96.0652 280.774C102.475 283.641 109.321 285.844 110.35 285.922V285.914Z" fill="#EED7BA"/>
<path d="M253 302.21V335.077C253 341.105 257.865 346 263.878 346H366.122C372.126 346 377 341.114 377 335.077V232.403C377 226.374 372.135 221.479 366.122 221.479H333.402C333.402 211.28 325.157 203 315 203C304.843 203 296.598 211.28 296.598 221.479H263.878C257.874 221.479 253 226.365 253 232.403V265.278C263.009 265.435 271.08 273.654 271.08 283.74C271.08 293.826 263.009 302.044 253 302.201V302.21Z" fill="#006B65"/>
<path d="M278.665 202.33C278.665 202.33 278.613 207.443 282.877 208.396C286.802 209.27 293.63 208.396 293.63 208.396C293.63 208.396 291.651 212.976 290.839 218.631C290.839 218.631 293.159 218.875 295.601 218.36C295.601 218.36 300.345 209.663 300.494 205.441C300.642 201.22 290.578 199.48 290.578 199.48L278.656 202.33H278.665Z" fill="#3A4D57"/>
<path d="M288.275 176.188C290.072 177.027 291.929 177.936 292.958 178.495C294.162 179.151 296.194 180.06 298.06 180.698C298.06 180.698 298.618 183.932 296.019 186.764C294.223 186.353 292.435 185.837 291.11 185.522C291.11 185.522 290.726 193.913 290.595 199.481C282.345 203.493 271.679 202.549 271.679 202.549C271.609 194.306 274.234 183.128 274.234 183.128C273.188 183.267 271.984 183.425 271.278 183.425C268.505 180.811 270.406 178.041 270.397 177.84C275.194 175.724 276.537 174.221 278.682 173.968C280.139 173.793 281.909 173.968 283.714 174.309C283.81 174.317 283.897 174.343 283.984 174.37C284.822 174.632 286.531 175.357 288.293 176.188H288.275Z" fill="#00ACB3"/>
<path d="M268.068 213.002C266.568 212.635 265.478 212.748 265.313 212.775C265.147 212.801 265.138 217.486 265.191 218.875C265.234 220.073 265.888 221.165 267.571 221.532C267.92 221.611 268.191 221.235 268.042 220.903C267.685 220.134 267.345 218.875 268.121 217.652L268.077 213.002H268.068Z" fill="#26363D"/>
<path d="M378.852 272.15C378.852 272.15 378.529 274.361 379 275.987C379.48 277.621 379.855 277.997 380.178 278.093C380.5 278.189 381.582 278.19 381.582 278.19L382.611 280.803L385.994 277.586L383.465 271.014L378.861 272.141L378.852 272.15Z" fill="#EED7BA"/>
<path d="M375.024 342.483C374.692 344.363 374.561 345.674 374.561 345.674H366.276L369.616 343.034C369.616 343.034 371.683 344.223 375.015 342.492H375.024V342.483Z" fill="#0F7292"/>
<path d="M390.878 343.287C390.878 343.287 392.998 344.31 395.762 342.483C395.91 342.763 396.66 344.826 396.687 345.018C396.722 345.237 396.608 345.307 396.434 345.368C396.399 345.376 396.364 345.394 396.329 345.403C395.745 345.586 390.067 345.779 388.803 345.84C388.611 345.848 388.41 345.857 388.219 345.857C388.123 345.857 388.018 345.857 387.913 345.857C387.826 345.857 387.739 345.875 387.66 345.831C387.591 345.796 387.626 345.752 387.66 345.682C387.721 345.551 387.835 345.464 387.939 345.368C388.219 345.114 388.541 344.913 388.855 344.695C389.169 344.476 389.483 344.258 389.797 344.039C390.155 343.786 390.521 343.532 390.887 343.279L390.878 343.287Z" fill="#0F7292"/>
<path d="M377.169 288.879C378.538 289.036 379.576 288.765 380.029 287.699C381.093 285.182 381.085 282.743 378.861 281.45C379.733 281.222 380.457 280.847 381.006 280.497C381.808 279.999 382.253 279.518 382.253 279.518C382.018 280.584 381.643 281.59 381.686 282.07C381.774 282.918 383.012 282.831 383.239 283.582C383.474 284.343 382.585 285.287 382.907 286.327C383.239 287.367 384.041 288.223 387.904 288.503C390.73 288.704 392.762 286.79 393.835 284.893C395.056 286.72 395.71 289.954 396.093 293.144C396.564 297.034 396.617 300.879 396.713 302.147C393.808 308.702 378.555 304.061 378.555 304.061C379.244 298.179 377.151 288.914 377.151 288.914V288.87L377.169 288.879Z" fill="#F79663"/>
<path d="M385.227 318.316C385.227 318.316 383.099 321.148 379.611 329.198C377.526 334.014 375.59 339.188 375.023 342.483H375.015C371.692 344.214 369.608 343.043 369.616 343.025L371.299 341.697C371.299 341.697 371.212 334.04 376.855 316.28C378.459 316.857 381.608 318.273 385.227 318.308V318.316Z" fill="#EED7BA"/>
<path d="M395.771 342.484H395.762C392.998 344.31 390.887 343.288 390.887 343.288L392.056 342.458C392.056 342.458 386.282 337.231 386.187 318.308C389.03 318.238 391.977 317.784 394.367 316.621C394.245 316.674 390.521 332.843 395.78 342.484H395.771Z" fill="#EED7BA"/>
<path d="M376.689 281.66C377.483 281.712 378.207 281.625 378.861 281.441C381.076 282.743 381.468 284.963 380.029 287.699C379.489 288.722 378.538 289.036 377.169 288.879C375.311 288.678 372.861 287.673 370.532 286.816C366.494 285.331 357.59 279.413 357.59 279.413C351.145 277.045 352.611 273.094 353.125 272.657C354.049 271.879 356.509 275.568 356.509 275.568C356.509 275.568 355.776 273.461 356.596 273.321C357.407 273.173 357.154 274.807 359.09 276.826C361.026 278.845 373.366 281.415 376.707 281.651L376.689 281.66Z" fill="#EED7BA"/>
<path d="M378.582 272.299C378.434 272.299 378.285 272.264 378.128 272.176C377.405 271.783 378.015 270.603 378.015 270.603C378.015 270.603 379.349 265.298 385.175 265.874C389.509 266.303 387.87 271.407 390.033 272.543C392.204 273.68 393.338 275.183 392.117 278.111C392.117 278.111 393.024 278.898 393.756 279.955C394.393 280.847 394.899 281.939 394.663 282.927C394.524 283.512 394.254 284.212 393.852 284.902C392.78 286.799 390.756 288.713 387.922 288.512C384.05 288.232 383.248 287.376 382.925 286.336C382.594 285.295 383.492 284.352 383.256 283.591C383.03 282.839 381.8 282.936 381.704 282.079C381.556 280.707 382.611 279.378 382.044 277.98C381.896 277.604 381.617 277.298 381.381 276.983C380.719 276.101 381.067 275.279 380.876 274.283C380.771 273.723 380.518 273.138 380.152 272.692C379.681 272.133 379.245 272.299 378.591 272.299H378.582Z" fill="#845E40"/>
<path d="M378.573 304.07C378.573 304.07 390.041 308.257 396.73 302.156C396.922 304.472 395.527 317.041 395.527 317.041C393.233 318.011 390.364 318.815 385.602 318.491C377.396 317.932 376.724 316.184 375.407 315.651L378.573 304.07V304.07Z" fill="#0F7292"/>
<path d="M296.116 164.939C296.203 164.947 296.29 164.965 296.377 164.973C297.18 165.07 298.802 165.166 299.203 166.066C299.412 166.529 299.334 167.194 299.151 167.639C298.863 168.347 298.296 168.557 297.59 168.688C296.778 168.837 295.967 169.09 295.383 169.702C294.825 170.288 294.502 171.048 294.267 171.808C294.267 171.808 293.465 171.922 293.465 171.808C293.465 171.712 294.127 169.597 292.985 169.571C291.825 169.545 291.642 171.048 291.642 171.773C291.642 172.141 290.22 172.98 288.842 172.866C287.264 172.726 285.703 171.913 285.415 171.599C285.555 171.328 285.956 170.559 286.078 170.261C286.95 168.146 287.534 164.309 290.29 163.907C290.883 163.82 291.485 163.881 292.078 163.995C293.438 164.248 294.746 164.738 296.116 164.939Z" fill="#845E40"/>
</g>
<path d="M479 345H43V346H479V345Z" fill="#1B1B43"/>
<defs>
<clipPath id="clip0_1271_2137">
<rect width="499" height="345" fill="white"/>
</clipPath>
<clipPath id="clip1_1271_2137">
<rect width="384.422" height="307.31" fill="white" transform="translate(43.1631 39.6895)"/>
</clipPath>
</defs>
</svg>
