<svg width="506" height="440" viewBox="0 0 506 440" fill="none" xmlns="http://www.w3.org/2000/svg">
<path d="M475.217 217.639C473.508 208.861 471.322 200.116 468.723 191.443C456.65 151.139 433.704 97.0773 391.065 79.1168C355.897 64.3057 315.44 79.1611 289.119 103.478C265.829 124.998 245.842 146.456 217.478 161.929C189.714 177.072 159.363 189.556 137.213 212.481C102.34 248.579 107.709 308.975 132.396 348.734C171.302 411.397 261.519 447.611 334.894 434.632C390.186 424.852 437.702 386.324 461.811 337.637C480.798 299.286 483.091 258.107 475.217 217.639Z" fill="#00A973"/>
<path d="M145.649 256.092L145.138 255.578L148.345 252.64L148.857 253.153L145.649 256.092ZM152.055 250.195L151.535 249.69C152.578 248.705 153.622 247.689 154.645 246.667L155.177 247.158C154.151 248.182 153.102 249.204 152.055 250.195ZM158.213 244.041L157.666 243.564C158.647 242.53 159.635 241.46 160.602 240.384L161.16 240.85C160.188 241.931 159.197 243.004 158.213 244.043V244.041ZM164.022 237.582L163.451 237.131C164.374 236.052 165.305 234.936 166.215 233.815L166.798 234.252C165.881 235.379 164.947 236.498 164.022 237.582ZM169.491 230.857L168.9 230.434C169.766 229.315 170.644 228.157 171.501 226.996L172.104 227.408C171.241 228.574 170.363 229.736 169.494 230.86L169.491 230.857ZM174.635 223.902L174.023 223.504C174.85 222.332 175.666 221.151 176.467 219.961L177.088 220.347C176.284 221.54 175.465 222.726 174.635 223.904V223.902ZM215.125 218.982C213.763 218.982 212.385 218.729 211.143 218.252L211.418 217.594C212.574 218.037 213.854 218.272 215.125 218.272C215.309 218.255 215.445 218.269 215.604 218.261L215.64 218.971C215.468 218.979 215.264 218.971 215.125 218.982ZM220.033 217.77L219.663 217.157C220.881 216.481 221.898 215.493 222.61 214.298L223.252 214.65C222.477 215.956 221.363 217.034 220.033 217.77ZM179.468 216.745L178.841 216.37C179.619 215.166 180.384 213.954 181.138 212.736L181.774 213.1C181.017 214.323 180.248 215.538 179.468 216.745ZM207.398 215.757C206.405 214.729 205.586 213.492 204.965 212.075L205.645 211.8C206.23 213.139 207.002 214.306 207.939 215.274L207.398 215.757ZM224.476 210.42L223.737 210.406V210.215C223.737 209.151 223.512 208.109 223.086 207.201C222.974 206.962 222.853 206.732 222.72 206.508L223.364 206.159C223.509 206.403 223.642 206.653 223.76 206.908C224.23 207.907 224.479 209.052 224.479 210.215V210.42H224.476ZM184.298 209.676L183.731 209.219C184.688 208.12 185.75 207.087 186.879 206.147L187.364 206.684C186.264 207.598 185.232 208.606 184.298 209.676ZM203.821 207.873C203.738 207.201 203.694 206.511 203.694 205.821C203.694 205.069 203.744 204.302 203.845 203.541L204.578 203.629C204.48 204.362 204.433 205.1 204.433 205.821C204.433 206.482 204.474 207.144 204.554 207.788L203.821 207.873ZM190.888 204.2L190.497 203.595C191.751 202.849 193.09 202.181 194.476 201.608L194.769 202.261C193.415 202.82 192.111 203.473 190.888 204.2ZM219.876 203.467C218.8 202.681 217.529 202.003 216.101 201.449L216.376 200.79C217.869 201.367 219.196 202.079 220.322 202.903L219.876 203.467ZM198.905 200.876L198.71 200.191C200.152 199.814 201.633 199.533 203.108 199.357L203.2 200.061C201.76 200.234 200.315 200.507 198.905 200.876ZM211.915 200.288C210.514 200.032 209.053 199.885 207.569 199.851L207.587 199.141C209.11 199.178 210.611 199.328 212.051 199.592L211.912 200.291L211.915 200.288ZM205.598 199.57L204.903 199.331C205.408 197.986 206.065 196.674 206.854 195.433L207.484 195.805C206.718 197.003 206.085 198.27 205.598 199.573V199.57ZM210.115 192.473L209.574 191.99C209.789 191.769 210.008 191.55 210.236 191.334C211.061 190.548 211.971 189.804 212.941 189.126L213.378 189.699C212.438 190.36 211.557 191.079 210.756 191.842C210.537 192.05 210.325 192.262 210.115 192.475V192.473ZM217.109 187.524L216.781 186.888C218.117 186.253 219.521 185.716 220.952 185.296L221.168 185.974C219.773 186.383 218.407 186.906 217.109 187.524ZM225.445 184.918L225.262 184.231C226.708 183.876 228.144 183.505 229.534 183.124L229.735 183.805C228.34 184.186 226.897 184.561 225.445 184.915V184.918ZM233.995 182.585L233.773 181.906C235.198 181.475 236.611 181.026 237.971 180.569L238.216 181.239C236.85 181.696 235.428 182.15 233.998 182.582L233.995 182.585ZM242.387 179.766L242.121 179.104C243.505 178.588 244.882 178.048 246.213 177.498L246.505 178.148C245.166 178.701 243.78 179.246 242.39 179.766H242.387ZM250.552 176.379L250.233 175.74L254.221 173.881L254.543 174.52L250.552 176.382V176.379ZM258.531 172.657L258.209 172.019L262.197 170.156L262.519 170.795L258.531 172.657ZM266.507 168.933L266.185 168.294L270.173 166.432L270.495 167.07L266.507 168.933ZM274.483 165.208L274.16 164.569L278.148 162.707L278.471 163.346L274.483 165.208ZM282.458 161.483L282.136 160.845L286.124 158.982L286.446 159.621L282.458 161.483Z" fill="white"/>
<path opacity="0.5" d="M325.003 28.6146C325.003 28.7623 325.003 28.9014 325.021 29.049H422.211C421.96 21.3556 414.983 15.1868 406.431 15.1868C403.688 15.1868 401.116 15.8199 398.869 16.927C398.987 10.9398 395.99 5.20533 390.471 2.128C382.187 -2.48232 371.353 0.646114 366.28 9.12013C364.755 11.6751 363.915 14.4231 363.726 17.1513C359.685 15.3742 354.677 14.3181 349.244 14.3181C335.855 14.3181 325 20.7197 325 28.6146H325.003Z" fill="#50B0E2"/>
<path d="M107.142 247.609H27L27.0089 247.333C27.2217 240.821 33.0217 235.72 40.2112 235.72C42.2628 235.72 44.2966 236.157 46.1265 236.983C46.1797 231.998 48.8403 227.459 53.1475 225.06C56.3549 223.274 60.1477 222.814 63.8252 223.762C67.8308 224.793 71.2098 227.322 73.3412 230.885C74.5236 232.867 75.2272 234.987 75.4371 237.199C78.8515 235.765 82.8571 235.01 87.0549 235.01C98.1583 235.01 107.189 240.384 107.189 246.987C107.189 247.118 107.189 247.243 107.172 247.373L107.142 247.609ZM27.5765 247.075H106.634V246.987C106.634 240.676 97.8509 235.544 87.052 235.544C82.7862 235.544 78.7244 236.339 75.3041 237.84L74.9375 238.002L74.9109 237.619C74.7542 235.351 74.0625 233.176 72.8563 231.155C70.7988 227.717 67.5382 225.275 63.6774 224.282C60.1418 223.371 56.4998 223.813 53.4224 225.525C49.1655 227.896 46.5818 232.452 46.6793 237.412L46.6882 237.857L46.2743 237.653C44.4208 236.739 42.3249 236.256 40.2082 236.256C33.4208 236.256 27.9282 240.989 27.5705 247.078L27.5765 247.075Z" fill="#9192FF"/>
<g filter="url(#filter0_d_1833_1478)">
<path d="M263.855 239.941C263.855 249.011 271.512 256.364 280.957 256.364H470.913C480.358 256.364 488.014 249.011 488.014 239.941V128.953H263.855V239.941Z" fill="white"/>
</g>
<path d="M459.434 395.639H454.999V394.929H459.434V395.639ZM450.565 395.639H446.131V394.929H450.565V395.639ZM441.696 395.639H437.262V394.929H441.696V395.639ZM432.828 395.639H428.394V394.929H432.828V395.639ZM423.959 395.639H419.525V394.929H423.959V395.639ZM415.091 395.639H410.656V394.929H415.091V395.639ZM406.222 395.639H401.788V394.929H406.222V395.639ZM397.354 395.639H392.919V394.929H397.354V395.639ZM388.485 395.639H384.051V394.929H388.485V395.639ZM379.617 395.639H375.182V394.929H379.617V395.639ZM370.745 395.639C369.214 395.625 367.712 395.38 366.278 394.906L366.518 394.236C367.877 394.682 369.302 394.918 370.754 394.929L370.748 395.639H370.745ZM459.969 395.63L459.942 394.92C461.391 394.869 462.807 394.597 464.155 394.111L464.415 394.776C462.996 395.287 461.5 395.573 459.972 395.63H459.969ZM362.281 392.851C361.069 391.962 360.02 390.901 359.163 389.694L359.775 389.294C360.588 390.438 361.584 391.446 362.731 392.289L362.281 392.854V392.851ZM468.346 392.612L467.882 392.062C469.006 391.187 469.972 390.154 470.75 388.987L471.371 389.371C470.549 390.6 469.532 391.69 468.346 392.612ZM357.241 385.751C356.883 384.544 356.703 383.293 356.703 382.024V381.442H357.442V382.024C357.442 383.224 357.614 384.414 357.951 385.555L357.241 385.748V385.751ZM473.177 385.379L472.461 385.203C472.733 384.17 472.872 383.099 472.872 382.024V381.067H473.611V382.024C473.611 383.159 473.467 384.286 473.177 385.376V385.379ZM357.442 377.186H356.703V372.928H357.442V377.186ZM473.611 376.809H472.872V372.55H473.611V376.809ZM357.442 368.669H356.703V364.411H357.442V368.669ZM473.611 368.292H472.872V364.034H473.611V368.292ZM357.442 360.153H356.703V355.895H357.442V360.153ZM473.611 359.775H472.872V355.517H473.611V359.775ZM357.442 351.636H356.703V347.378H357.442V351.636ZM473.611 351.259H472.872V347H473.611V351.259ZM357.442 343.12H356.703V338.861H357.442V343.12ZM473.611 342.742H472.872V338.484H473.611V342.742ZM357.442 334.603H356.703V331.767C356.703 331.284 356.73 330.793 356.783 330.311L357.519 330.385C357.469 330.842 357.442 331.307 357.442 331.764V334.6V334.603ZM473.611 334.226H472.872V331.764C472.872 331.182 472.831 330.595 472.751 330.018L473.484 329.925C473.57 330.529 473.611 331.148 473.611 331.764V334.226ZM358.654 326.404L357.98 326.109C358.613 324.781 359.461 323.563 360.502 322.49L361.043 322.972C360.058 323.989 359.251 325.144 358.654 326.402V326.404ZM471.501 326.075C470.865 324.835 470.026 323.702 469.012 322.711L469.538 322.214C470.608 323.259 471.492 324.454 472.163 325.763L471.501 326.075ZM364.434 320.44L364.079 319.818C365.415 319.114 366.855 318.626 368.353 318.368L368.484 319.066C367.065 319.31 365.702 319.773 364.434 320.44ZM465.55 320.27C464.264 319.639 462.889 319.214 461.461 319.006L461.571 318.305C463.079 318.524 464.53 318.972 465.887 319.637L465.55 320.27ZM457.089 318.862H452.655V318.152H457.089V318.862ZM448.221 318.862H443.786V318.152H448.221V318.862ZM439.352 318.862H434.918V318.152H439.352V318.862ZM430.484 318.862H426.049V318.152H430.484V318.862ZM421.615 318.862H417.181V318.152H421.615V318.862ZM412.746 318.862H408.312V318.152H412.746V318.862ZM403.878 318.862H399.444V318.152H403.878V318.862ZM395.009 318.862H390.575V318.152H395.009V318.862ZM386.141 318.862H381.707V318.152H386.141V318.862ZM377.272 318.862H372.838V318.152H377.272V318.862Z" fill="#006B65"/>
<path d="M451.345 304.449H356.998C350.972 304.449 346.087 309.14 346.087 314.927V372.86C346.087 378.647 350.972 383.338 356.998 383.338H451.345C457.371 383.338 462.256 378.647 462.256 372.86V314.927C462.256 309.14 457.371 304.449 451.345 304.449Z" fill="#006B65"/>
<path d="M378.866 350.529H366.287V375.06H378.866V350.529Z" fill="white"/>
<path d="M399.931 351.318H387.353V375.063H399.931V351.318Z" fill="white"/>
<path d="M420.994 338.916H408.415V375.063H420.994V338.916Z" fill="white"/>
<path d="M442.06 328.31H429.481V375.06H442.06V328.31Z" fill="white"/>
<path d="M437.917 315.56H370.425V318.393H437.917V315.56Z" fill="white"/>
<path d="M164.928 227.438C162.788 220.318 158.262 214.076 152.051 209.678L149.556 207.913L151.672 249.996L168.05 237.829L164.928 227.438Z" fill="#CA951E"/>
<path d="M217.556 278.302L213.917 271.461C212.995 269.729 211.36 268.446 209.406 267.926L198.702 265.079L171.162 248.193L168.049 237.829L151.672 249.996L151.82 252.951C152.118 258.882 155.905 264.128 161.581 266.481L188.323 277.559L201.034 277.831C205.129 279.188 206.542 282.578 209.084 281.357C210.03 280.903 206.329 275.049 206.329 275.049L212.472 281.559L217.556 278.302Z" fill="#FFBC96"/>
<path d="M170.833 247.955L167.233 252.025L167.88 252.552L171.48 248.482L170.833 247.955Z" fill="#D28572"/>
<path d="M169.657 295.35L189.694 293.652C202.737 292.545 214.083 302.66 214.718 315.96L219.247 410.724L191.607 411.55L169.657 295.35Z" fill="#26289C"/>
<path d="M193.83 410.608L194.679 436.782H235.633L215.437 420.643L214.166 408.03L193.83 410.608Z" fill="#1B1B43"/>
<path d="M214.915 420.01L206.3 426.384L207.334 427.673L215.949 421.299L214.915 420.01Z" fill="white"/>
<path d="M184.509 410.607L185.354 436.782H226.312L206.116 420.643L204.844 408.03L184.509 410.607Z" fill="#E9E1F4"/>
<path d="M205.594 420.008L196.979 426.382L198.012 427.67L206.628 421.297L205.594 420.008Z" fill="white"/>
<path d="M215.014 413.183H181.118L156.96 341.799L153.578 331.806L105.277 331.602C102.294 331.562 99.4386 330.234 97.0145 328.275C91.8796 324.116 89.5147 317.581 90.4459 311.193L94.6821 282.166L166.441 291.125C180.051 292.826 191.039 302.609 193.836 315.506L215.011 413.183H215.014Z" fill="#3335CF"/>
<path d="M163.535 331.807L156.96 341.802L153.578 331.807H163.535Z" fill="#1B1B43"/>
<path d="M154.663 276.911C154.314 278.254 153.951 279.597 153.578 280.948L151.036 290.915L117.563 289.581L93.4641 288.622C87.0758 288.369 82.4494 282.674 83.7531 276.659L94.9895 224.733C96.4292 215.904 103.897 209.108 113.158 208.188L140.657 205.471L149.555 207.913C158.24 212.39 158.249 220.5 158.663 225.815C160.484 249.071 158.24 263.157 154.663 276.911Z" fill="#CA951E"/>
<path opacity="0.3" d="M131.969 275.251C131.62 276.593 153.951 279.597 153.578 280.948L151.036 290.915L117.563 289.581C105.868 281.11 101.487 262.677 97.2246 239.583L131.969 275.251Z" fill="#1B1B43"/>
<path d="M125.318 220.492C126.784 222.002 128.454 223.316 130.32 224.299C132.179 225.281 134.201 225.999 136.297 226.237C138.369 226.499 140.56 226.328 142.378 225.38C144.237 224.492 145.423 222.615 145.644 220.582L145.976 220.602C145.964 221.664 145.686 222.743 145.133 223.7C144.577 224.656 143.729 225.448 142.741 225.996C140.749 227.103 138.387 227.302 136.188 227.035C133.976 226.74 131.848 225.999 129.959 224.892C128.058 223.805 126.397 222.357 125.061 220.693L125.315 220.489L125.318 220.492Z" fill="#1B1B43"/>
<path d="M159.403 252.216L158.77 252.174C159.379 243.986 158.761 233.925 156.938 222.266L157.567 222.175C159.4 233.877 160.018 243.983 159.406 252.216H159.403Z" fill="#1B1B43"/>
<path d="M216.285 281.084H184.79V287.052H216.285V281.084Z" fill="#00062A"/>
<path d="M270.801 287.052H207.529L236.624 233.613H299.895L270.801 287.052Z" fill="#00062A"/>
<path d="M132.288 162.749C124.874 155.732 110.892 158.681 111.104 170.479C95.8505 174.346 95.0051 190.417 101.148 198.655L106.446 199.061L107.61 193.06L110.682 199.163L125.51 200.077L132.288 162.746V162.749Z" fill="#1B1B43"/>
<path d="M144.681 188.992V211.41C144.681 211.615 144.672 211.808 144.654 212.003C144.29 216.617 139.637 219.881 134.884 218.7C127.875 216.96 123.003 210.871 123.062 203.921L123.18 188.989H144.678L144.681 188.992Z" fill="#FFBC96"/>
<path d="M144.681 198.684V211.41C144.681 211.615 144.672 211.808 144.654 212.004C138.408 211.019 131.189 204.077 129.427 196.518L144.681 198.681V198.684Z" fill="#1B1B43"/>
<path d="M157.316 190.652C156.993 192.435 156.562 194.258 155.985 195.989C154.12 201.679 150.774 206.397 144.781 205.576C130.698 203.64 122.858 189.707 122.858 189.707L132.493 179.129L138.958 170.78L158.339 178.82C158.339 178.82 158.439 184.509 157.313 190.652H157.316Z" fill="#FFBC96"/>
<path d="M127.027 186.144C133.208 185.954 137.988 182.93 140.019 174.346C140.019 174.346 154.425 186.28 161.487 179.907C167.399 174.57 157.369 162.289 140.764 160.824C134.716 160.29 128.685 162.105 123.946 165.752C115.9 171.944 115.128 186.348 122.652 191.334L127.03 186.147L127.027 186.144Z" fill="#1B1B43"/>
<path d="M119.789 171.09C119.384 169.687 119.686 168.134 120.339 166.797C121.001 165.452 122.021 164.276 123.239 163.368C124.457 162.457 125.888 161.807 127.389 161.503C128.888 161.208 130.479 161.253 131.862 161.832C130.431 162.275 129.196 162.743 128.031 163.32C126.869 163.89 125.799 164.552 124.794 165.295C123.792 166.042 122.86 166.871 122.024 167.811C121.181 168.756 120.442 169.792 119.786 171.087L119.789 171.09Z" fill="#FFA121"/>
<path d="M127.348 192.274C129.818 191.324 130.852 188.23 129.656 185.362C128.461 182.495 125.489 180.941 123.018 181.89C120.548 182.84 119.514 185.935 120.71 188.802C121.905 191.67 124.877 193.224 127.348 192.274Z" fill="#FFBC96"/>
<path d="M125.173 190.167C125.279 189.176 125.285 188.237 124.986 187.376C124.694 186.511 124.123 185.755 123.464 184.98L123.671 184.733C124.629 185.213 125.442 186.071 125.787 187.129C126.136 188.188 125.985 189.341 125.489 190.261L125.173 190.17V190.167Z" fill="#1B1B43"/>
<path d="M148.32 187.167C148.32 188.007 147.678 188.688 146.889 188.688C146.099 188.688 145.458 188.007 145.458 187.167C145.458 186.326 146.099 185.645 146.889 185.645C147.678 185.645 148.32 186.326 148.32 187.167Z" fill="#1B1B43"/>
<path d="M155.834 188.364C155.74 189.105 155.095 189.642 154.397 189.56C153.7 189.477 153.209 188.807 153.304 188.066C153.398 187.325 154.043 186.789 154.74 186.871C155.438 186.953 155.929 187.623 155.834 188.364Z" fill="#1B1B43"/>
<path d="M148.249 183.348C148.305 184.058 147.122 184.126 145.378 184.177C143.634 184.228 142.428 184.745 142.416 184.296C142.404 183.848 143.693 182.692 145.414 182.414C147.187 182.127 148.184 182.505 148.252 183.351L148.249 183.348Z" fill="#1B1B43"/>
<path d="M153.821 184.033C153.694 184.734 154.563 184.913 155.852 185.131C157.141 185.347 157.974 185.977 158.039 185.534C158.104 185.091 157.286 183.82 156.041 183.377C154.758 182.92 153.975 183.201 153.821 184.035V184.033Z" fill="#1B1B43"/>
<path d="M151.746 189.628C152.077 190.017 152.443 190.352 152.822 190.698L153.392 191.209C153.59 191.382 153.803 191.57 153.995 191.856C154.09 192.001 154.164 192.189 154.176 192.399C154.194 192.611 154.123 192.816 154.034 192.975C153.839 193.29 153.605 193.475 153.351 193.636C152.846 193.957 152.296 194.088 151.767 194.187L151.642 193.892C152.098 193.608 152.553 193.355 152.905 193.063C153.073 192.918 153.239 192.742 153.298 192.609C153.363 192.472 153.345 192.427 153.265 192.268C153.076 191.973 152.597 191.575 152.284 191.164C151.941 190.755 151.633 190.289 151.45 189.778L151.74 189.625L151.746 189.628Z" fill="#1B1B43"/>
<path d="M144.574 194.638C145.44 195.586 146.342 196.464 147.426 197.023C148.503 197.596 149.732 197.758 151.03 197.622L151.119 197.928C150.492 198.195 149.786 198.34 149.07 198.3C148.355 198.272 147.648 198.065 147.027 197.733C145.777 197.065 144.855 195.987 144.299 194.809L144.577 194.638H144.574Z" fill="#1B1B43"/>
<path opacity="0.2" d="M139.492 193.775C141.424 193.775 142.989 192.272 142.989 190.417C142.989 188.562 141.424 187.059 139.492 187.059C137.561 187.059 135.995 188.562 135.995 190.417C135.995 192.272 137.561 193.775 139.492 193.775Z" fill="#FE5B52"/>
<path opacity="0.2" d="M157.316 190.653C156.993 192.436 156.562 194.258 155.985 195.99C155.444 195.396 155.113 194.621 155.113 193.767C155.113 192.35 156.03 191.147 157.316 190.65V190.653Z" fill="#FE5B52"/>
<path d="M117.425 230.359L97.2285 239.58L103.561 254.001L124.739 244.622L117.425 230.359Z" fill="#CA951E"/>
<path d="M192.235 280.366C191.676 280.096 191.324 279.917 191.324 279.917L191.525 279.534C191.525 279.534 191.898 279.707 192.439 279.986L192.232 280.366H192.235Z" fill="#C5C5FF"/>
<path d="M200.609 282.37C199.956 283.608 194.957 281.419 192.627 280.321C194.434 281.28 197.544 283.168 196.16 284.202C195.049 285.025 192.592 283.273 184.542 280.068C185.763 280.622 192.956 283.909 191.143 285.155C189.169 286.507 180.696 283.529 180.696 283.529L173.35 287.321H164.878L134.388 287.509C132.472 287.517 130.574 287.282 128.735 286.825C125.117 285.939 121.712 284.213 118.82 281.894C116.999 280.429 115.43 278.711 114.117 276.823C113.136 275.407 112.296 273.885 111.601 272.298L103.561 254.005L124.736 244.622L135.786 266.163L172.224 273.763L182.393 271.322C184.581 270.794 187.673 271.679 189.597 272.812C194.292 275.571 201.224 281.192 200.612 282.373L200.609 282.37Z" fill="#FFBC96"/>
<path opacity="0.2" d="M129.286 283.796C129.286 284.863 129.091 285.879 128.737 286.822C125.118 285.936 121.713 284.21 118.821 281.891C117 280.426 115.431 278.708 114.118 276.82C115.72 275.583 117.754 274.842 119.965 274.842C125.118 274.842 129.286 278.845 129.286 283.793V283.796Z" fill="#FE5B52"/>
<path d="M172.171 273.61C174.698 272.803 177.259 272.108 179.872 271.583C181.178 271.324 182.5 271.114 183.848 271.038C184.522 271.001 185.205 271.015 185.894 271.089C186.233 271.154 186.573 271.239 186.913 271.316C187.236 271.427 187.552 271.552 187.871 271.668C190.349 272.747 192.509 274.291 194.6 275.878C196.687 277.476 198.658 279.194 200.574 280.982L200.663 281.065L200.68 281.17C200.748 281.556 200.701 281.911 200.479 282.271C200.343 282.422 200.201 282.589 200.018 282.66C199.841 282.768 199.663 282.81 199.489 282.836C198.788 282.947 198.174 282.808 197.585 282.657C196.406 282.345 195.356 281.828 194.295 281.331C193.257 280.798 192.235 280.244 191.244 279.648C190.236 279.074 189.278 278.433 188.297 277.823L188.746 277.136C190.479 278.123 192.167 279.16 193.778 280.335C194.579 280.931 195.371 281.541 196.051 282.339C196.214 282.552 196.379 282.765 196.491 283.055C196.554 283.191 196.589 283.364 196.592 283.551C196.577 283.747 196.515 283.955 196.373 284.108C196.107 284.403 195.785 284.505 195.513 284.568C195.229 284.639 194.966 284.653 194.697 284.678L194.614 284.687L194.523 284.65L185.323 280.948L185.598 280.326C187.046 280.968 188.457 281.658 189.802 282.507C190.458 282.958 191.147 283.364 191.632 284.142C191.741 284.338 191.821 284.639 191.708 284.92C191.593 285.192 191.368 285.365 191.161 285.459C190.736 285.666 190.307 285.709 189.896 285.732C188.247 285.769 186.698 285.397 185.163 285.033C183.632 284.644 182.124 284.187 180.637 283.668L180.75 283.37C182.237 283.847 183.75 284.27 185.273 284.619C186.792 284.945 188.356 285.269 189.867 285.195C190.588 285.167 191.445 284.863 191.096 284.406C190.765 283.872 190.082 283.418 189.456 283.018C188.155 282.22 186.739 281.55 185.32 280.945L185.595 280.324L194.827 283.946L194.653 283.918C194.88 283.892 195.114 283.881 195.315 283.824C195.522 283.781 195.69 283.693 195.747 283.625C195.877 283.577 195.702 283.14 195.412 282.81C194.827 282.126 194.053 281.522 193.275 280.951C191.705 279.815 190.02 278.788 188.318 277.831L188.767 277.144C189.743 277.743 190.686 278.39 191.679 278.958C192.657 279.551 193.656 280.099 194.67 280.625C195.693 281.11 196.728 281.618 197.798 281.905C198.324 282.05 198.883 282.152 199.329 282.078L199.492 282.05C199.542 282.035 199.572 282.007 199.616 281.99C199.714 281.962 199.743 281.888 199.811 281.842C199.894 281.72 199.93 281.493 199.903 281.329L200.009 281.516C198.135 279.742 196.16 278.038 194.127 276.429C192.087 274.833 189.958 273.286 187.611 272.23L186.715 271.889C186.411 271.818 186.106 271.736 185.799 271.671C185.169 271.594 184.522 271.574 183.872 271.6C182.568 271.651 181.261 271.824 179.963 272.054C177.368 272.517 174.799 273.155 172.271 273.902L172.168 273.601L172.171 273.61Z" fill="#D28572"/>
<path d="M103.691 254.28L103.425 253.726L124.322 244.469L115.616 224.909L116.201 224.67L125.147 244.775L103.691 254.28Z" fill="#1B1B43"/>
<path d="M106.679 339.945H105.57V431.629H106.679V339.945Z" fill="#1B1B43"/>
<path d="M132.817 331.4H79.4339C75.8061 331.4 72.8652 334.224 72.8652 337.707C72.8652 341.19 75.8061 344.013 79.4339 344.013H132.817C136.444 344.013 139.385 341.19 139.385 337.707C139.385 334.224 136.444 331.4 132.817 331.4Z" fill="#E9E1F4"/>
<path d="M93.5446 427.073H118.708C124.159 427.073 128.581 431.323 128.581 436.555V437.597H83.668V436.555C83.668 431.32 88.0934 427.073 93.5416 427.073H93.5446Z" fill="#E9E1F4"/>
<path d="M170.72 292.637L169.782 293.205L264.414 437.236L265.352 436.668L170.72 292.637Z" fill="#1B1B43"/>
<path d="M264.417 292.65L169.759 436.665L170.696 437.233L265.354 293.218L264.417 292.65Z" fill="#1B1B43"/>
<path d="M300.46 287.052H134.653V299.06H300.46V287.052Z" fill="#E9E1F4"/>
<path d="M74.1484 127.369H55.0041C51.9238 127.369 49.4258 129.767 49.4258 132.726V151.11C49.4258 154.068 51.9238 156.467 55.0041 156.467H68.6676L74.5534 164.274V156.447C77.4445 156.248 79.7267 153.938 79.7267 151.11V132.726C79.7267 129.767 77.2287 127.369 74.1484 127.369Z" fill="white"/>
<path d="M74.9223 165.37L68.4778 156.822H55.0035C51.7251 156.822 49.0557 154.258 49.0557 151.11V132.725C49.0557 129.577 51.7251 127.014 55.0035 127.014H74.1478C77.4262 127.014 80.0956 129.577 80.0956 132.725V151.11C80.0956 153.977 77.8489 156.399 74.9223 156.768V165.37ZM55.0035 127.723C52.1301 127.723 49.7947 129.966 49.7947 132.725V151.11C49.7947 153.869 52.1301 156.112 55.0035 156.112H68.8562L74.1832 163.178V156.115L74.5262 156.092C77.234 155.905 79.3566 153.716 79.3566 151.11V132.725C79.3566 129.966 77.0212 127.723 74.1478 127.723H55.0035Z" fill="#00A973"/>
<path d="M64.1829 151.38L56.5205 140.751L58.3415 139.539L63.9819 147.36L72.475 132.765L74.4113 133.804L64.1829 151.38Z" fill="#00A973"/>
<path d="M496 437H42V440H496V437Z" fill="#1B1B43"/>
<path d="M458.511 193.338C449.294 193.338 441.82 200.512 441.82 209.366C441.82 218.221 449.291 225.394 458.511 225.394C467.731 225.394 475.202 218.221 475.202 209.366C475.202 200.512 467.731 193.338 458.511 193.338ZM458.511 221.406C451.585 221.406 445.971 216.015 445.971 209.363C445.971 202.712 451.585 197.321 458.511 197.321C465.437 197.321 471.051 202.712 471.051 209.363C471.051 216.015 465.437 221.406 458.511 221.406Z" fill="#FADB96"/>
<path d="M459.815 102.429V204.387C459.815 207.007 457.604 209.131 454.875 209.131H292.98C290.251 209.131 288.04 207.007 288.04 204.387V102.429C288.04 96.3795 293.151 91.4683 299.454 91.4683H448.401C454.707 91.4683 459.815 96.3795 459.815 102.429Z" fill="#FBF8FF" stroke="#A6A4F7" strokeMiterlimit="10"/>
<path d="M459.815 102.429V102.889H288.04V102.429C288.04 96.3795 293.151 91.4683 299.454 91.4683H448.401C454.707 91.4683 459.815 96.3795 459.815 102.429Z" fill="#006B65"/>
<path d="M318.107 111.547H297.487C296.11 111.547 294.992 110.474 294.992 109.151C294.992 107.828 296.11 106.755 297.487 106.755H318.107C319.484 106.755 320.602 107.828 320.602 109.151C320.602 110.474 319.484 111.547 318.107 111.547Z" fill="#FFB450"/>
<path d="M394.259 111.042H385.174C384.367 111.042 383.711 110.412 383.711 109.637C383.711 108.862 384.367 108.232 385.174 108.232H394.259C395.066 108.232 395.722 108.862 395.722 109.637C395.722 110.412 395.066 111.042 394.259 111.042Z" fill="#E9E1F4"/>
<path d="M411.438 111.042H402.354C401.547 111.042 400.891 110.412 400.891 109.637C400.891 108.862 401.547 108.232 402.354 108.232H411.438C412.245 108.232 412.902 108.862 412.902 109.637C412.902 110.412 412.245 111.042 411.438 111.042Z" fill="#E9E1F4"/>
<path d="M428.873 111.042H419.788C418.981 111.042 418.325 110.412 418.325 109.637C418.325 108.862 418.981 108.232 419.788 108.232H428.873C429.68 108.232 430.336 108.862 430.336 109.637C430.336 110.412 429.68 111.042 428.873 111.042Z" fill="#E9E1F4"/>
<path d="M446.052 111.042H436.967C436.16 111.042 435.504 110.412 435.504 109.637C435.504 108.862 436.16 108.232 436.967 108.232H446.052C446.859 108.232 447.515 108.862 447.515 109.637C447.515 110.412 446.859 111.042 446.052 111.042Z" fill="#E9E1F4"/>
<path d="M373.287 125.918H303.879C303.526 125.918 303.24 126.192 303.24 126.531V169.699C303.24 170.038 303.526 170.312 303.879 170.312H373.287C373.64 170.312 373.926 170.038 373.926 169.699V126.531C373.926 126.192 373.64 125.918 373.287 125.918Z" fill="#E9E1F4"/>
<path d="M428.769 125.918H388.905C388.631 125.918 388.408 126.131 388.408 126.395V132.442C388.408 132.705 388.631 132.919 388.905 132.919H428.769C429.043 132.919 429.266 132.705 429.266 132.442V126.395C429.266 126.131 429.043 125.918 428.769 125.918Z" fill="#E9E1F4"/>
<path d="M417.03 141.367H389.703C388.988 141.367 388.408 140.811 388.408 140.124C388.408 139.437 388.988 138.88 389.703 138.88H417.03C417.745 138.88 418.325 139.437 418.325 140.124C418.325 140.811 417.745 141.367 417.03 141.367Z" fill="#E9E1F4"/>
<path d="M444.372 147.377H389.703C388.988 147.377 388.408 146.821 388.408 146.134C388.408 145.447 388.988 144.89 389.703 144.89H444.372C445.087 144.89 445.667 145.447 445.667 146.134C445.667 146.821 445.087 147.377 444.372 147.377Z" fill="#E9E1F4"/>
<path d="M444.372 153.387H389.703C388.988 153.387 388.408 152.83 388.408 152.143C388.408 151.456 388.988 150.9 389.703 150.9H444.372C445.087 150.9 445.667 151.456 445.667 152.143C445.667 152.83 445.087 153.387 444.372 153.387Z" fill="#E9E1F4"/>
<path d="M444.372 159.397H389.703C388.988 159.397 388.408 158.841 388.408 158.154C388.408 157.467 388.988 156.91 389.703 156.91H444.372C445.087 156.91 445.667 157.467 445.667 158.154C445.667 158.841 445.087 159.397 444.372 159.397Z" fill="#E9E1F4"/>
<path d="M406.932 172.268H391.228C389.673 172.268 388.411 171.056 388.411 169.563C388.411 168.07 389.673 166.857 391.228 166.857H406.932C408.487 166.857 409.749 168.07 409.749 169.563C409.749 171.056 408.487 172.268 406.932 172.268Z" fill="#FFB450"/>
<path d="M459.815 187.167V204.387C459.815 207.007 457.604 209.131 454.875 209.131H292.98C290.251 209.131 288.04 207.007 288.04 204.387V187.167H459.818H459.815Z" fill="#E9E1F4"/>
<path d="M414.163 197.137V209.134H333.692V197.137C333.692 195.751 334.863 194.627 336.306 194.627H411.546C412.989 194.627 414.16 195.751 414.16 197.137H414.163Z" fill="#006B65"/>
<path d="M433.727 97.7112C433.727 98.5004 433.062 99.1391 432.24 99.1391C431.418 99.1391 430.753 98.5004 430.753 97.7112C430.753 96.9219 431.418 96.2832 432.24 96.2832C433.062 96.2832 433.727 96.9219 433.727 97.7112Z" fill="#FFB450"/>
<path d="M441.857 97.7112C441.857 98.5004 441.192 99.1391 440.37 99.1391C439.548 99.1391 438.883 98.5004 438.883 97.7112C438.883 96.9219 439.548 96.2832 440.37 96.2832C441.192 96.2832 441.857 96.9219 441.857 97.7112Z" fill="#FFB450"/>
<path d="M449.625 97.7112C449.625 98.5004 448.96 99.1391 448.138 99.1391C447.317 99.1391 446.651 98.5004 446.651 97.7112C446.651 96.9219 447.317 96.2832 448.138 96.2832C448.96 96.2832 449.625 96.9219 449.625 97.7112Z" fill="#FFB450"/>
<path d="M459.815 102.429V204.387C459.815 207.007 457.604 209.131 454.875 209.131H292.98C290.251 209.131 288.04 207.007 288.04 204.387V102.429C288.04 96.3795 293.151 91.4683 299.454 91.4683H448.401C454.707 91.4683 459.815 96.3795 459.815 102.429Z" stroke="#A6A4F7" strokeMiterlimit="10"/>
<g style="mix-blend-mode:multiply">
<path d="M324.047 86.9375H255.623C255.202 86.9375 254.86 87.2654 254.86 87.6699V137.574C254.86 137.979 255.202 138.307 255.623 138.307H324.047C324.468 138.307 324.81 137.979 324.81 137.574V87.6699C324.81 87.2654 324.468 86.9375 324.047 86.9375Z" fill="#E9E1F4"/>
</g>
<path d="M316.777 81.765V129.183C316.777 130.276 315.855 131.156 314.723 131.156H248.883C247.75 131.156 246.828 130.273 246.828 129.183V81.765C246.828 80.672 247.75 79.792 248.883 79.792H314.723C315.855 79.792 316.777 80.6749 316.777 81.765Z" fill="#CA951E"/>
<path d="M316.777 111.976V129.18C316.777 130.273 315.855 131.153 314.723 131.153H248.883C247.75 131.153 246.828 130.27 246.828 129.18V112.623C246.828 112.623 258.065 94.0259 266.029 94.0259C275.955 94.0259 281.608 115.729 286.539 115.729C291.469 115.729 297.902 100.799 304.432 100.799C308.346 100.799 313.378 107.002 316.78 111.976H316.777Z" fill="#FFE7B0"/>
<path d="M307.797 90.4206C307.797 92.8365 305.757 94.7953 303.241 94.7953C300.725 94.7953 298.686 92.8365 298.686 90.4206C298.686 88.0047 300.725 86.0459 303.241 86.0459C305.757 86.0459 307.797 88.0047 307.797 90.4206Z" fill="#FFE7B0"/>
<g style="mix-blend-mode:multiply">
<path d="M439.373 128.055H479.148C479.42 128.055 479.639 128.265 479.639 128.526V179.867C479.639 180.129 479.42 180.339 479.148 180.339H439.373C439.101 180.339 438.882 180.129 438.882 179.867V128.529C438.882 128.268 439.101 128.058 439.373 128.058V128.055Z" fill="#E9E1F4"/>
</g>
<path d="M446.101 122.221H485.877C486.149 122.221 486.367 122.431 486.367 122.692V174.031C486.367 174.292 486.149 174.502 485.877 174.502H446.101C445.829 174.502 445.61 174.292 445.61 174.031V122.692C445.61 122.431 445.829 122.221 446.101 122.221Z" fill="#006B65"/>
<path d="M479.278 127.899H452.696V131.348H479.278V127.899Z" fill="white"/>
<path d="M471.554 168.952H460.418C459.31 168.952 458.411 168.089 458.411 167.024C458.411 165.96 459.31 165.097 460.418 165.097H471.554C472.663 165.097 473.562 165.96 473.562 167.024C473.562 168.089 472.663 168.952 471.554 168.952Z" fill="#FFCC4D"/>
<path d="M467.193 136.367H455.401C455.241 136.367 455.111 136.492 455.111 136.645V137.718C455.111 137.872 455.241 137.997 455.401 137.997H467.193C467.353 137.997 467.483 137.872 467.483 137.718V136.645C467.483 136.492 467.353 136.367 467.193 136.367Z" fill="white"/>
<path d="M481.176 140.378H455.401C455.241 140.378 455.111 140.503 455.111 140.657V141.73C455.111 141.883 455.241 142.008 455.401 142.008H481.176C481.336 142.008 481.466 141.883 481.466 141.73V140.657C481.466 140.503 481.336 140.378 481.176 140.378Z" fill="white"/>
<path d="M481.176 144.39H455.401C455.241 144.39 455.111 144.514 455.111 144.668V145.741C455.111 145.895 455.241 146.019 455.401 146.019H481.176C481.336 146.019 481.466 145.895 481.466 145.741V144.668C481.466 144.514 481.336 144.39 481.176 144.39Z" fill="white"/>
<path d="M450.819 137.182C450.819 137.633 450.438 137.997 449.97 137.997C449.503 137.997 449.122 137.63 449.122 137.182C449.122 136.733 449.503 136.367 449.97 136.367C450.438 136.367 450.819 136.733 450.819 137.182Z" fill="white"/>
<path d="M467.193 149.69H455.401C455.241 149.69 455.111 149.814 455.111 149.968V151.041C455.111 151.195 455.241 151.319 455.401 151.319H467.193C467.353 151.319 467.483 151.195 467.483 151.041V149.968C467.483 149.814 467.353 149.69 467.193 149.69Z" fill="white"/>
<path d="M481.176 153.701H455.401C455.241 153.701 455.111 153.826 455.111 153.979V155.052C455.111 155.206 455.241 155.331 455.401 155.331H481.176C481.336 155.331 481.466 155.206 481.466 155.052V153.979C481.466 153.826 481.336 153.701 481.176 153.701Z" fill="white"/>
<path d="M481.176 157.712H455.401C455.241 157.712 455.111 157.837 455.111 157.991V159.064C455.111 159.217 455.241 159.342 455.401 159.342H481.176C481.336 159.342 481.466 159.217 481.466 159.064V157.991C481.466 157.837 481.336 157.712 481.176 157.712Z" fill="white"/>
<path d="M450.819 150.508C450.819 150.959 450.438 151.323 449.97 151.323C449.503 151.323 449.122 150.957 449.122 150.508C449.122 150.06 449.503 149.693 449.97 149.693C450.438 149.693 450.819 150.06 450.819 150.508Z" fill="white"/>
<path d="M504.265 121.103L484.769 136.544C484.615 136.666 484.456 136.776 484.287 136.878C483.876 137.137 483.421 137.33 482.948 137.46L479.794 138.318C479.412 138.42 479.087 138.042 479.265 137.702L480.74 134.891C480.961 134.477 481.242 134.096 481.576 133.756C481.715 133.611 481.866 133.478 482.026 133.35L501.427 117.983C502.326 117.27 503.689 117.279 504.475 118.108C505.317 118.988 505.208 120.353 504.262 121.103H504.265Z" fill="#FFCC4D"/>
<path d="M484.287 136.879C483.876 137.137 483.421 137.33 482.948 137.461L481.1 137.966L479.791 138.318C479.409 138.42 479.084 138.043 479.262 137.702L479.874 136.541L480.737 134.891C480.959 134.477 481.239 134.097 481.573 133.756C482.28 133.957 483.921 134.656 484.284 136.879H484.287Z" fill="#FFE7B0"/>
<path d="M481.1 137.963L479.791 138.315C479.409 138.417 479.084 138.04 479.262 137.699L479.874 136.538C480.459 136.595 481.233 136.87 481.097 137.963H481.1Z" fill="#FFCC4D"/>
<g style="mix-blend-mode:multiply">
<path d="M390.744 188.046H418.993L426.375 195.197V232.673C426.375 233.281 425.864 233.772 425.231 233.772H390.484C389.851 233.772 389.34 233.281 389.34 232.673V189.395C389.34 188.651 389.97 188.046 390.744 188.046Z" fill="#E9E1F4"/>
</g>
<path d="M386.563 184.032H414.813L422.194 191.183V228.659C422.194 229.267 421.683 229.758 421.05 229.758H386.303C385.671 229.758 385.159 229.267 385.159 228.659V185.381C385.159 184.637 385.789 184.032 386.563 184.032Z" fill="#FFCC4D"/>
<path d="M414.812 184.032V189.96C414.812 190.635 415.383 191.183 416.087 191.183H422.194L414.812 184.032Z" fill="#FFE7B0"/>
<path d="M389.765 204.654C390.158 203.993 390.693 203.479 391.373 203.11C392.053 202.741 392.816 202.556 393.661 202.556C394.649 202.556 395.515 202.8 396.26 203.286C397.005 203.771 397.522 204.447 397.818 205.307H395.778C395.577 204.901 395.29 204.597 394.924 204.396C394.557 204.191 394.131 204.092 393.649 204.092C393.135 204.092 392.677 204.208 392.275 204.438C391.873 204.671 391.559 204.995 391.338 205.418C391.113 205.841 391.001 206.335 391.001 206.902C391.001 207.47 391.113 207.956 391.338 208.382C391.562 208.807 391.876 209.137 392.275 209.367C392.677 209.597 393.135 209.713 393.649 209.713C394.131 209.713 394.557 209.611 394.924 209.403C395.29 209.196 395.577 208.89 395.778 208.484H397.818C397.522 209.352 397.005 210.028 396.266 210.511C395.527 210.993 394.658 211.235 393.661 211.235C392.816 211.235 392.053 211.05 391.373 210.681C390.693 210.312 390.155 209.798 389.765 209.142C389.372 208.484 389.177 207.74 389.177 206.902C389.177 206.065 389.372 205.318 389.765 204.657V204.654Z" fill="white"/>
<path d="M409.613 202.664V211.157H407.839V205.633L405.468 211.157H404.126L401.743 205.633V211.157H399.97V202.664H401.986L404.797 208.98L407.611 202.664H409.613Z" fill="white"/>
<path d="M413.383 210.939C412.889 210.737 412.499 210.445 412.212 210.062C411.925 209.681 411.777 209.23 411.769 208.71H413.669C413.696 209.06 413.823 209.335 414.057 209.536C414.29 209.738 414.609 209.84 415.014 209.84C415.419 209.84 415.754 209.744 415.99 209.554C416.226 209.363 416.345 209.113 416.345 208.807C416.345 208.554 416.265 208.35 416.102 208.185C415.943 208.023 415.742 207.896 415.499 207.802C415.257 207.708 414.926 207.606 414.503 207.492C413.93 207.331 413.462 207.169 413.102 207.013C412.744 206.854 412.434 206.615 412.177 206.294C411.919 205.974 411.789 205.548 411.789 205.011C411.789 204.509 411.919 204.072 412.182 203.697C412.443 203.325 412.812 203.038 413.285 202.84C413.758 202.641 414.299 202.542 414.908 202.542C415.821 202.542 416.561 202.754 417.131 203.18C417.702 203.606 418.015 204.199 418.074 204.963H416.123C416.105 204.671 415.978 204.429 415.736 204.239C415.496 204.049 415.177 203.952 414.778 203.952C414.432 203.952 414.154 204.038 413.947 204.208C413.74 204.378 413.637 204.625 413.637 204.949C413.637 205.176 413.714 205.366 413.87 205.514C414.027 205.664 414.219 205.786 414.453 205.88C414.686 205.974 415.011 206.082 415.434 206.204C416.008 206.365 416.478 206.527 416.841 206.692C417.205 206.854 417.515 207.098 417.779 207.422C418.042 207.745 418.172 208.171 418.172 208.699C418.172 209.153 418.05 209.576 417.805 209.965C417.56 210.354 417.202 210.664 416.729 210.896C416.256 211.126 415.694 211.243 415.044 211.243C414.426 211.243 413.873 211.14 413.377 210.939H413.383Z" fill="white"/>
<path d="M341.955 222.323H318.64C317.721 222.323 316.976 221.608 316.976 220.725C316.976 219.842 317.721 219.126 318.64 219.126H341.955C342.875 219.126 343.62 219.842 343.62 220.725C343.62 221.608 342.875 222.323 341.955 222.323Z" fill="#FADB96"/>
<path d="M341.955 230.32H318.64C317.721 230.32 316.976 229.605 316.976 228.722C316.976 227.839 317.721 227.124 318.64 227.124H341.955C342.875 227.124 343.62 227.839 343.62 228.722C343.62 229.605 342.875 230.32 341.955 230.32Z" fill="#FADB96"/>
<circle cx="175.152" cy="107.877" r="12.5" transform="rotate(-3 175.152 107.877)" fill="#F37363"/>
<circle cx="23.7169" cy="399.703" r="22" transform="rotate(-3 23.7169 399.703)" fill="#CA951E"/>
<circle opacity="0.13" cx="467.135" cy="23.4805" r="9.5" transform="rotate(-3 467.135 23.4805)" fill="#C2C1C0"/>
<defs>
<filter id="filter0_d_1833_1478" x="258.855" y="122.953" width="244.158" height="147.411" filterUnits="userSpaceOnUse" colorInterpolationFilters="sRGB">
<feFlood floodOpacity="0" result="BackgroundImageFix"/>
<feColorMatrix in="SourceAlpha" type="matrix" values="0 0 0 0 0 0 0 0 0 0 0 0 0 0 0 0 0 0 127 0" result="hardAlpha"/>
<feOffset dx="5" dy="4"/>
<feGaussianBlur stdDeviation="5"/>
<feComposite in2="hardAlpha" operator="out"/>
<feColorMatrix type="matrix" values="0 0 0 0 0 0 0 0 0 0 0 0 0 0 0 0 0 0 0.2 0"/>
<feBlend mode="normal" in2="BackgroundImageFix" result="effect1_dropShadow_1833_1478"/>
<feBlend mode="normal" in="SourceGraphic" in2="effect1_dropShadow_1833_1478" result="shape"/>
</filter>
</defs>
</svg>
