<svg width="499" height="346" viewBox="0 0 499 346" fill="none" xmlns="http://www.w3.org/2000/svg">
<g clipPath="url(#clip0_1657_1468)">
<path d="M42.7624 345H479.118C515.286 314.918 496.674 224.398 466.463 206.048C433.945 186.295 485.581 117.983 435.488 95.8094C402.78 81.3328 350.762 97.1122 357.759 58.3781C367.463 4.66699 254.055 -9.0932 170.504 5.38337C80.1755 21.0367 162.664 97.9948 63.3284 113.501C12.2487 121.475 22.1198 189.689 26.8829 203.786C31.0309 216.063 58.4752 235.537 20.3341 262.355C-35.5949 301.679 41.4442 344.278 42.7624 345Z" fill="#00A973"/>
</g>
<path d="M479 345H43V346H479V345Z" fill="#1B1B43"/>
<path d="M326.045 345.001H353.864V241.451H326.045V345.001Z" fill="#82B479"/>
<path d="M313.057 345.001H333.498V241.451H313.057V345.001Z" fill="#A8D29F"/>
<path d="M323.62 338.588C326.14 338.588 328.183 336.548 328.183 334.03C328.183 331.513 326.14 329.472 323.62 329.472C321.1 329.472 319.057 331.513 319.057 334.03C319.057 336.548 321.1 338.588 323.62 338.588Z" fill="#82B479"/>
<path d="M366.852 345.001H394.67V241.451H366.852V345.001Z" fill="#50B0E2"/>
<path d="M353.865 345.001H374.306V241.451H353.865V345.001Z" fill="#AFCDFB"/>
<path d="M364.428 338.588C366.948 338.588 368.991 336.548 368.991 334.03C368.991 331.513 366.948 329.472 364.428 329.472C361.908 329.472 359.865 331.513 359.865 334.03C359.865 336.548 361.908 338.588 364.428 338.588Z" fill="#699DEE"/>
<path d="M368.991 251.988H359.865V306.339H368.991V251.988Z" fill="white"/>
<path d="M407.181 345.001H435V241.451H407.181V345.001Z" fill="#CA951E"/>
<path d="M394.195 345.001H414.635V241.451H394.195V345.001Z" fill="#DA3D16"/>
<path d="M404.758 338.588C407.278 338.588 409.321 336.548 409.321 334.03C409.321 331.513 407.278 329.472 404.758 329.472C402.237 329.472 400.194 331.513 400.194 334.03C400.194 336.548 402.237 338.588 404.758 338.588Z" fill="#D86713"/>
<path d="M409.321 251.988H400.194V306.339H409.321V251.988Z" fill="white"/>
<path d="M327.841 252.684H318.715V307.035H327.841V252.684Z" fill="white"/>
<path d="M259.265 221.385L269.073 337.882C269.073 337.882 270.1 344.943 264.842 344.956C256.196 344.977 221.809 344.956 221.809 344.956C221.809 344.956 228.316 343.486 228.237 340.179C228.144 336.281 216.773 220.284 216.773 220.284L259.265 221.387V221.385Z" fill="#00062A"/>
<path d="M219.018 342.842C220.719 342.847 253.563 342.951 261.984 342.842C265.652 342.797 266.297 339.583 266.327 337.504C266.342 336.507 266.215 335.771 266.215 335.771L265.961 332.743L265.31 325.026L264.735 318.208L263.996 309.446L263.375 302.051L256.406 219.271L213.914 218.17C213.914 218.17 218.703 266.714 222.091 302.051C222.469 305.988 222.83 309.763 223.162 313.286C223.271 314.412 223.373 315.511 223.474 316.583C223.787 319.926 224.075 322.996 224.325 325.707C224.456 327.136 224.578 328.464 224.688 329.68C225.12 334.446 225.373 337.489 225.377 338.067C225.378 338.404 225.349 338.719 225.294 339.01C224.596 342.724 219.654 342.845 219.016 342.845L219.018 342.842Z" fill="#00062A"/>
<path d="M158.453 157.993H362.458L338.568 253.855L335.297 266.983L324.169 311.634H117.44L158.453 157.993Z" fill="#606060"/>
<path d="M362.459 157.993L365.769 159.094L328.57 314.968L324.169 311.634L362.459 157.993Z" fill="#00062A"/>
<path d="M328.57 314.968H123.114L117.44 311.634H324.169L328.57 314.968Z" fill="#00062A"/>
<path d="M256.421 342.889H211.936V345H256.421V342.889Z" fill="#00062A"/>
<path d="M223.244 314.968L223.474 316.581L265.31 325.025L264.735 318.206L264.461 314.968H223.244Z" fill="#00062A"/>
<path opacity="0.4" d="M219.018 342.842C220.719 342.847 253.563 342.951 261.984 342.842C265.652 342.796 266.297 339.583 266.327 337.504L224.69 329.678C225.122 334.444 225.375 337.488 225.378 338.065C225.38 338.402 225.351 338.717 225.295 339.009C224.597 342.722 219.656 342.844 219.018 342.844V342.842Z" fill="#00062A"/>
<path opacity="0.4" d="M236.043 281.45L324.169 311.634L331.694 281.433L236.043 281.45Z" fill="#00062A"/>
<path d="M158.453 157.993H362.459L331.712 281.432L125.354 281.471L158.453 157.993Z" fill="#00062A"/>
<path d="M215.324 297.08C215.913 294.053 218.848 291.598 221.88 291.598C224.912 291.598 226.891 294.053 226.302 297.08C225.713 300.109 222.778 302.563 219.745 302.563C216.713 302.563 214.734 300.108 215.324 297.08Z" fill="#CA951E"/>
<path d="M134.975 276.12H325.985L347.617 190.041L349.275 183.44L350.69 177.808L354.008 164.607H165.751L162.107 177.808L160.553 183.44L158.732 190.041L134.975 276.12Z" fill="#E9F3FE"/>
<path d="M165.751 164.607H354.008L350.69 177.81H162.107L165.751 164.607Z" fill="#A8D29F"/>
<path d="M344.98 168.922C345.892 168.922 346.447 169.661 346.22 170.573C345.993 171.484 345.069 172.223 344.155 172.223C343.241 172.223 342.687 171.484 342.915 170.573C343.142 169.661 344.066 168.922 344.98 168.922Z" fill="#E9F3FE"/>
<path d="M339.49 168.922C340.402 168.922 340.957 169.661 340.73 170.573C340.503 171.484 339.579 172.223 338.665 172.223C337.751 172.223 337.198 171.484 337.425 170.573C337.652 169.661 338.576 168.922 339.49 168.922Z" fill="#E9F3FE"/>
<path d="M331.514 170.573C331.742 169.661 332.665 168.922 333.579 168.922C334.493 168.922 335.047 169.661 334.819 170.573C334.592 171.484 333.668 172.223 332.755 172.223C331.841 172.223 331.287 171.484 331.514 170.573Z" fill="#E9F3FE"/>
<path d="M66.019 333.132C66.019 333.132 63.5873 335.382 64.0613 336.983C64.5353 338.582 66.73 339.649 67.027 341.604C67.3241 343.56 68.5091 344.625 69.5772 344.625H74.6663C74.6663 344.625 75.452 343.25 73.5543 342.835C71.6567 342.42 70.9408 340.124 71.0593 337.99C71.1778 335.858 70.8808 333.013 70.8808 333.013L66.8485 332.066L66.019 333.133V333.132Z" fill="#233862"/>
<path d="M110.101 344.62H96.5873C96.4704 344.596 96.3812 344.57 96.3243 344.541C95.4234 344.092 95.7042 340.649 95.813 339.582C95.8341 339.384 95.8487 339.268 95.8487 339.268C95.8487 339.268 100.594 335.477 101.246 338.381C101.266 338.472 101.29 338.561 101.316 338.648C102.136 341.364 105.819 342.598 107.947 342.942C109.569 343.205 109.991 344.147 110.101 344.62Z" fill="#233862"/>
<path d="M107.384 266.902C107.384 266.902 106.663 275.882 105.816 286.676C104.665 301.34 103.28 319.352 103.144 322.764C102.907 328.689 101.957 338.167 101.957 338.167C101.957 338.167 99.7057 340.419 95.1962 339.469C95.1962 339.469 91.1785 325.939 90.0308 311.624C90.013 311.389 89.9951 311.153 89.9773 310.917C88.9091 296.344 87.2501 265.656 87.2501 265.656L107.382 266.9L107.384 266.902Z" fill="#699DEE"/>
<path d="M107.384 266.902C107.384 266.902 106.663 275.882 105.816 286.676L90.0308 311.624C90.013 311.389 89.9951 311.153 89.9773 310.917C88.9091 296.344 87.2501 265.656 87.2501 265.656L107.382 266.9L107.384 266.902Z" fill="#4A75CB"/>
<path d="M104.092 267.969C104.092 267.969 91.1038 300.492 82.5652 315.775C74.025 331.058 71.3563 335.324 71.3563 335.324C71.3563 335.324 66.4637 333.369 66.0189 332.036C66.0189 332.036 69.285 302.53 75.0039 295.337C78.2359 291.273 82.0311 279.076 82.2097 274.81C82.3883 270.545 83.3655 262.104 83.3655 262.104L104.092 267.969Z" fill="#699DEE"/>
<path d="M117.228 258.99L117.969 260.469C117.969 260.469 121.744 260.996 120.705 264.927C120.705 264.927 120.145 266.543 119.104 266.033C118.064 265.52 118.577 265.564 117.083 264.875C115.591 264.186 114.728 262.862 115.062 261.65L114.823 260.364L117.228 258.992V258.99Z" fill="#FFB27D"/>
<path d="M97.4314 217.767C98.0093 214.362 98.0271 212.343 98.0271 212.343L91.4381 207.039C91.6833 214.333 87.0033 217.84 87.0033 217.84C87.0033 217.84 95.7837 222.158 100.86 220.559C100.86 220.559 99.6098 218.964 97.4314 217.769V217.767Z" fill="#FFB27D"/>
<path d="M99.5791 212.222C99.5791 212.222 91.1963 213.613 90.409 208.385C89.6217 203.157 88.0098 199.815 93.3294 198.706C98.6489 197.597 99.9914 199.436 100.678 201.116C101.366 202.797 101.74 211.726 99.5791 212.222Z" fill="#FFB27D"/>
<path d="M90.4642 208.745C90.4642 208.745 90.633 201.742 98.2723 200.618C103.504 199.848 100.336 195.481 99.7381 194.79C99.7381 194.79 95.7383 195.552 91.646 196.45C83.0539 198.335 89.5584 207.706 90.4659 208.747L90.4642 208.745Z" fill="#163560"/>
<path d="M116.348 261.045C117.468 259.897 118.301 258.4 118.301 258.4C118.301 258.4 108.777 246.579 108.002 245.353C107.228 244.127 101.444 224.464 101.444 224.464L86.8167 221.503C86.8167 221.503 99.0271 246.666 101.05 249.734C104.392 254.803 114.392 262.348 114.392 262.348C114.392 262.348 115.469 261.945 116.349 261.043L116.348 261.045Z" fill="#82B479"/>
<path d="M107.944 267.651C107.791 267.777 107.614 267.853 107.41 267.853C105.504 267.827 99.9459 268.885 95.2432 268.403C91.2791 268.024 87.7695 266.85 84.0019 265.163C83.5019 264.939 82.3493 264.325 82.3753 263.767C82.3915 263.156 82.4532 262.269 82.5295 261.151C82.7957 257.266 83.2616 250.584 82.8071 242.873C82.7259 241.438 82.6821 240.015 82.6772 238.612C82.6383 228.163 84.6771 218.922 88.8442 215.812C89.1997 215.557 91.422 216.676 93.43 217.665C95.2854 218.58 96.5824 218.558 98.3356 218.203L100.647 219.874C102.782 221.853 105.121 224.545 106.137 228.631C107.002 232.11 107.509 238.38 107.79 244.879C107.916 247.824 108.019 250.795 108.045 253.613V253.713C108.069 253.992 108.069 254.297 108.069 254.578C108.171 261.813 108.069 267.55 107.942 267.652L107.944 267.651Z" fill="#A8D29F"/>
<path d="M82.5295 261.149C82.7958 257.263 83.2616 250.581 82.8071 242.87C82.726 241.435 82.6821 240.012 82.6773 238.609C84.4126 234.401 85.833 231.351 85.833 231.351H90.2094C90.2094 231.351 93.417 253.242 82.5295 261.149Z" fill="#82B479"/>
<path d="M74.0169 262.509L73.1858 263.939C73.1858 263.939 74.814 267.382 70.9521 268.668C70.9521 268.668 69.2915 269.086 69.1486 267.936C69.0058 266.787 69.2509 267.239 69.0107 265.614C68.7688 263.99 69.4051 262.543 70.6031 262.157L71.5495 261.252L74.0153 262.509H74.0169Z" fill="#FFB27D"/>
<path d="M71.814 262.9C73.3903 263.206 75.098 263.083 75.098 263.083C75.098 263.083 79.7763 248.646 80.3786 247.328C80.9808 246.01 94.2756 230.401 94.2756 230.401L88.7369 216.556C88.7369 216.556 74.3577 240.548 72.8984 243.92C70.4862 249.491 69.6486 261.98 69.6486 261.98C69.6486 261.98 70.5771 262.66 71.814 262.9Z" fill="#A8D29F"/>
<path d="M239.679 256.667H150.507L180.991 133.472H270.165L239.679 256.667Z" fill="#AFCDFB"/>
<path d="M226.36 248.98H137.188L167.672 125.784H256.844L226.36 248.98Z" fill="#C0D8F9"/>
<path d="M211.928 240.195H122.755L153.239 117H242.411L211.928 240.195Z" fill="#D4E3F4"/>
<path d="M255.028 133.472L226.815 248.244L152.682 248.981L229.053 250.659L255.028 133.472Z" fill="#699DEE"/>
<path d="M240.217 125.784L213.413 239.459L139.28 240.195L214.671 242.056L240.217 125.784Z" fill="#699DEE"/>
<path d="M174.777 159.694H149.838L157.644 128.399H182.583L174.777 159.694Z" fill="#E9F3FE"/>
<path d="M231.709 132.724H187.028L188.127 128.399H232.81L231.709 132.724Z" fill="#AFCDFB"/>
<path d="M229.694 141.601H185.013L186.112 137.276H230.793L229.694 141.601Z" fill="#AFCDFB"/>
<path d="M227.588 150.475H182.906L184.005 146.152H228.687L227.588 150.475Z" fill="#AFCDFB"/>
<path d="M225.114 159.351H180.432L181.531 155.028H226.214L225.114 159.351Z" fill="#AFCDFB"/>
<path d="M225.114 168.594H143.32L144.419 164.271H226.214L225.114 168.594Z" fill="#AFCDFB"/>
<path d="M222.93 177.837H141.137L142.236 173.512H224.029L222.93 177.837Z" fill="#AFCDFB"/>
<path d="M219.908 188.244H138.113L139.212 183.921H221.007L219.908 188.244Z" fill="#AFCDFB"/>
<path d="M217.159 197.231H135.365L136.464 192.908H218.258L217.159 197.231Z" fill="#AFCDFB"/>
<path d="M176.954 162.807C176.954 162.807 178.416 162.14 178.988 162.345C179.559 162.549 181.108 163.215 181.072 163.885C181.036 164.555 178.552 165.296 176.892 164.485C175.231 163.674 176.954 162.807 176.954 162.807Z" fill="#E49963"/>
<path d="M177.387 164.64C177.361 164.723 177.327 164.801 177.283 164.872C176.791 165.664 168.684 165.704 167.759 165.039C167.345 164.743 167.219 160.645 167.206 156.207C167.189 150.72 167.347 144.708 167.347 144.708C167.347 144.708 170.519 146.179 170.673 147.989C170.827 149.799 169.494 160.674 170.42 161.339C171.347 162.004 175.619 162.09 177.044 162.508C177.044 162.508 177.65 163.81 177.387 164.642V164.64Z" fill="#A8D2A0"/>
<path d="M169.186 132.231C168.631 131.654 167.725 131.6 167.142 131.56C167.311 131.425 167.611 131.407 167.611 131.407C167.259 131.307 166.412 131.56 166.412 131.56C166.412 131.56 163.579 129.615 161.659 133.413C161.659 133.413 161.94 133.144 162.316 132.846C161.208 135.03 161.579 138.599 164.056 139.546C165.667 140.162 174.871 138.145 169.186 132.233V132.231Z" fill="#163560"/>
<path d="M167.47 145.615C167.487 145.625 165.756 146.256 164.581 145.764C163.475 145.304 162.919 143.721 162.935 143.721C163.433 143.687 163.659 143.04 164.021 140.173L164.235 140.245L167.831 141.453C167.831 141.453 167.597 142.602 167.452 143.695C167.331 144.613 167.274 145.49 167.472 145.615H167.47Z" fill="#E49963"/>
<path d="M167.831 141.453C167.831 141.453 167.597 142.602 167.452 143.695C165.394 143.369 164.547 141.346 164.235 140.245L167.831 141.453Z" fill="#D68D5D"/>
<path d="M163.906 139.794C163.906 139.794 163.045 137.945 162.975 136.452C162.925 135.385 163.959 131.589 167.775 132.649C167.775 132.649 168.891 132.907 169.86 133.76C170.631 134.44 171.689 135.826 169.889 139.024L169.387 140.117L163.907 139.794H163.906Z" fill="#163560"/>
<path d="M168.386 142.576C168.386 142.576 163.49 142.023 163.881 138.983C164.272 135.943 163.904 133.823 167.047 134.047C170.189 134.271 170.647 135.51 170.762 136.555C170.879 137.601 169.67 142.641 168.386 142.576Z" fill="#E49963"/>
<path d="M168.707 149.463C168.667 149.106 169.431 148.939 169.571 149.272C169.832 149.893 169.803 150.631 169.861 151.229C170.029 152.937 169.352 155.156 169.352 155.156L168.706 149.463H168.707Z" fill="#82B479"/>
<path d="M170.835 134.848C170.201 133.838 169.603 133.963 169.248 134.194C168.397 132.482 164.763 134.329 164.763 134.329C164.152 136.468 162.415 137.514 162.415 137.514C162.415 137.514 163.235 138.179 165.357 137.918C167.027 137.712 168.498 135.566 169.048 134.661C169.305 134.957 169.84 135.633 169.949 136.241C170.092 137.047 169.994 138.655 170.467 138.66C170.467 138.66 171.79 136.366 170.835 134.848Z" fill="#163560"/>
<path d="M167.538 140.593C167.538 140.593 167.579 140.99 168.55 141.057C168.55 141.057 169.363 141.112 169.394 140.684C169.394 140.684 168.65 140.28 167.538 140.593Z" fill="white"/>
<path d="M177.387 164.641C177.361 164.724 177.327 164.801 177.283 164.873C176.791 165.664 168.684 165.705 167.759 165.04C167.345 164.743 167.212 159.651 168.352 155.26C168.623 157.89 168.126 163.151 169.504 163.579C171.067 164.065 175.335 164.075 177.387 164.639V164.641Z" fill="#82B479"/>
<path d="M169.624 155.399C166.407 164.679 167.873 166.358 166.724 167.162C166.717 167.165 165.759 167.441 165.753 167.444C164.56 168.234 164.68 167.105 161.118 168.128C159.422 168.617 157.245 169.27 155.375 169.583C154.671 169.7 154.011 169.769 153.438 169.761C152.34 169.748 151.555 169.455 151.387 168.689C150.896 166.466 155.305 161.303 154.885 157.335C154.882 157.301 154.878 157.267 154.875 157.233C154.852 156.888 154.89 156.5 154.979 156.08C155.429 153.956 157.192 151.01 158.943 148.529C160.878 145.79 162.798 143.616 162.932 143.719C166.712 146.677 167.344 144.707 167.344 144.707C167.344 144.707 170.72 152.234 169.621 155.399H169.624Z" fill="#A8D2A0"/>
<path d="M166.095 167.353C166.095 167.353 166.102 167.348 166.095 167.353C164.902 168.143 164.678 167.107 161.118 168.128C159.422 168.617 157.245 169.27 155.375 169.583C154.435 169.623 153.734 169.675 153.438 169.761C152.34 169.748 151.555 169.455 151.387 168.689C150.896 166.466 155.305 161.303 154.885 157.335C154.882 157.301 154.878 157.267 154.875 157.233C154.846 156.843 154.885 156.461 154.979 156.08C155.385 154.473 156.815 152.86 158.51 150.458C159.295 151.537 166.274 151.308 163.427 160.588C162.553 163.432 165.961 165.041 166.092 167.353H166.095Z" fill="#82B479"/>
<path d="M165.699 167.795C165.699 167.795 167.253 167.633 167.905 168.002C168.558 168.372 169.845 169.265 169.667 169.63C169.49 169.997 167.829 169.989 167.189 169.517C166.55 169.045 165.977 169.463 165.17 169.074C164.363 168.685 165.699 167.795 165.699 167.795Z" fill="#E49963"/>
<path d="M162.935 143.719C162.935 143.719 157.368 143.074 156.024 145.623C154.68 148.172 153.766 157.624 154.854 160.643C155.942 163.663 163.719 168.56 164.618 168.832C165.517 169.105 166.275 167.764 166.258 167.605C166.24 167.446 158.492 159.323 158.625 158.602C158.758 157.88 162.935 143.718 162.935 143.718V143.719Z" fill="#A8D2A0"/>
<path d="M348.892 330.021L346.903 338.386L343.924 338.368L343.816 330.021H348.892Z" fill="#E49963"/>
<path d="M323.839 330.377L318.182 338.386L315.978 335.558L319.382 329.276L323.839 330.377Z" fill="#E49963"/>
<path d="M338.548 220.098C339.576 219.514 340.808 219.451 341.67 219.501C341.447 219.272 341.011 219.188 341.011 219.188C341.545 219.109 342.738 219.639 342.738 219.639C350.171 216.777 351.34 227.711 351.184 230.252C351.028 232.791 353.682 233.621 357.549 235.622C364.928 239.441 365.576 244.554 365.576 244.554C365.519 244.588 365.459 244.627 365.394 244.671C365.027 244.051 364.274 242.887 363.639 242.712C363.664 242.769 364.391 244.314 364.662 245.199C362.485 246.853 358.412 250.519 355.575 253.117C355.588 252.61 355.567 251.888 355.382 251.507L355.031 253.617C353.512 255.011 352.465 255.992 352.465 255.992C352.653 253.939 343.171 243.107 338.225 239.863C337.021 238.092 336.594 234.964 336.561 234.718C336.769 237.199 337.194 238.59 337.574 239.373C333.386 235.522 335.824 221.645 338.55 220.098H338.548Z" fill="#163560"/>
<path d="M338.517 240.025C338.493 240.036 340.905 241.288 342.72 240.792C344.428 240.326 345.543 238.115 345.52 238.11C344.798 237.967 344.588 236.975 344.605 232.708L344.278 232.773L338.782 233.86C338.782 233.86 338.907 235.588 338.91 237.215C338.913 238.582 338.83 239.877 338.517 240.023V240.025Z" fill="#E49963"/>
<path d="M338.782 233.861C338.782 233.861 338.907 235.59 338.91 237.216C341.986 237.131 343.611 234.327 344.277 232.773L338.78 233.86L338.782 233.861Z" fill="#D68D5D"/>
<path d="M344.845 232.177C344.845 232.177 346.457 229.633 346.843 227.458C347.119 225.905 346.327 220.148 340.537 220.978C340.537 220.978 338.855 221.144 337.274 222.211C336.016 223.059 334.203 224.89 336.23 229.913L336.758 231.609L344.845 232.177Z" fill="#163560"/>
<path d="M316.875 333.363L319.789 333.452L322.943 333.549C322.943 333.549 330.227 325.448 334.313 312.461C334.409 312.159 334.509 311.854 334.615 311.545C336.85 305.031 341.486 296.857 343.929 289.456C344.319 288.277 344.668 287.168 344.981 286.117C345.082 285.782 345.179 285.451 345.272 285.125C347.072 278.877 347.593 274.775 348.074 270.392L330.433 270.533C330.433 270.533 327.586 300.463 316.875 333.363Z" fill="#2B478B"/>
<path d="M332.902 260.408C332.946 268.793 331.67 272.391 331.67 272.391C331.67 272.391 339.223 276.224 348.199 273.403C348.304 273.37 354.95 272.037 354.95 272.037C354.799 271.698 352.966 265.897 352.82 265.587C350.924 261.522 350.664 259.55 350.44 258.3C350.023 255.966 350.015 253.552 350.223 251.275C350.77 245.248 352.4 240.244 352.4 240.244C349.953 239.688 347.663 238.711 345.118 237.758C344.532 238.486 342.743 239.248 341.189 239.214C339.402 239.175 338.821 238.41 338.915 237.575C337.009 238.634 335.49 239.634 335.49 239.634C333.87 242.444 330.586 245.173 330.349 249.483C330.29 250.544 332.904 260.176 332.904 260.411L332.902 260.408Z" fill="#E7F1FD"/>
<path d="M322.661 247.951C325.25 244.93 331.959 238.376 338.882 237.571L332.909 249.198C332.909 249.198 332.573 251.191 330.803 252.352C326.469 255.196 320.96 256.454 320.96 256.454C320.96 256.454 317.228 254.828 312.127 251.095C310.527 249.923 307.714 245.454 307.714 245.454L308.472 242.918C308.472 242.918 313.247 245.585 314.953 246.355C315.926 246.793 318.164 247.841 319.742 248.58C320.745 249.05 321.938 248.792 322.659 247.952L322.661 247.951Z" fill="#699DEE"/>
<path d="M337.754 235.402C337.754 235.402 345.032 235.522 345.036 230.995C345.041 226.467 345.984 223.434 341.339 223.164C336.693 222.897 335.789 224.624 335.418 226.133C335.048 227.645 335.862 235.253 337.754 235.402Z" fill="#E49963"/>
<path d="M338.024 223.054C338.024 223.054 340.015 228.366 343.074 229.151C346.132 229.936 347.458 229.118 347.458 229.118C347.458 229.118 345.113 227.257 344.626 224.009C344.626 224.009 339.527 220.526 338.024 223.054Z" fill="#163560"/>
<path d="M338.517 223.485C338.517 223.485 337.029 224.671 336.667 225.824C336.305 226.977 336.141 229.351 335.448 229.269C335.448 229.269 333.946 225.658 335.633 223.617C337.421 221.45 338.516 223.485 338.516 223.485H338.517Z" fill="#163560"/>
<path d="M308.473 242.918C308.473 242.918 307.447 239.224 303.383 239.746C302.917 239.892 301.553 240.435 302.425 241.893C303.068 242.968 303.345 242.413 304.355 243.856C305.365 245.3 306.462 245.626 307.713 245.454L308.472 242.918H308.473Z" fill="#E49963"/>
<path d="M347.002 337.919C347.002 337.919 346.762 339.576 347.382 341.349C347.382 341.349 347.869 343.567 345.682 343.609C343.496 343.649 342.958 343.444 343.207 342.083C343.455 340.723 343.926 338.37 343.926 338.37L347.004 337.919H347.002Z" fill="#E49963"/>
<path d="M342.999 344.554C342.999 344.554 343.046 344.583 343.137 344.627H347.419C347.502 344.583 347.541 344.554 347.541 344.554C347.788 343.44 347.384 341.347 347.384 341.347C344.906 343.614 343.356 341.29 343.356 341.29C342.954 342.26 343.001 344.554 343.001 344.554H342.999Z" fill="#D86713"/>
<path d="M310.707 342.303C310.707 342.303 314.739 337.833 315.978 335.556L318.976 337.09L312.273 343.378L310.705 343.173V342.302L310.707 342.303Z" fill="#E49963"/>
<path d="M308.204 344.627H313.721C314.254 344.23 314.749 343.312 315.366 342.08C315.694 341.423 316.434 341.06 317.192 340.86V344.583H318.336L319.421 340.625C320.133 339.315 319.478 338.126 318.974 337.09C318.39 337.09 316.819 337.489 313.84 340.841C312.859 341.942 311.778 342.336 310.705 342.302C310.691 342.312 310.674 342.32 310.661 342.325C308.864 343.132 308.35 344.134 308.204 344.626V344.627Z" fill="#D86713"/>
<path d="M338.913 237.573C338.913 237.573 334.702 247.962 334.579 250.066C334.456 252.169 334.084 284.449 334.084 284.449C334.084 284.449 334.332 285.932 331.483 285.315C328.636 284.697 327.893 284.077 327.893 284.077C327.893 284.077 330.617 264.165 329.873 257.239C329.13 250.314 335.569 239.016 335.569 239.016L338.913 237.573Z" fill="#699DEE"/>
<path d="M319.789 333.452L322.943 333.549C322.943 333.549 330.227 325.448 334.313 312.461C334.409 312.159 334.509 311.854 334.615 311.545C336.85 305.031 341.486 296.857 343.929 289.456C344.319 288.277 344.668 287.168 344.981 286.117C345.082 285.782 345.179 285.451 345.272 285.125L342.674 283.156C342.674 283.156 334.876 295.772 332.461 307.643C330.363 317.956 321.964 330.364 319.789 333.45V333.452Z" fill="#233862"/>
<path d="M342.402 308.751C342.358 314.524 342.65 327.797 343.402 333.293H346.195C347.739 333.293 348.51 333.27 348.51 333.27C350.398 323.716 351.742 315.811 352.719 308.997C353.521 303.406 354.236 298.615 354.784 294.488C355.336 290.335 355.721 286.858 355.857 283.922C355.878 283.46 355.895 283.009 355.903 282.573C355.911 282.133 355.914 281.707 355.911 281.293L340.67 279.81C340.861 289.925 342.428 305.396 342.403 308.751H342.402Z" fill="#2B478B"/>
<path d="M346.195 333.293C347.739 333.293 348.51 333.27 348.51 333.27C350.398 323.716 351.742 315.811 352.719 308.997C353.521 303.406 354.236 298.615 354.784 294.488C355.336 290.335 355.721 286.858 355.857 283.922L350.265 287.209C350.265 287.209 353.835 288.467 352.473 297.99C351.111 307.514 348.091 331.944 346.197 333.293H346.195Z" fill="#233862"/>
<path d="M345.476 283.829C345.476 283.829 346.549 287.705 350.263 287.21C353.977 286.715 359.26 284.489 359.26 284.489C359.26 284.489 357.672 279.479 355.698 272.897C353.309 264.928 350.351 254.656 348.957 248.176C348.565 246.36 348.298 244.844 348.199 243.759L345.118 237.787C345.118 237.787 340.524 248.089 340.275 250.685C340.027 253.283 345.475 283.831 345.475 283.831L345.476 283.829Z" fill="#699DEE"/>
<path d="M345.64 256.125C345.806 260.33 346.796 268.493 355.628 272.863C355.651 272.874 355.676 272.887 355.698 272.897C353.309 264.928 350.351 254.656 348.957 248.176C347.335 250.597 345.549 253.811 345.64 256.127V256.125Z" fill="#4A75CB"/>
<path d="M295.974 221.844L293.188 224.626L304.265 235.691L307.051 232.908L295.974 221.844Z" fill="#2B478B"/>
<path d="M304.168 231.842L303.197 232.812C301.285 234.722 301.285 237.818 303.197 239.728L357.399 293.872C359.311 295.782 362.411 295.782 364.323 293.872L365.294 292.902C367.206 290.992 367.206 287.895 365.294 285.986L311.091 231.842C309.179 229.932 306.08 229.932 304.168 231.842Z" fill="#C65447"/>
<path d="M228.985 157.712C210.893 175.784 210.893 205.084 228.985 223.156C247.077 241.228 276.408 241.228 294.5 223.156C312.591 205.084 312.591 175.784 294.5 157.712C276.408 139.64 247.077 139.64 228.985 157.712ZM290.891 219.551C274.793 235.632 248.692 235.632 232.594 219.551C216.495 203.471 216.495 177.398 232.594 161.317C248.692 145.236 274.793 145.236 290.891 161.317C306.989 177.398 306.989 203.471 290.891 219.551Z" fill="#C65447"/>
<path d="M349.184 250.296L345.116 237.784C345.127 237.789 350.252 239.308 352.831 240.609C352.831 240.609 354.443 242.684 355.44 247.473C355.44 247.473 356.494 258.97 354.141 263.174C354.141 263.174 346.713 264.658 334.826 260.577V257.856C334.826 257.856 347.827 258.537 350.489 258.845L349.184 250.294V250.296Z" fill="#E49963"/>
<path d="M345.118 237.784C345.118 237.784 352.658 238.314 354.473 242.355C356.289 246.396 356.867 259.836 354.555 263.794C354.555 263.794 351.374 264.699 345.746 263.648C345.678 263.635 345.608 263.622 345.538 263.609C345.538 263.609 343.743 259.218 345.353 258.352C345.353 258.352 350.099 258.6 349.604 257.032C349.109 255.465 345.119 237.784 345.119 237.784H345.118Z" fill="#699DEE"/>
<path d="M336.16 258.58C336.16 258.58 335.125 257.327 334.904 256.046C334.683 254.767 333.998 253.816 332.209 253.581C330.422 253.346 329.652 253.322 329.657 253.824C329.662 254.327 331.118 257.843 333.683 259.941C336.248 262.039 336.16 258.579 336.16 258.579V258.58Z" fill="#E49963"/>
<path opacity="0.4" d="M279.997 153.217L224.789 208.365C225.69 210.186 226.721 211.933 227.872 213.59L285.228 156.296C283.569 155.146 281.822 154.117 279.997 153.217Z" fill="white"/>
<path opacity="0.4" d="M276.21 151.581C271.715 149.901 266.85 148.981 261.769 148.981C239.003 148.981 220.547 167.417 220.547 190.159C220.547 195.234 221.469 200.094 223.149 204.584L276.21 151.581Z" fill="white"/>
<path opacity="0.4" d="M243.51 227.083C249.015 229.804 255.213 231.336 261.771 231.336C284.538 231.336 302.993 212.901 302.993 190.159C302.993 183.608 301.459 177.417 298.735 171.918L243.51 227.083Z" fill="white"/>
<defs>
<clipPath id="clip0_1657_1468">
<rect width="499" height="345" fill="white"/>
</clipPath>
</defs>
</svg>