<svg width="1543" height="1875" viewBox="0 0 1543 1875" fill="none" xmlns="http://www.w3.org/2000/svg">
<circle cx="14.5316" cy="14.5316" r="14.5316" transform="matrix(-1 0 0 1 1093.07 0)" fill="#DA3D16"/>
<circle cx="25.5756" cy="25.5756" r="25.5756" transform="matrix(-1 0 0 1 1542.15 529)" fill="#4A2870"/>
<circle cx="11.044" cy="11.044" r="11.044" transform="matrix(-1 0 0 1 396.092 161)" fill="#125E9C"/>
<circle cx="14.5316" cy="14.5316" r="14.5316" transform="matrix(-1 0 0 1 839.066 862)" fill="#DA3D16"/>
<circle cx="15.6941" cy="15.6941" r="15.6941" transform="matrix(-1 0 0 1 389.391 1843)" fill="#E50064"/>
<circle cx="25.5756" cy="25.5756" r="25.5756" transform="matrix(-1 0 0 1 1290.15 1299)" fill="#50B0E2"/>
<circle cx="11.044" cy="11.044" r="11.044" transform="matrix(-1 0 0 1 22.0879 1003)" fill="#125E9C"/>
</svg>
